InriaSans-BoldItalic.ufo
<glyph name="exclam" format="1">
  <advance width="281"/>
  <unicode hex="0021"/>
  <outline>
    <contour>
      <point x="176" y="199" type="line"/>
      <point x="235" y="460" type="line"/>
      <point x="274" y="680" type="line"/>
      <point x="159" y="680" type="line"/>
      <point x="120" y="460" type="line"/>
      <point x="86" y="199" type="line"/>
    </contour>
    <contour>
      <point x="156" y="0" type="line"/>
      <point x="177" y="119" type="line"/>
      <point x="56" y="119" type="line"/>
      <point x="35" y="0" type="line"/>
    </contour>
  </outline>
</glyph>
<glyph name="quotedbl" format="1">
  <advance width="386"/>
  <unicode hex="0022"/>
  <outline>
    <contour>
      <point x="162" y="388" type="line"/>
      <point x="217" y="584" type="line"/>
      <point x="234" y="680" type="line"/>
      <point x="127" y="680" type="line"/>
      <point x="110" y="584" type="line"/>
      <point x="95" y="388" type="line"/>
    </contour>
    <contour>
      <point x="337" y="388" type="line"/>
      <point x="392" y="584" type="line"/>
      <point x="409" y="680" type="line"/>
      <point x="302" y="680" type="line"/>
      <point x="285" y="584" type="line"/>
      <point x="270" y="388" type="line"/>
    </contour>
  </outline>
</glyph>
<glyph name="numbersign" format="1">
  <advance width="654"/>
  <unicode hex="0023"/>
  <outline>
    <contour>
      <point x="251" y="0" type="line"/>
      <point x="353" y="0" type="line"/>
      <point x="440" y="185" type="line"/>
      <point x="557" y="185" type="line"/>
      <point x="572" y="272" type="line"/>
      <point x="481" y="272" type="line"/>
      <point x="546" y="408" type="line"/>
      <point x="666" y="408" type="line"/>
      <point x="681" y="495" type="line"/>
      <point x="587" y="495" type="line"/>
      <point x="674" y="680" type="line"/>
      <point x="572" y="680" type="line"/>
      <point x="485" y="495" type="line"/>
      <point x="346" y="495" type="line"/>
      <point x="433" y="680" type="line"/>
      <point x="331" y="680" type="line"/>
      <point x="244" y="495" type="line"/>
      <point x="127" y="495" type="line"/>
      <point x="112" y="408" type="line"/>
      <point x="203" y="408" type="line"/>
      <point x="138" y="272" type="line"/>
      <point x="18" y="272" type="line"/>
      <point x="3" y="185" type="line"/>
      <point x="97" y="185" type="line"/>
      <point x="10" y="0" type="line"/>
      <point x="112" y="0" type="line"/>
      <point x="199" y="185" type="line"/>
      <point x="338" y="185" type="line"/>
    </contour>
    <contour>
      <point x="240" y="272" type="line"/>
      <point x="305" y="408" type="line"/>
      <point x="444" y="408" type="line"/>
      <point x="379" y="272" type="line"/>
    </contour>
  </outline>
</glyph>
<glyph name="dollar" format="1">
  <advance width="517.9683139269895"/>
  <unicode hex="0024"/>
  <outline>
    <contour>
      <point x="467" y="204" type="curve" smooth="yes"/>
      <point x="467" y="295"/>
      <point x="423" y="347"/>
      <point x="348" y="381" type="curve" smooth="yes"/>
      <point x="275" y="414" type="line" smooth="yes"/>
      <point x="227" y="436"/>
      <point x="209" y="456"/>
      <point x="209" y="492" type="curve" smooth="yes"/>
      <point x="209" y="549"/>
      <point x="248" y="579"/>
      <point x="322" y="579" type="curve" smooth="yes"/>
      <point x="367" y="579"/>
      <point x="404" y="567"/>
      <point x="461" y="543" type="curve"/>
      <point x="503" y="646" type="line"/>
      <point x="462" y="664"/>
      <point x="425" y="677"/>
      <point x="388" y="684" type="curve"/>
      <point x="413" y="825" type="line"/>
      <point x="303" y="825" type="line"/>
      <point x="279" y="688" type="line"/>
      <point x="144" y="673"/>
      <point x="83" y="588"/>
      <point x="83" y="481" type="curve" smooth="yes"/>
      <point x="83" y="395"/>
      <point x="123" y="343"/>
      <point x="201" y="308" type="curve" smooth="yes"/>
      <point x="274" y="275" type="line" smooth="yes"/>
      <point x="321" y="254"/>
      <point x="341" y="231"/>
      <point x="341" y="194" type="curve" smooth="yes"/>
      <point x="341" y="139"/>
      <point x="301" y="101"/>
      <point x="211" y="101" type="curve" smooth="yes"/>
      <point x="156" y="101"/>
      <point x="113" y="112"/>
      <point x="44" y="144" type="curve"/>
      <point x="2" y="41" type="line"/>
      <point x="58" y="14"/>
      <point x="107" y="-1"/>
      <point x="156" y="-7" type="curve"/>
      <point x="132" y="-145" type="line"/>
      <point x="242" y="-145" type="line"/>
      <point x="266" y="-7" type="line"/>
      <point x="410" y="11"/>
      <point x="467" y="101"/>
    </contour>
  </outline>
</glyph>
<glyph name="percent" format="1">
  <advance width="734"/>
  <unicode hex="0025"/>
  <outline>
    <contour>
      <point x="357" y="504" type="curve" smooth="yes"/>
      <point x="362" y="538" type="line" smooth="yes"/>
      <point x="374" y="623"/>
      <point x="327" y="685"/>
      <point x="237" y="685" type="curve" smooth="yes"/>
      <point x="156" y="685"/>
      <point x="101" y="639"/>
      <point x="89" y="556" type="curve" smooth="yes"/>
      <point x="84" y="522" type="line" smooth="yes"/>
      <point x="72" y="437"/>
      <point x="120" y="375"/>
      <point x="209" y="375" type="curve" smooth="yes"/>
      <point x="290" y="375"/>
      <point x="345" y="421"/>
    </contour>
    <contour>
      <point x="557" y="680" type="line"/>
      <point x="112" y="0" type="line"/>
      <point x="206" y="0" type="line"/>
      <point x="651" y="680" type="line"/>
    </contour>
    <contour>
      <point x="276" y="504" type="line" smooth="yes"/>
      <point x="270" y="466"/>
      <point x="243" y="449"/>
      <point x="212" y="449" type="curve" smooth="yes"/>
      <point x="173" y="449"/>
      <point x="157" y="476"/>
      <point x="164" y="519" type="curve" smooth="yes"/>
      <point x="170" y="556" type="line" smooth="yes"/>
      <point x="176" y="594"/>
      <point x="203" y="611"/>
      <point x="234" y="611" type="curve" smooth="yes"/>
      <point x="272" y="611"/>
      <point x="289" y="584"/>
      <point x="282" y="541" type="curve" smooth="yes"/>
    </contour>
    <contour>
      <point x="675" y="124" type="curve" smooth="yes"/>
      <point x="680" y="158" type="line" smooth="yes"/>
      <point x="692" y="243"/>
      <point x="645" y="305"/>
      <point x="555" y="305" type="curve" smooth="yes"/>
      <point x="474" y="305"/>
      <point x="419" y="259"/>
      <point x="407" y="176" type="curve" smooth="yes"/>
      <point x="402" y="142" type="line" smooth="yes"/>
      <point x="390" y="57"/>
      <point x="438" y="-5"/>
      <point x="527" y="-5" type="curve" smooth="yes"/>
      <point x="608" y="-5"/>
      <point x="663" y="41"/>
    </contour>
    <contour>
      <point x="594" y="124" type="line" smooth="yes"/>
      <point x="588" y="86"/>
      <point x="561" y="69"/>
      <point x="530" y="69" type="curve" smooth="yes"/>
      <point x="491" y="69"/>
      <point x="475" y="96"/>
      <point x="482" y="139" type="curve" smooth="yes"/>
      <point x="488" y="176" type="line" smooth="yes"/>
      <point x="494" y="214"/>
      <point x="521" y="231"/>
      <point x="552" y="231" type="curve" smooth="yes"/>
      <point x="590" y="231"/>
      <point x="607" y="204"/>
      <point x="600" y="161" type="curve" smooth="yes"/>
    </contour>
  </outline>
</glyph>
<glyph name="ampersand" format="1">
  <advance width="555"/>
  <unicode hex="0026"/>
  <outline>
    <contour>
      <point x="462" y="186" type="curve" smooth="yes"/>
      <point x="462" y="235"/>
      <point x="445" y="276"/>
      <point x="416" y="315" type="curve"/>
      <point x="439" y="319" type="line" smooth="yes"/>
      <point x="482" y="327"/>
      <point x="526" y="337"/>
      <point x="575" y="352" type="curve"/>
      <point x="542" y="454" type="line"/>
      <point x="499" y="439"/>
      <point x="455" y="427"/>
      <point x="387" y="412" type="curve" smooth="yes"/>
      <point x="271" y="387" type="line"/>
      <point x="222" y="440"/>
      <point x="203" y="483"/>
      <point x="203" y="520" type="curve" smooth="yes"/>
      <point x="203" y="572"/>
      <point x="239" y="586"/>
      <point x="277" y="586" type="curve" smooth="yes"/>
      <point x="336" y="586"/>
      <point x="363" y="551"/>
      <point x="343" y="478" type="curve"/>
      <point x="453" y="493" type="line"/>
      <point x="487" y="593"/>
      <point x="421" y="690"/>
      <point x="279" y="690" type="curve" smooth="yes"/>
      <point x="163" y="690"/>
      <point x="88" y="631"/>
      <point x="88" y="530" type="curve" smooth="yes"/>
      <point x="88" y="465"/>
      <point x="124" y="408"/>
      <point x="171" y="362" type="curve"/>
      <point x="55" y="323"/>
      <point x="4" y="256"/>
      <point x="4" y="163" type="curve" smooth="yes"/>
      <point x="4" y="52"/>
      <point x="84" y="-10"/>
      <point x="214" y="-10" type="curve" smooth="yes"/>
      <point x="351" y="-10"/>
      <point x="462" y="59"/>
    </contour>
    <contour>
      <point x="119" y="171" type="curve" smooth="yes"/>
      <point x="119" y="224"/>
      <point x="163" y="265"/>
      <point x="269" y="286" type="curve" smooth="yes"/>
      <point x="317" y="295" type="line"/>
      <point x="337" y="261"/>
      <point x="347" y="228"/>
      <point x="347" y="201" type="curve" smooth="yes"/>
      <point x="347" y="133"/>
      <point x="288" y="96"/>
      <point x="216" y="96" type="curve" smooth="yes"/>
      <point x="157" y="96"/>
      <point x="119" y="122"/>
    </contour>
  </outline>
</glyph>
<glyph name="quotesingle" format="1">
  <advance width="211"/>
  <unicode hex="0027"/>
  <outline>
    <contour>
      <point x="162" y="388" type="line"/>
      <point x="217" y="584" type="line"/>
      <point x="234" y="680" type="line"/>
      <point x="127" y="680" type="line"/>
      <point x="110" y="584" type="line"/>
      <point x="95" y="388" type="line"/>
    </contour>
  </outline>
</glyph>
<glyph name="parenleft" format="1">
  <advance width="335"/>
  <unicode hex="0028"/>
  <outline>
    <contour>
      <point x="166" y="184" type="curve" smooth="yes"/>
      <point x="166" y="206" type="line" smooth="yes"/>
      <point x="166" y="399"/>
      <point x="253" y="530"/>
      <point x="406" y="665" type="curve"/>
      <point x="340" y="750" type="line"/>
      <point x="155" y="597"/>
      <point x="49" y="428"/>
      <point x="49" y="221" type="curve" smooth="yes"/>
      <point x="49" y="190" type="line" smooth="yes"/>
      <point x="49" y="81"/>
      <point x="96" y="-51"/>
      <point x="181" y="-153" type="curve"/>
      <point x="270" y="-88" type="line"/>
      <point x="202" y="-1"/>
      <point x="166" y="98"/>
    </contour>
  </outline>
</glyph>
<glyph name="parenright" format="1">
  <advance width="334.555127366458"/>
  <unicode hex="0029"/>
  <outline>
    <contour>
      <point x="184" y="391" type="line" smooth="yes"/>
      <point x="184" y="198"/>
      <point x="97" y="67"/>
      <point x="-56" y="-68" type="curve"/>
      <point x="10" y="-153" type="line"/>
      <point x="195" y="0"/>
      <point x="301" y="169"/>
      <point x="301" y="376" type="curve" smooth="yes"/>
      <point x="301" y="407" type="line" smooth="yes"/>
      <point x="301" y="516"/>
      <point x="254" y="648"/>
      <point x="169" y="750" type="curve"/>
      <point x="80" y="685" type="line"/>
      <point x="148" y="598"/>
      <point x="184" y="499"/>
      <point x="184" y="413" type="curve" smooth="yes"/>
    </contour>
  </outline>
</glyph>
<glyph name="asterisk" format="1">
  <advance width="412.949992086313"/>
  <unicode hex="002A"/>
  <outline>
    <contour>
      <point x="374" y="342" type="line"/>
      <point x="353" y="387" type="line"/>
      <point x="288" y="470" type="line"/>
      <point x="393" y="464" type="line"/>
      <point x="442" y="471" type="line"/>
      <point x="429" y="565" type="line"/>
      <point x="379" y="558" type="line"/>
      <point x="280" y="523" type="line"/>
      <point x="319" y="620" type="line"/>
      <point x="327" y="669" type="line"/>
      <point x="234" y="686" type="line"/>
      <point x="225" y="636" type="line"/>
      <point x="229" y="531" type="line"/>
      <point x="147" y="598" type="line"/>
      <point x="104" y="621" type="line"/>
      <point x="59" y="538" type="line"/>
      <point x="103" y="514" type="line"/>
      <point x="203" y="484" type="line"/>
      <point x="115" y="428" type="line"/>
      <point x="80" y="394" type="line"/>
      <point x="146" y="325" type="line"/>
      <point x="181" y="360" type="line"/>
      <point x="241" y="448" type="line"/>
      <point x="267" y="346" type="line"/>
      <point x="289" y="300" type="line"/>
    </contour>
  </outline>
</glyph>
<glyph name="plus" format="1">
  <advance width="588"/>
  <unicode hex="002B"/>
  <outline>
    <contour>
      <point x="501" y="255" type="line"/>
      <point x="519" y="355" type="line"/>
      <point x="363" y="355" type="line"/>
      <point x="391" y="515" type="line"/>
      <point x="289" y="515" type="line"/>
      <point x="261" y="355" type="line"/>
      <point x="105" y="355" type="line"/>
      <point x="87" y="255" type="line"/>
      <point x="243" y="255" type="line"/>
      <point x="215" y="95" type="line"/>
      <point x="317" y="95" type="line"/>
      <point x="345" y="255" type="line"/>
    </contour>
  </outline>
</glyph>
<glyph name="comma" format="1">
  <advance width="211"/>
  <unicode hex="002C"/>
  <outline>
    <contour>
      <point x="137" y="119" type="line"/>
      <point x="25" y="119" type="line"/>
      <point x="2" y="-10"/>
      <point x="-16" y="-75"/>
      <point x="-80" y="-184" type="curve"/>
      <point x="-15" y="-223" type="line"/>
      <point x="77" y="-109"/>
      <point x="113" y="-17"/>
      <point x="134" y="100" type="curve" smooth="yes"/>
    </contour>
  </outline>
</glyph>
<glyph name="hyphen" format="1">
  <advance width="404"/>
  <unicode hex="002D"/>
  <outline>
    <contour>
      <point x="52" y="265" type="line"/>
      <point x="356" y="265" type="line"/>
      <point x="373" y="365" type="line"/>
      <point x="69" y="365" type="line"/>
    </contour>
  </outline>
</glyph>
<glyph name="period" format="1">
  <advance width="211"/>
  <unicode hex="002E"/>
  <outline>
    <contour>
      <point x="121" y="0" type="line"/>
      <point x="142" y="119" type="line"/>
      <point x="21" y="119" type="line"/>
      <point x="0" y="0" type="line"/>
    </contour>
  </outline>
</glyph>
<glyph name="slash" format="1">
  <advance width="394"/>
  <unicode hex="002F"/>
  <outline>
    <contour>
      <point x="367" y="740" type="line"/>
      <point x="-109" y="-143" type="line"/>
      <point x="12" y="-143" type="line"/>
      <point x="488" y="740" type="line"/>
    </contour>
  </outline>
</glyph>
<glyph name="zero" format="1">
  <advance width="610"/>
  <unicode hex="0030"/>
  <outline>
    <contour>
      <point x="571" y="402" type="line" smooth="yes"/>
      <point x="602" y="575"/>
      <point x="516" y="690"/>
      <point x="364" y="690" type="curve" smooth="yes"/>
      <point x="208" y="690"/>
      <point x="124" y="588"/>
      <point x="91" y="402" type="curve" smooth="yes"/>
      <point x="69" y="279" type="line" smooth="yes"/>
      <point x="37" y="102"/>
      <point x="124" y="-10"/>
      <point x="277" y="-10" type="curve" smooth="yes"/>
      <point x="432" y="-10"/>
      <point x="515" y="89"/>
      <point x="549" y="279" type="curve" smooth="yes"/>
    </contour>
    <contour>
      <point x="450" y="402" type="curve" smooth="yes"/>
      <point x="428" y="279" type="line" smooth="yes"/>
      <point x="406" y="158"/>
      <point x="365" y="101"/>
      <point x="282" y="101" type="curve" smooth="yes"/>
      <point x="202" y="101"/>
      <point x="169" y="162"/>
      <point x="190" y="279" type="curve" smooth="yes"/>
      <point x="212" y="402" type="line" smooth="yes"/>
      <point x="233" y="519"/>
      <point x="276" y="579"/>
      <point x="357" y="579" type="curve" smooth="yes"/>
      <point x="438" y="579"/>
      <point x="470" y="516"/>
    </contour>
  </outline>
</glyph>
<glyph name="one" format="1">
  <advance width="377"/>
  <unicode hex="0031"/>
  <outline>
    <contour>
      <point x="68" y="583" type="line"/>
      <point x="106" y="489" type="line"/>
      <point x="216" y="544" type="line"/>
      <point x="120" y="0" type="line"/>
      <point x="238" y="0" type="line"/>
      <point x="358" y="680" type="line"/>
      <point x="258" y="680" type="line"/>
    </contour>
  </outline>
</glyph>
<glyph name="two" format="1">
  <advance width="514.4789991477508"/>
  <unicode hex="0032"/>
  <outline>
    <contour>
      <point x="437" y="113" type="line"/>
      <point x="143" y="113" type="line"/>
      <point x="157" y="173"/>
      <point x="179" y="208"/>
      <point x="238" y="236" type="curve" smooth="yes"/>
      <point x="312" y="272" type="line" smooth="yes"/>
      <point x="422" y="325"/>
      <point x="482" y="360"/>
      <point x="501" y="468" type="curve" smooth="yes"/>
      <point x="505" y="491" type="line" smooth="yes"/>
      <point x="523" y="594"/>
      <point x="460" y="690"/>
      <point x="306" y="690" type="curve" smooth="yes"/>
      <point x="246" y="690"/>
      <point x="188" y="677"/>
      <point x="109" y="644" type="curve"/>
      <point x="137" y="541" type="line"/>
      <point x="206" y="568"/>
      <point x="250" y="579"/>
      <point x="293" y="579" type="curve" smooth="yes"/>
      <point x="370" y="579"/>
      <point x="396" y="543"/>
      <point x="387" y="491" type="curve" smooth="yes"/>
      <point x="383" y="469" type="line" smooth="yes"/>
      <point x="376" y="429"/>
      <point x="352" y="412"/>
      <point x="277" y="376" type="curve" smooth="yes"/>
      <point x="203" y="340" type="line" smooth="yes"/>
      <point x="100" y="290"/>
      <point x="48" y="235"/>
      <point x="22" y="95" type="curve"/>
      <point x="5" y="0" type="line"/>
      <point x="417" y="0" type="line"/>
    </contour>
  </outline>
</glyph>
<glyph name="three" format="1">
  <advance width="503.57721767730516"/>
  <unicode hex="0033"/>
  <outline>
    <contour>
      <point x="435" y="179" type="curve" smooth="yes"/>
      <point x="437" y="193" type="line" smooth="yes"/>
      <point x="446" y="258"/>
      <point x="424" y="307"/>
      <point x="381" y="336" type="curve"/>
      <point x="436" y="366"/>
      <point x="472" y="415"/>
      <point x="482" y="479" type="curve" smooth="yes"/>
      <point x="485" y="498" type="line" smooth="yes"/>
      <point x="502" y="603"/>
      <point x="444" y="690"/>
      <point x="291" y="690" type="curve" smooth="yes"/>
      <point x="234" y="690"/>
      <point x="170" y="678"/>
      <point x="89" y="644" type="curve"/>
      <point x="119" y="541" type="line"/>
      <point x="188" y="567"/>
      <point x="235" y="579"/>
      <point x="281" y="579" type="curve" smooth="yes"/>
      <point x="347" y="579"/>
      <point x="375" y="553"/>
      <point x="366" y="493" type="curve" smooth="yes"/>
      <point x="363" y="474" type="line" smooth="yes"/>
      <point x="356" y="428"/>
      <point x="321" y="397"/>
      <point x="259" y="397" type="curve" smooth="yes"/>
      <point x="153" y="397" type="line"/>
      <point x="134" y="289" type="line"/>
      <point x="240" y="289" type="line" smooth="yes"/>
      <point x="305" y="289"/>
      <point x="328" y="252"/>
      <point x="320" y="197" type="curve" smooth="yes"/>
      <point x="318" y="183" type="line" smooth="yes"/>
      <point x="310" y="125"/>
      <point x="266" y="101"/>
      <point x="195" y="101" type="curve" smooth="yes"/>
      <point x="146" y="101"/>
      <point x="102" y="113"/>
      <point x="39" y="141" type="curve"/>
      <point x="-4" y="38" type="line"/>
      <point x="68" y="3"/>
      <point x="129" y="-10"/>
      <point x="192" y="-10" type="curve" smooth="yes"/>
      <point x="353" y="-10"/>
      <point x="419" y="70"/>
    </contour>
  </outline>
</glyph>
<glyph name="four" format="1">
  <advance width="527.215388228006"/>
  <unicode hex="0034"/>
  <outline>
    <contour>
      <point x="487" y="154" type="line"/>
      <point x="506" y="261" type="line"/>
      <point x="435" y="261" type="line"/>
      <point x="453" y="364" type="line"/>
      <point x="337" y="364" type="line"/>
      <point x="319" y="261" type="line"/>
      <point x="170" y="261" type="line"/>
      <point x="285" y="400"/>
      <point x="399" y="542"/>
      <point x="474" y="680" type="curve"/>
      <point x="333" y="680" type="line"/>
      <point x="256" y="540"/>
      <point x="141" y="393"/>
      <point x="25" y="251" type="curve"/>
      <point x="8" y="154" type="line"/>
      <point x="300" y="154" type="line"/>
      <point x="273" y="0" type="line"/>
      <point x="389" y="0" type="line"/>
      <point x="416" y="154" type="line"/>
    </contour>
  </outline>
</glyph>
<glyph name="five" format="1">
  <advance width="510"/>
  <unicode hex="0035"/>
  <outline>
    <contour>
      <point x="76" y="351" type="line"/>
      <point x="130" y="294" type="line"/>
      <point x="173" y="310"/>
      <point x="209" y="319"/>
      <point x="241" y="319" type="curve" smooth="yes"/>
      <point x="319" y="319"/>
      <point x="345" y="275"/>
      <point x="333" y="214" type="curve" smooth="yes"/>
      <point x="327" y="184" type="line" smooth="yes"/>
      <point x="316" y="129"/>
      <point x="272" y="101"/>
      <point x="202" y="101" type="curve" smooth="yes"/>
      <point x="150" y="101"/>
      <point x="109" y="113"/>
      <point x="43" y="141" type="curve"/>
      <point x="-2" y="38" type="line"/>
      <point x="70" y="3"/>
      <point x="131" y="-10"/>
      <point x="195" y="-10" type="curve" smooth="yes"/>
      <point x="360" y="-10"/>
      <point x="426" y="75"/>
      <point x="448" y="184" type="curve" smooth="yes"/>
      <point x="454" y="214" type="line" smooth="yes"/>
      <point x="478" y="335"/>
      <point x="408" y="426"/>
      <point x="266" y="426" type="curve" smooth="yes"/>
      <point x="245" y="426"/>
      <point x="225" y="424"/>
      <point x="205" y="420" type="curve"/>
      <point x="239" y="567" type="line"/>
      <point x="485" y="567" type="line"/>
      <point x="505" y="680" type="line"/>
      <point x="154" y="680" type="line"/>
    </contour>
  </outline>
</glyph>
<glyph name="six" format="1">
  <advance width="568.3883471110785"/>
  <unicode hex="0036"/>
  <outline>
    <contour>
      <point x="512" y="197" type="curve" smooth="yes"/>
      <point x="516" y="219" type="line" smooth="yes"/>
      <point x="538" y="340"/>
      <point x="472" y="437"/>
      <point x="357" y="437" type="curve" smooth="yes"/>
      <point x="304" y="437"/>
      <point x="253" y="416"/>
      <point x="201" y="374" type="curve"/>
      <point x="209" y="422" type="line" smooth="yes"/>
      <point x="229" y="536"/>
      <point x="287" y="579"/>
      <point x="378" y="579" type="curve" smooth="yes"/>
      <point x="416" y="579"/>
      <point x="458" y="569"/>
      <point x="513" y="541" type="curve"/>
      <point x="562" y="644" type="line"/>
      <point x="493" y="678"/>
      <point x="435" y="690"/>
      <point x="377" y="690" type="curve" smooth="yes"/>
      <point x="219" y="690"/>
      <point x="126" y="613"/>
      <point x="94" y="422" type="curve" smooth="yes"/>
      <point x="72" y="291" type="line" smooth="yes"/>
      <point x="43" y="119"/>
      <point x="116" y="-10"/>
      <point x="276" y="-10" type="curve" smooth="yes"/>
      <point x="411" y="-10"/>
      <point x="489" y="72"/>
    </contour>
    <contour>
      <point x="321" y="329" type="curve" smooth="yes"/>
      <point x="386" y="329"/>
      <point x="412" y="282"/>
      <point x="399" y="217" type="curve" smooth="yes"/>
      <point x="395" y="197" type="line" smooth="yes"/>
      <point x="384" y="140"/>
      <point x="341" y="101"/>
      <point x="280" y="101" type="curve" smooth="yes"/>
      <point x="203" y="101"/>
      <point x="167" y="159"/>
      <point x="183" y="275" type="curve"/>
      <point x="225" y="310"/>
      <point x="281" y="329"/>
    </contour>
  </outline>
</glyph>
<glyph name="seven" format="1">
  <advance width="474.0976531182438"/>
  <unicode hex="0037"/>
  <outline>
    <contour>
      <point x="507" y="577" type="curve"/>
      <point x="526" y="680" type="line"/>
      <point x="94" y="680" type="line"/>
      <point x="74" y="567" type="line"/>
      <point x="370" y="567" type="line"/>
      <point x="249" y="380"/>
      <point x="157" y="194"/>
      <point x="89" y="0" type="curve"/>
      <point x="221" y="0" type="line"/>
      <point x="290" y="197"/>
      <point x="383" y="387"/>
    </contour>
  </outline>
</glyph>
<glyph name="eight" format="1">
  <advance width="566.8609088654916"/>
  <unicode hex="0038"/>
  <outline>
    <contour>
      <point x="503" y="204" type="curve" smooth="yes"/>
      <point x="503" y="269"/>
      <point x="474" y="316"/>
      <point x="422" y="351" type="curve"/>
      <point x="512" y="401"/>
      <point x="545" y="470"/>
      <point x="545" y="531" type="curve" smooth="yes"/>
      <point x="545" y="629"/>
      <point x="471" y="690"/>
      <point x="340" y="690" type="curve" smooth="yes"/>
      <point x="183" y="690"/>
      <point x="104" y="593"/>
      <point x="104" y="483" type="curve" smooth="yes"/>
      <point x="104" y="420"/>
      <point x="129" y="376"/>
      <point x="173" y="342" type="curve"/>
      <point x="73" y="289"/>
      <point x="35" y="214"/>
      <point x="35" y="148" type="curve" smooth="yes"/>
      <point x="35" y="59"/>
      <point x="104" y="-10"/>
      <point x="251" y="-10" type="curve" smooth="yes"/>
      <point x="433" y="-10"/>
      <point x="503" y="94"/>
    </contour>
    <contour>
      <point x="296" y="413" type="line" smooth="yes"/>
      <point x="251" y="433"/>
      <point x="224" y="454"/>
      <point x="224" y="494" type="curve" smooth="yes"/>
      <point x="224" y="546"/>
      <point x="265" y="584"/>
      <point x="336" y="584" type="curve" smooth="yes"/>
      <point x="394" y="584"/>
      <point x="424" y="558"/>
      <point x="424" y="510" type="curve" smooth="yes"/>
      <point x="424" y="475"/>
      <point x="407" y="435"/>
      <point x="346" y="391" type="curve"/>
    </contour>
    <contour>
      <point x="157" y="177" type="curve" smooth="yes"/>
      <point x="157" y="222"/>
      <point x="184" y="258"/>
      <point x="250" y="299" type="curve"/>
      <point x="302" y="276" type="line" smooth="yes"/>
      <point x="359" y="250"/>
      <point x="381" y="225"/>
      <point x="381" y="189" type="curve" smooth="yes"/>
      <point x="381" y="134"/>
      <point x="340" y="96"/>
      <point x="257" y="96" type="curve" smooth="yes"/>
      <point x="191" y="96"/>
      <point x="157" y="127"/>
    </contour>
  </outline>
</glyph>
<glyph name="nine" format="1">
  <advance width="570"/>
  <unicode hex="0039"/>
  <outline>
    <contour>
      <point x="506" y="258" type="curve" smooth="yes"/>
      <point x="528" y="389" type="line" smooth="yes"/>
      <point x="557" y="561"/>
      <point x="484" y="690"/>
      <point x="324" y="690" type="curve" smooth="yes"/>
      <point x="189" y="690"/>
      <point x="104" y="609"/>
      <point x="87" y="483" type="curve" smooth="yes"/>
      <point x="84" y="461" type="line" smooth="yes"/>
      <point x="67" y="339"/>
      <point x="128" y="243"/>
      <point x="243" y="243" type="curve" smooth="yes"/>
      <point x="296" y="243"/>
      <point x="347" y="264"/>
      <point x="399" y="306" type="curve"/>
      <point x="391" y="258" type="line" smooth="yes"/>
      <point x="371" y="144"/>
      <point x="313" y="101"/>
      <point x="222" y="101" type="curve" smooth="yes"/>
      <point x="184" y="101"/>
      <point x="142" y="111"/>
      <point x="87" y="139" type="curve"/>
      <point x="38" y="36" type="line"/>
      <point x="107" y="2"/>
      <point x="165" y="-10"/>
      <point x="223" y="-10" type="curve" smooth="yes"/>
      <point x="381" y="-10"/>
      <point x="474" y="67"/>
    </contour>
    <contour>
      <point x="201" y="463" type="curve" smooth="yes"/>
      <point x="204" y="483" type="line" smooth="yes"/>
      <point x="213" y="540"/>
      <point x="259" y="579"/>
      <point x="320" y="579" type="curve" smooth="yes"/>
      <point x="397" y="579"/>
      <point x="433" y="521"/>
      <point x="417" y="405" type="curve"/>
      <point x="375" y="370"/>
      <point x="319" y="351"/>
      <point x="279" y="351" type="curve" smooth="yes"/>
      <point x="214" y="351"/>
      <point x="191" y="397"/>
    </contour>
  </outline>
</glyph>
<glyph name="colon" format="1">
  <advance width="211"/>
  <unicode hex="003A"/>
  <outline>
    <contour>
      <point x="189" y="388" type="line"/>
      <point x="210" y="507" type="line"/>
      <point x="89" y="507" type="line"/>
      <point x="68" y="388" type="line"/>
    </contour>
    <contour>
      <point x="121" y="0" type="line"/>
      <point x="142" y="119" type="line"/>
      <point x="21" y="119" type="line"/>
      <point x="0" y="0" type="line"/>
    </contour>
  </outline>
</glyph>
<glyph name="semicolon" format="1">
  <advance width="211"/>
  <unicode hex="003B"/>
  <outline>
    <contour>
      <point x="189" y="388" type="line"/>
      <point x="210" y="507" type="line"/>
      <point x="89" y="507" type="line"/>
      <point x="68" y="388" type="line"/>
    </contour>
    <contour>
      <point x="137" y="119" type="line"/>
      <point x="25" y="119" type="line"/>
      <point x="2" y="-10"/>
      <point x="-16" y="-75"/>
      <point x="-80" y="-184" type="curve"/>
      <point x="-15" y="-223" type="line"/>
      <point x="77" y="-109"/>
      <point x="113" y="-17"/>
      <point x="134" y="100" type="curve" smooth="yes"/>
    </contour>
  </outline>
</glyph>
<glyph name="less" format="1">
  <advance width="588"/>
  <unicode hex="003C"/>
  <outline>
    <contour>
      <point x="493" y="207" type="line"/>
      <point x="250" y="307" type="line"/>
      <point x="527" y="405" type="line"/>
      <point x="547" y="517" type="line"/>
      <point x="104" y="352" type="line"/>
      <point x="90" y="271" type="line"/>
      <point x="474" y="103" type="line"/>
    </contour>
  </outline>
</glyph>
<glyph name="equal" format="1">
  <advance width="588"/>
  <unicode hex="003D"/>
  <outline>
    <contour>
      <point x="106" y="364" type="line"/>
      <point x="520" y="364" type="line"/>
      <point x="538" y="464" type="line"/>
      <point x="124" y="464" type="line"/>
    </contour>
    <contour>
      <point x="71" y="165" type="line"/>
      <point x="485" y="165" type="line"/>
      <point x="503" y="265" type="line"/>
      <point x="89" y="265" type="line"/>
    </contour>
  </outline>
</glyph>
<glyph name="greater" format="1">
  <advance width="588"/>
  <unicode hex="003E"/>
  <outline>
    <contour>
      <point x="503" y="268" type="line"/>
      <point x="517" y="349" type="line"/>
      <point x="133" y="517" type="line"/>
      <point x="114" y="413" type="line"/>
      <point x="357" y="313" type="line"/>
      <point x="80" y="215" type="line"/>
      <point x="60" y="103" type="line"/>
    </contour>
  </outline>
</glyph>
<glyph name="question" format="1">
  <advance width="464"/>
  <unicode hex="003F"/>
  <outline>
    <contour>
      <point x="271" y="583" type="curve" smooth="yes"/>
      <point x="347" y="583"/>
      <point x="368" y="550"/>
      <point x="359" y="504" type="curve" smooth="yes"/>
      <point x="356" y="486" type="line" smooth="yes"/>
      <point x="351" y="454"/>
      <point x="333" y="435"/>
      <point x="291" y="398" type="curve" smooth="yes"/>
      <point x="252" y="364" type="line" smooth="yes"/>
      <point x="180" y="301"/>
      <point x="163" y="270"/>
      <point x="154" y="217" type="curve" smooth="yes"/>
      <point x="151" y="199" type="line"/>
      <point x="271" y="199" type="line"/>
      <point x="272" y="208" type="line" smooth="yes"/>
      <point x="277" y="237"/>
      <point x="286" y="253"/>
      <point x="337" y="297" type="curve" smooth="yes"/>
      <point x="375" y="330" type="line" smooth="yes"/>
      <point x="430" y="378"/>
      <point x="460" y="411"/>
      <point x="472" y="472" type="curve" smooth="yes"/>
      <point x="476" y="492" type="line" smooth="yes"/>
      <point x="498" y="600"/>
      <point x="443" y="690"/>
      <point x="285" y="690" type="curve" smooth="yes"/>
      <point x="223" y="690"/>
      <point x="157" y="677"/>
      <point x="79" y="644" type="curve"/>
      <point x="108" y="545" type="line"/>
      <point x="179" y="572"/>
      <point x="228" y="583"/>
    </contour>
    <contour>
      <point x="237" y="0" type="line"/>
      <point x="258" y="119" type="line"/>
      <point x="137" y="119" type="line"/>
      <point x="116" y="0" type="line"/>
    </contour>
  </outline>
</glyph>
<glyph name="at" format="1">
  <advance width="946.4810858588055"/>
  <unicode hex="0040"/>
  <outline>
    <contour>
      <point x="729" y="-167" type="curve"/>
      <point x="699" y="-75" type="line"/>
      <point x="631" y="-109"/>
      <point x="545" y="-128"/>
      <point x="467" y="-128" type="curve" smooth="yes"/>
      <point x="263" y="-128"/>
      <point x="143" y="4"/>
      <point x="143" y="207" type="curve" smooth="yes"/>
      <point x="143" y="428"/>
      <point x="279" y="595"/>
      <point x="496" y="595" type="curve" smooth="yes"/>
      <point x="685" y="595"/>
      <point x="811" y="467"/>
      <point x="811" y="289" type="curve" smooth="yes"/>
      <point x="811" y="167"/>
      <point x="752" y="87"/>
      <point x="695" y="87" type="curve" smooth="yes"/>
      <point x="660" y="87"/>
      <point x="651" y="118"/>
      <point x="659" y="162" type="curve" smooth="yes"/>
      <point x="701" y="402" type="line"/>
      <point x="641" y="440"/>
      <point x="573" y="467"/>
      <point x="504" y="467" type="curve" smooth="yes"/>
      <point x="380" y="467"/>
      <point x="313" y="393"/>
      <point x="291" y="255" type="curve" smooth="yes"/>
      <point x="284" y="211" type="line" smooth="yes"/>
      <point x="263" y="80"/>
      <point x="308" y="-10"/>
      <point x="399" y="-10" type="curve" smooth="yes"/>
      <point x="447" y="-10"/>
      <point x="496" y="8"/>
      <point x="558" y="73" type="curve"/>
      <point x="574" y="20"/>
      <point x="619" y="-5"/>
      <point x="682" y="-5" type="curve" smooth="yes"/>
      <point x="815" y="-5"/>
      <point x="914" y="119"/>
      <point x="914" y="289" type="curve" smooth="yes"/>
      <point x="914" y="520"/>
      <point x="745" y="690"/>
      <point x="496" y="690" type="curve" smooth="yes"/>
      <point x="219" y="690"/>
      <point x="40" y="482"/>
      <point x="40" y="207" type="curve" smooth="yes"/>
      <point x="40" y="-50"/>
      <point x="201" y="-223"/>
      <point x="467" y="-223" type="curve" smooth="yes"/>
      <point x="557" y="-223"/>
      <point x="651" y="-202"/>
    </contour>
    <contour>
      <point x="400" y="211" type="curve" smooth="yes"/>
      <point x="407" y="255" type="line" smooth="yes"/>
      <point x="418" y="323"/>
      <point x="452" y="366"/>
      <point x="514" y="366" type="curve" smooth="yes"/>
      <point x="535" y="366"/>
      <point x="555" y="359"/>
      <point x="579" y="348" type="curve"/>
      <point x="549" y="176" type="line"/>
      <point x="506" y="117"/>
      <point x="472" y="95"/>
      <point x="441" y="95" type="curve" smooth="yes"/>
      <point x="403" y="95"/>
      <point x="387" y="130"/>
    </contour>
  </outline>
</glyph>
<glyph name="A" format="1">
  <advance width="601"/>
  <unicode hex="0041"/>
  <outline>
    <contour>
      <point x="416" y="0" type="line"/>
      <point x="536" y="0" type="line"/>
      <point x="428" y="680" type="line"/>
      <point x="322" y="680" type="line"/>
      <point x="-25" y="0" type="line"/>
      <point x="99" y="0" type="line"/>
      <point x="164" y="133" type="line"/>
      <point x="397" y="133" type="line"/>
    </contour>
    <contour>
      <point x="266" y="341" type="line"/>
      <point x="348" y="513" type="line"/>
      <point x="368" y="341" type="line"/>
      <point x="382" y="243" type="line"/>
      <point x="218" y="243" type="line"/>
    </contour>
  </outline>
</glyph>
<glyph name="B" format="1">
  <advance width="585.6963320922059"/>
  <unicode hex="0042"/>
  <outline>
    <contour>
      <point x="49" y="0" type="line"/>
      <point x="294" y="0" type="line" smooth="yes"/>
      <point x="448" y="0"/>
      <point x="503" y="63"/>
      <point x="521" y="172" type="curve" smooth="yes"/>
      <point x="526" y="202" type="line" smooth="yes"/>
      <point x="537" y="267"/>
      <point x="514" y="318"/>
      <point x="464" y="348" type="curve"/>
      <point x="509" y="373"/>
      <point x="535" y="413"/>
      <point x="543" y="462" type="curve" smooth="yes"/>
      <point x="548" y="492" type="line" smooth="yes"/>
      <point x="567" y="604"/>
      <point x="500" y="680"/>
      <point x="366" y="680" type="curve" smooth="yes"/>
      <point x="169" y="680" type="line"/>
    </contour>
    <contour>
      <point x="357" y="570" type="line" smooth="yes"/>
      <point x="409" y="570"/>
      <point x="434" y="540"/>
      <point x="425" y="492" type="curve" smooth="yes"/>
      <point x="419" y="459" type="line" smooth="yes"/>
      <point x="412" y="422"/>
      <point x="379" y="400"/>
      <point x="327" y="400" type="curve" smooth="yes"/>
      <point x="240" y="400" type="line"/>
      <point x="270" y="570" type="line"/>
    </contour>
    <contour>
      <point x="332" y="290" type="line" smooth="yes"/>
      <point x="387" y="290"/>
      <point x="413" y="258"/>
      <point x="404" y="207" type="curve" smooth="yes"/>
      <point x="398" y="174" type="line" smooth="yes"/>
      <point x="391" y="134"/>
      <point x="356" y="110"/>
      <point x="300" y="110" type="curve" smooth="yes"/>
      <point x="188" y="110" type="line"/>
      <point x="220" y="290" type="line"/>
    </contour>
  </outline>
</glyph>
<glyph name="C" format="1">
  <advance width="537.710190578746"/>
  <unicode hex="0043"/>
  <outline>
    <contour>
      <point x="192" y="280" type="curve" smooth="yes"/>
      <point x="212" y="402" type="line" smooth="yes"/>
      <point x="229" y="504"/>
      <point x="279" y="577"/>
      <point x="372" y="577" type="curve" smooth="yes"/>
      <point x="415" y="577"/>
      <point x="450" y="567"/>
      <point x="507" y="542" type="curve"/>
      <point x="552" y="648" type="line"/>
      <point x="488" y="679"/>
      <point x="434" y="690"/>
      <point x="380" y="690" type="curve" smooth="yes"/>
      <point x="212" y="690"/>
      <point x="120" y="592"/>
      <point x="89" y="402" type="curve" smooth="yes"/>
      <point x="69" y="280" type="line" smooth="yes"/>
      <point x="42" y="116"/>
      <point x="121" y="-10"/>
      <point x="286" y="-10" type="curve" smooth="yes"/>
      <point x="331" y="-10"/>
      <point x="393" y="-2"/>
      <point x="467" y="23" type="curve"/>
      <point x="442" y="128" type="line"/>
      <point x="375" y="108"/>
      <point x="331" y="103"/>
      <point x="298" y="103" type="curve" smooth="yes"/>
      <point x="204" y="103"/>
      <point x="175" y="178"/>
    </contour>
  </outline>
</glyph>
<glyph name="D" format="1">
  <advance width="639"/>
  <unicode hex="0044"/>
  <outline>
    <contour>
      <point x="49" y="0" type="line"/>
      <point x="290" y="0" type="line" smooth="yes"/>
      <point x="454" y="0"/>
      <point x="547" y="103"/>
      <point x="578" y="279" type="curve" smooth="yes"/>
      <point x="600" y="402" type="line" smooth="yes"/>
      <point x="628" y="561"/>
      <point x="541" y="680"/>
      <point x="379" y="680" type="curve" smooth="yes"/>
      <point x="169" y="680" type="line"/>
    </contour>
    <contour>
      <point x="371" y="565" type="line" smooth="yes"/>
      <point x="463" y="565"/>
      <point x="495" y="500"/>
      <point x="477" y="402" type="curve" smooth="yes"/>
      <point x="455" y="279" type="line" smooth="yes"/>
      <point x="436" y="174"/>
      <point x="386" y="115"/>
      <point x="296" y="115" type="curve" smooth="yes"/>
      <point x="189" y="115" type="line"/>
      <point x="269" y="565" type="line"/>
    </contour>
  </outline>
</glyph>
<glyph name="E" format="1">
  <advance width="536"/>
  <unicode hex="0045"/>
  <outline>
    <contour>
      <point x="463" y="115" type="line"/>
      <point x="189" y="115" type="line"/>
      <point x="220" y="287" type="line"/>
      <point x="454" y="287" type="line"/>
      <point x="474" y="402" type="line"/>
      <point x="240" y="402" type="line"/>
      <point x="269" y="565" type="line"/>
      <point x="533" y="565" type="line"/>
      <point x="553" y="680" type="line"/>
      <point x="169" y="680" type="line"/>
      <point x="49" y="0" type="line"/>
      <point x="443" y="0" type="line"/>
    </contour>
  </outline>
</glyph>
<glyph name="F" format="1">
  <advance width="505"/>
  <unicode hex="0046"/>
  <outline>
    <contour>
      <point x="443" y="261" type="line"/>
      <point x="463" y="376" type="line"/>
      <point x="235" y="376" type="line"/>
      <point x="269" y="565" type="line"/>
      <point x="527" y="565" type="line"/>
      <point x="547" y="680" type="line"/>
      <point x="169" y="680" type="line"/>
      <point x="49" y="0" type="line"/>
      <point x="169" y="0" type="line"/>
      <point x="215" y="261" type="line"/>
    </contour>
  </outline>
</glyph>
<glyph name="G" format="1">
  <advance width="603"/>
  <unicode hex="0047"/>
  <outline>
    <contour>
      <point x="507" y="43" type="curve"/>
      <point x="565" y="374" type="line"/>
      <point x="346" y="374" type="line"/>
      <point x="327" y="269" type="line"/>
      <point x="438" y="269" type="line"/>
      <point x="412" y="121" type="line"/>
      <point x="370" y="108"/>
      <point x="339" y="103"/>
      <point x="312" y="103" type="curve" smooth="yes"/>
      <point x="207" y="103"/>
      <point x="176" y="178"/>
      <point x="193" y="280" type="curve" smooth="yes"/>
      <point x="213" y="402" type="line" smooth="yes"/>
      <point x="230" y="504"/>
      <point x="286" y="577"/>
      <point x="391" y="577" type="curve" smooth="yes"/>
      <point x="433" y="577"/>
      <point x="477" y="568"/>
      <point x="540" y="543" type="curve"/>
      <point x="585" y="648" type="line"/>
      <point x="515" y="679"/>
      <point x="455" y="690"/>
      <point x="396" y="690" type="curve" smooth="yes"/>
      <point x="219" y="690"/>
      <point x="121" y="592"/>
      <point x="90" y="402" type="curve" smooth="yes"/>
      <point x="70" y="280" type="line" smooth="yes"/>
      <point x="43" y="116"/>
      <point x="126" y="-10"/>
      <point x="298" y="-10" type="curve" smooth="yes"/>
      <point x="356" y="-10"/>
      <point x="431" y="5"/>
    </contour>
  </outline>
</glyph>
<glyph name="H" format="1">
  <advance width="682"/>
  <unicode hex="0048"/>
  <outline>
    <contour>
      <point x="423" y="0" type="line"/>
      <point x="543" y="0" type="line"/>
      <point x="663" y="680" type="line"/>
      <point x="543" y="680" type="line"/>
      <point x="494" y="402" type="line"/>
      <point x="240" y="402" type="line"/>
      <point x="289" y="680" type="line"/>
      <point x="169" y="680" type="line"/>
      <point x="49" y="0" type="line"/>
      <point x="169" y="0" type="line"/>
      <point x="220" y="287" type="line"/>
      <point x="474" y="287" type="line"/>
    </contour>
  </outline>
</glyph>
<glyph name="I" format="1">
  <advance width="308"/>
  <unicode hex="0049"/>
  <outline>
    <contour>
      <point x="169" y="0" type="line"/>
      <point x="289" y="680" type="line"/>
      <point x="169" y="680" type="line"/>
      <point x="49" y="0" type="line"/>
    </contour>
  </outline>
</glyph>
<glyph name="J" format="1">
  <advance width="376"/>
  <unicode hex="004A"/>
  <outline>
    <contour>
      <point x="-21" y="-10" type="line"/>
      <point x="206" y="-10"/>
      <point x="267" y="66"/>
      <point x="298" y="244" type="curve" smooth="yes"/>
      <point x="375" y="680" type="line"/>
      <point x="255" y="680" type="line"/>
      <point x="178" y="244" type="line" smooth="yes"/>
      <point x="158" y="129"/>
      <point x="116" y="105"/>
      <point x="0" y="105" type="curve"/>
    </contour>
  </outline>
</glyph>
<glyph name="K" format="1">
  <advance width="614.0"/>
  <unicode hex="004B"/>
  <outline>
    <contour>
      <point x="416" y="0" type="line"/>
      <point x="553" y="0" type="line"/>
      <point x="392" y="379" type="line"/>
      <point x="480" y="467"/>
      <point x="564" y="566"/>
      <point x="643" y="680" type="curve"/>
      <point x="505" y="680" type="line"/>
      <point x="437" y="578"/>
      <point x="351" y="478"/>
      <point x="234" y="367" type="curve"/>
      <point x="289" y="680" type="line"/>
      <point x="169" y="680" type="line"/>
      <point x="49" y="0" type="line"/>
      <point x="169" y="0" type="line"/>
      <point x="208" y="222" type="line"/>
      <point x="239" y="250"/>
      <point x="268" y="276"/>
      <point x="297" y="303" type="curve"/>
    </contour>
  </outline>
</glyph>
<glyph name="L" format="1">
  <advance width="507"/>
  <unicode hex="004C"/>
  <outline>
    <contour>
      <point x="461" y="115" type="line"/>
      <point x="189" y="115" type="line"/>
      <point x="289" y="680" type="line"/>
      <point x="169" y="680" type="line"/>
      <point x="49" y="0" type="line"/>
      <point x="441" y="0" type="line"/>
    </contour>
  </outline>
</glyph>
<glyph name="M" format="1">
  <advance width="829"/>
  <unicode hex="004D"/>
  <outline>
    <contour>
      <point x="295" y="680" type="line"/>
      <point x="169" y="680" type="line"/>
      <point x="49" y="0" type="line"/>
      <point x="164" y="0" type="line"/>
      <point x="210" y="260" type="line"/>
      <point x="237" y="498" type="line"/>
      <point x="328" y="80" type="line"/>
      <point x="435" y="80" type="line"/>
      <point x="677" y="492" type="line"/>
      <point x="621" y="260" type="line"/>
      <point x="575" y="0" type="line"/>
      <point x="690" y="0" type="line"/>
      <point x="810" y="680" type="line"/>
      <point x="677" y="680" type="line"/>
      <point x="403" y="212" type="line"/>
    </contour>
  </outline>
</glyph>
<glyph name="N" format="1">
  <advance width="683"/>
  <unicode hex="004E"/>
  <outline>
    <contour>
      <point x="49" y="0" type="line"/>
      <point x="164" y="0" type="line"/>
      <point x="210" y="260" type="line"/>
      <point x="244" y="501" type="line"/>
      <point x="316" y="344"/>
      <point x="377" y="187"/>
      <point x="434" y="0" type="curve"/>
      <point x="544" y="0" type="line"/>
      <point x="664" y="680" type="line"/>
      <point x="549" y="680" type="line"/>
      <point x="503" y="420" type="line"/>
      <point x="477" y="209" type="line"/>
      <point x="420" y="376"/>
      <point x="365" y="506"/>
      <point x="279" y="680" type="curve"/>
      <point x="169" y="680" type="line"/>
    </contour>
  </outline>
</glyph>
<glyph name="O" format="1">
  <advance width="640.1220750360203"/>
  <unicode hex="004F"/>
  <outline>
    <contour>
      <point x="601" y="402" type="line" smooth="yes"/>
      <point x="631" y="567"/>
      <point x="542" y="690"/>
      <point x="380" y="690" type="curve" smooth="yes"/>
      <point x="215" y="690"/>
      <point x="123" y="580"/>
      <point x="91" y="402" type="curve" smooth="yes"/>
      <point x="69" y="279" type="line" smooth="yes"/>
      <point x="39" y="110"/>
      <point x="128" y="-10"/>
      <point x="291" y="-10" type="curve" smooth="yes"/>
      <point x="455" y="-10"/>
      <point x="546" y="97"/>
      <point x="579" y="279" type="curve" smooth="yes"/>
    </contour>
    <contour>
      <point x="478" y="402" type="curve" smooth="yes"/>
      <point x="456" y="279" type="line" smooth="yes"/>
      <point x="436" y="167"/>
      <point x="387" y="103"/>
      <point x="297" y="103" type="curve" smooth="yes"/>
      <point x="206" y="103"/>
      <point x="173" y="170"/>
      <point x="192" y="279" type="curve" smooth="yes"/>
      <point x="214" y="402" type="line" smooth="yes"/>
      <point x="233" y="510"/>
      <point x="284" y="577"/>
      <point x="372" y="577" type="curve" smooth="yes"/>
      <point x="464" y="577"/>
      <point x="497" y="507"/>
    </contour>
  </outline>
</glyph>
<glyph name="P" format="1">
  <advance width="575.0363953098692"/>
  <unicode hex="0050"/>
  <outline>
    <contour>
      <point x="49" y="0" type="line"/>
      <point x="169" y="0" type="line"/>
      <point x="210" y="230" type="line"/>
      <point x="327" y="230" type="line" smooth="yes"/>
      <point x="468" y="230"/>
      <point x="543" y="302"/>
      <point x="561" y="414" type="curve" smooth="yes"/>
      <point x="570" y="470" type="line" smooth="yes"/>
      <point x="590" y="596"/>
      <point x="522" y="680"/>
      <point x="380" y="680" type="curve" smooth="yes"/>
      <point x="169" y="680" type="line"/>
    </contour>
    <contour>
      <point x="373" y="565" type="line" smooth="yes"/>
      <point x="431" y="565"/>
      <point x="458" y="530"/>
      <point x="448" y="472" type="curve" smooth="yes"/>
      <point x="439" y="419" type="line" smooth="yes"/>
      <point x="431" y="372"/>
      <point x="392" y="345"/>
      <point x="334" y="345" type="curve" smooth="yes"/>
      <point x="230" y="345" type="line"/>
      <point x="269" y="565" type="line"/>
    </contour>
  </outline>
</glyph>
<glyph name="Q" format="1">
  <advance width="640.1220750360203"/>
  <unicode hex="0051"/>
  <outline>
    <contour>
      <point x="503" y="-73" type="line"/>
      <point x="414" y="-73"/>
      <point x="386" y="-60"/>
      <point x="377" y="1" type="curve"/>
      <point x="488" y="34"/>
      <point x="552" y="132"/>
      <point x="579" y="279" type="curve" smooth="yes"/>
      <point x="601" y="402" type="line" smooth="yes"/>
      <point x="631" y="567"/>
      <point x="542" y="690"/>
      <point x="380" y="690" type="curve" smooth="yes"/>
      <point x="215" y="690"/>
      <point x="123" y="580"/>
      <point x="91" y="402" type="curve" smooth="yes"/>
      <point x="69" y="279" type="line" smooth="yes"/>
      <point x="41" y="119"/>
      <point x="119" y="3"/>
      <point x="265" y="-9" type="curve"/>
      <point x="268" y="-27" type="line" smooth="yes"/>
      <point x="285" y="-124"/>
      <point x="334" y="-198"/>
      <point x="481" y="-198" type="curve"/>
    </contour>
    <contour>
      <point x="478" y="402" type="curve" smooth="yes"/>
      <point x="456" y="279" type="line" smooth="yes"/>
      <point x="436" y="167"/>
      <point x="387" y="103"/>
      <point x="297" y="103" type="curve" smooth="yes"/>
      <point x="206" y="103"/>
      <point x="173" y="170"/>
      <point x="192" y="279" type="curve" smooth="yes"/>
      <point x="214" y="402" type="line" smooth="yes"/>
      <point x="233" y="510"/>
      <point x="284" y="577"/>
      <point x="372" y="577" type="curve" smooth="yes"/>
      <point x="464" y="577"/>
      <point x="497" y="507"/>
    </contour>
  </outline>
</glyph>
<glyph name="R" format="1">
  <advance width="609.0"/>
  <unicode hex="0052"/>
  <outline>
    <contour>
      <point x="49" y="0" type="line"/>
      <point x="169" y="0" type="line"/>
      <point x="213" y="250" type="line"/>
      <point x="328" y="250" type="line"/>
      <point x="360" y="167"/>
      <point x="385" y="83"/>
      <point x="403" y="0" type="curve"/>
      <point x="533" y="0" type="line"/>
      <point x="511" y="90"/>
      <point x="481" y="180"/>
      <point x="443" y="270" type="curve"/>
      <point x="509" y="298"/>
      <point x="552" y="353"/>
      <point x="566" y="428" type="curve" smooth="yes"/>
      <point x="574" y="473" type="line" smooth="yes"/>
      <point x="595" y="591"/>
      <point x="528" y="680"/>
      <point x="383" y="680" type="curve" smooth="yes"/>
      <point x="169" y="680" type="line"/>
    </contour>
    <contour>
      <point x="377" y="570" type="line" smooth="yes"/>
      <point x="435" y="570"/>
      <point x="463" y="536"/>
      <point x="452" y="478" type="curve" smooth="yes"/>
      <point x="444" y="435" type="line" smooth="yes"/>
      <point x="435" y="389"/>
      <point x="398" y="360"/>
      <point x="339" y="360" type="curve" smooth="yes"/>
      <point x="233" y="360" type="line"/>
      <point x="270" y="570" type="line"/>
    </contour>
  </outline>
</glyph>
<glyph name="S" format="1">
  <advance width="518"/>
  <unicode hex="0053"/>
  <outline>
    <contour>
      <point x="211" y="101" type="curve" smooth="yes"/>
      <point x="156" y="101"/>
      <point x="113" y="112"/>
      <point x="44" y="144" type="curve"/>
      <point x="2" y="41" type="line"/>
      <point x="78" y="4"/>
      <point x="142" y="-10"/>
      <point x="211" y="-10" type="curve" smooth="yes"/>
      <point x="395" y="-10"/>
      <point x="467" y="89"/>
      <point x="467" y="204" type="curve" smooth="yes"/>
      <point x="467" y="295"/>
      <point x="423" y="347"/>
      <point x="348" y="381" type="curve" smooth="yes"/>
      <point x="275" y="414" type="line" smooth="yes"/>
      <point x="227" y="436"/>
      <point x="209" y="456"/>
      <point x="209" y="492" type="curve" smooth="yes"/>
      <point x="209" y="549"/>
      <point x="248" y="579"/>
      <point x="322" y="579" type="curve" smooth="yes"/>
      <point x="367" y="579"/>
      <point x="404" y="567"/>
      <point x="461" y="543" type="curve"/>
      <point x="503" y="646" type="line"/>
      <point x="437" y="675"/>
      <point x="383" y="690"/>
      <point x="322" y="690" type="curve" smooth="yes"/>
      <point x="157" y="690"/>
      <point x="83" y="599"/>
      <point x="83" y="481" type="curve" smooth="yes"/>
      <point x="83" y="395"/>
      <point x="123" y="343"/>
      <point x="201" y="308" type="curve" smooth="yes"/>
      <point x="274" y="275" type="line" smooth="yes"/>
      <point x="321" y="254"/>
      <point x="341" y="231"/>
      <point x="341" y="194" type="curve" smooth="yes"/>
      <point x="341" y="139"/>
      <point x="301" y="101"/>
    </contour>
  </outline>
</glyph>
<glyph name="T" format="1">
  <advance width="526"/>
  <unicode hex="0054"/>
  <outline>
    <contour>
      <point x="68" y="565" type="line"/>
      <point x="258" y="565" type="line"/>
      <point x="158" y="0" type="line"/>
      <point x="278" y="0" type="line"/>
      <point x="378" y="565" type="line"/>
      <point x="568" y="565" type="line"/>
      <point x="588" y="680" type="line"/>
      <point x="88" y="680" type="line"/>
    </contour>
  </outline>
</glyph>
<glyph name="U" format="1">
  <advance width="646"/>
  <unicode hex="0055"/>
  <outline>
    <contour>
      <point x="153" y="680" type="line"/>
      <point x="76" y="244" type="line" smooth="yes"/>
      <point x="50" y="94"/>
      <point x="130" y="-10"/>
      <point x="292" y="-10" type="curve" smooth="yes"/>
      <point x="465" y="-10"/>
      <point x="539" y="93"/>
      <point x="566" y="244" type="curve" smooth="yes"/>
      <point x="643" y="680" type="line"/>
      <point x="520" y="680" type="line"/>
      <point x="443" y="244" type="line" smooth="yes"/>
      <point x="428" y="156"/>
      <point x="381" y="103"/>
      <point x="296" y="103" type="curve" smooth="yes"/>
      <point x="211" y="103"/>
      <point x="184" y="157"/>
      <point x="199" y="244" type="curve" smooth="yes"/>
      <point x="276" y="680" type="line"/>
    </contour>
  </outline>
</glyph>
<glyph name="V" format="1">
  <advance width="584"/>
  <unicode hex="0056"/>
  <outline>
    <contour>
      <point x="645" y="680" type="line"/>
      <point x="515" y="680" type="line"/>
      <point x="353" y="339" type="line"/>
      <point x="272" y="161" type="line"/>
      <point x="256" y="338" type="line"/>
      <point x="213" y="680" type="line"/>
      <point x="89" y="680" type="line"/>
      <point x="186" y="0" type="line"/>
      <point x="309" y="0" type="line"/>
    </contour>
  </outline>
</glyph>
<glyph name="W" format="1">
  <advance width="867"/>
  <unicode hex="0057"/>
  <outline>
    <contour>
      <point x="232" y="411" type="line"/>
      <point x="228" y="680" type="line"/>
      <point x="101" y="680" type="line"/>
      <point x="134" y="0" type="line"/>
      <point x="257" y="0" type="line"/>
      <point x="478" y="506" type="line"/>
      <point x="520" y="0" type="line"/>
      <point x="643" y="0" type="line"/>
      <point x="916" y="680" type="line"/>
      <point x="791" y="680" type="line"/>
      <point x="691" y="411" type="line"/>
      <point x="606" y="164" type="line"/>
      <point x="562" y="680" type="line"/>
      <point x="454" y="680" type="line"/>
      <point x="226" y="159" type="line"/>
    </contour>
  </outline>
</glyph>
<glyph name="X" format="1">
  <advance width="562.0"/>
  <unicode hex="0058"/>
  <outline>
    <contour>
      <point x="373" y="0" type="line"/>
      <point x="502" y="0" type="line"/>
      <point x="367" y="339" type="line"/>
      <point x="617" y="680" type="line"/>
      <point x="484" y="680" type="line"/>
      <point x="321" y="450" type="line"/>
      <point x="230" y="680" type="line"/>
      <point x="101" y="680" type="line"/>
      <point x="230" y="354" type="line"/>
      <point x="-30" y="0" type="line"/>
      <point x="103" y="0" type="line"/>
      <point x="276" y="243" type="line"/>
    </contour>
  </outline>
</glyph>
<glyph name="Y" format="1">
  <advance width="544"/>
  <unicode hex="0059"/>
  <outline>
    <contour>
      <point x="616" y="680" type="line"/>
      <point x="485" y="680" type="line"/>
      <point x="295" y="391" type="line"/>
      <point x="202" y="680" type="line"/>
      <point x="78" y="680" type="line"/>
      <point x="216" y="271" type="line"/>
      <point x="168" y="0" type="line"/>
      <point x="288" y="0" type="line"/>
      <point x="337" y="274" type="line"/>
    </contour>
  </outline>
</glyph>
<glyph name="Z" format="1">
  <advance width="509"/>
  <unicode hex="005A"/>
  <outline>
    <contour>
      <point x="448" y="115" type="line"/>
      <point x="163" y="115" type="line"/>
      <point x="519" y="575" type="line"/>
      <point x="538" y="680" type="line"/>
      <point x="123" y="680" type="line"/>
      <point x="103" y="565" type="line"/>
      <point x="368" y="565" type="line"/>
      <point x="12" y="105" type="line"/>
      <point x="-7" y="0" type="line"/>
      <point x="428" y="0" type="line"/>
    </contour>
  </outline>
</glyph>
<glyph name="bracketleft" format="1">
  <advance width="350"/>
  <unicode hex="005B"/>
  <outline>
    <contour>
      <point x="296" y="-43" type="line"/>
      <point x="156" y="-43" type="line"/>
      <point x="277" y="640" type="line"/>
      <point x="417" y="640" type="line"/>
      <point x="434" y="740" type="line"/>
      <point x="179" y="740" type="line"/>
      <point x="24" y="-143" type="line"/>
      <point x="279" y="-143" type="line"/>
    </contour>
  </outline>
</glyph>
<glyph name="backslash" format="1">
  <advance width="394"/>
  <unicode hex="005C"/>
  <outline>
    <contour>
      <point x="190" y="740" type="line"/>
      <point x="76" y="740" type="line"/>
      <point x="249" y="-143" type="line"/>
      <point x="363" y="-143" type="line"/>
    </contour>
  </outline>
</glyph>
<glyph name="bracketright" format="1">
  <advance width="350.21476"/>
  <unicode hex="005D"/>
  <outline>
    <contour>
      <point x="341" y="740" type="line"/>
      <point x="86" y="740" type="line"/>
      <point x="69" y="640" type="line"/>
      <point x="208" y="640" type="line"/>
      <point x="89" y="-43" type="line"/>
      <point x="-52" y="-43" type="line"/>
      <point x="-69" y="-143" type="line"/>
      <point x="186" y="-143" type="line"/>
    </contour>
  </outline>
</glyph>
<glyph name="asciicircum" format="1">
  <advance width="588"/>
  <unicode hex="005E"/>
  <outline>
    <contour>
      <point x="397" y="266" type="line"/>
      <point x="503" y="266" type="line"/>
      <point x="409" y="680" type="line"/>
      <point x="328" y="680" type="line"/>
      <point x="89" y="266" type="line"/>
      <point x="199" y="266" type="line"/>
      <point x="344" y="526" type="line"/>
    </contour>
  </outline>
</glyph>
<glyph name="underscore" format="1">
  <advance width="413.86942826376185"/>
  <unicode hex="005F"/>
  <outline>
    <contour>
      <point x="-69" y="-163" type="line"/>
      <point x="335" y="-163" type="line"/>
      <point x="348" y="-90" type="line"/>
      <point x="-56" y="-90" type="line"/>
    </contour>
  </outline>
</glyph>
<glyph name="grave" format="1">
  <advance width="500"/>
  <unicode hex="0060"/>
  <outline>
    <contour>
      <point x="258" y="579" type="line"/>
      <point x="354" y="579" type="line"/>
      <point x="287" y="745" type="line"/>
      <point x="176" y="699" type="line"/>
    </contour>
  </outline>
</glyph>
<glyph name="b" format="1">
  <advance width="560"/>
  <unicode hex="0062"/>
  <outline>
    <contour>
      <point x="501" y="227" type="curve" smooth="yes"/>
      <point x="508" y="271" type="line" smooth="yes"/>
      <point x="532" y="416"/>
      <point x="481" y="517"/>
      <point x="382" y="517" type="curve" smooth="yes"/>
      <point x="341" y="517"/>
      <point x="290" y="501"/>
      <point x="221" y="431" type="curve"/>
      <point x="275" y="740" type="line"/>
      <point x="160" y="740" type="line"/>
      <point x="40" y="58" type="line"/>
      <point x="107" y="20"/>
      <point x="178" y="-10"/>
      <point x="260" y="-10" type="curve" smooth="yes"/>
      <point x="400" y="-10"/>
      <point x="477" y="73"/>
    </contour>
    <contour>
      <point x="340" y="410" type="curve" smooth="yes"/>
      <point x="386" y="410"/>
      <point x="406" y="367"/>
      <point x="390" y="271" type="curve" smooth="yes"/>
      <point x="383" y="227" type="line" smooth="yes"/>
      <point x="369" y="145"/>
      <point x="328" y="93"/>
      <point x="250" y="93" type="curve" smooth="yes"/>
      <point x="223" y="93"/>
      <point x="197" y="99"/>
      <point x="166" y="115" type="curve"/>
      <point x="198" y="301" type="line"/>
      <point x="261" y="381"/>
      <point x="305" y="410"/>
    </contour>
  </outline>
</glyph>
<glyph name="c" format="1">
  <advance width="450.2971334051222"/>
  <unicode hex="0063"/>
  <outline>
    <contour>
      <point x="293" y="411" type="curve" smooth="yes"/>
      <point x="324" y="411"/>
      <point x="361" y="402"/>
      <point x="403" y="384" type="curve"/>
      <point x="441" y="483" type="line"/>
      <point x="387" y="506"/>
      <point x="339" y="517"/>
      <point x="292" y="517" type="curve" smooth="yes"/>
      <point x="172" y="517"/>
      <point x="85" y="442"/>
      <point x="59" y="294" type="curve" smooth="yes"/>
      <point x="50" y="242" type="line" smooth="yes"/>
      <point x="23" y="89"/>
      <point x="93" y="-10"/>
      <point x="237" y="-10" type="curve" smooth="yes"/>
      <point x="278" y="-10"/>
      <point x="321" y="-2"/>
      <point x="383" y="21" type="curve"/>
      <point x="366" y="120" type="line"/>
      <point x="315" y="102"/>
      <point x="283" y="96"/>
      <point x="251" y="96" type="curve" smooth="yes"/>
      <point x="173" y="96"/>
      <point x="144" y="142"/>
      <point x="161" y="234" type="curve" smooth="yes"/>
      <point x="172" y="294" type="line" smooth="yes"/>
      <point x="186" y="371"/>
      <point x="231" y="411"/>
    </contour>
  </outline>
</glyph>
<glyph name="d" format="1">
  <advance width="564"/>
  <unicode hex="0064"/>
  <outline>
    <contour>
      <point x="331" y="0" type="line"/>
      <point x="440" y="0" type="line"/>
      <point x="570" y="740" type="line"/>
      <point x="455" y="740" type="line"/>
      <point x="412" y="493" type="line"/>
      <point x="376" y="508"/>
      <point x="340" y="517"/>
      <point x="299" y="517" type="curve" smooth="yes"/>
      <point x="159" y="517"/>
      <point x="82" y="434"/>
      <point x="58" y="280" type="curve" smooth="yes"/>
      <point x="51" y="236" type="line" smooth="yes"/>
      <point x="27" y="91"/>
      <point x="78" y="-10"/>
      <point x="177" y="-10" type="curve" smooth="yes"/>
      <point x="220" y="-10"/>
      <point x="273" y="7"/>
      <point x="346" y="85" type="curve"/>
    </contour>
    <contour>
      <point x="169" y="236" type="curve" smooth="yes"/>
      <point x="176" y="280" type="line" smooth="yes"/>
      <point x="190" y="362"/>
      <point x="231" y="414"/>
      <point x="309" y="414" type="curve" smooth="yes"/>
      <point x="336" y="414"/>
      <point x="363" y="408"/>
      <point x="394" y="392" type="curve"/>
      <point x="362" y="207" type="line"/>
      <point x="298" y="127"/>
      <point x="254" y="97"/>
      <point x="219" y="97" type="curve" smooth="yes"/>
      <point x="173" y="97"/>
      <point x="153" y="140"/>
    </contour>
  </outline>
</glyph>
<glyph name="e" format="1">
  <advance width="522.303099197275"/>
  <unicode hex="0065"/>
  <outline>
    <contour>
      <point x="424" y="24" type="curve"/>
      <point x="408" y="122" type="line"/>
      <point x="345" y="100"/>
      <point x="294" y="94"/>
      <point x="265" y="94" type="curve" smooth="yes"/>
      <point x="177" y="94"/>
      <point x="144" y="136"/>
      <point x="154" y="218" type="curve"/>
      <point x="443" y="218" type="line"/>
      <point x="469" y="260"/>
      <point x="482" y="303"/>
      <point x="482" y="346" type="curve" smooth="yes"/>
      <point x="482" y="469"/>
      <point x="391" y="517"/>
      <point x="294" y="517" type="curve" smooth="yes"/>
      <point x="170" y="517"/>
      <point x="81" y="430"/>
      <point x="57" y="294" type="curve" smooth="yes"/>
      <point x="48" y="242" type="line" smooth="yes"/>
      <point x="22" y="89"/>
      <point x="95" y="-10"/>
      <point x="250" y="-10" type="curve" smooth="yes"/>
      <point x="298" y="-10"/>
      <point x="351" y="-4"/>
    </contour>
    <contour>
      <point x="290" y="417" type="curve" smooth="yes"/>
      <point x="339" y="417"/>
      <point x="372" y="393"/>
      <point x="372" y="346" type="curve" smooth="yes"/>
      <point x="372" y="333"/>
      <point x="370" y="321"/>
      <point x="365" y="306" type="curve"/>
      <point x="170" y="306" type="line"/>
      <point x="187" y="379"/>
      <point x="228" y="417"/>
    </contour>
  </outline>
</glyph>
<glyph name="f" format="1">
  <advance width="373.33926596707136"/>
  <unicode hex="0066"/>
  <outline>
    <contour>
      <point x="399" y="407" type="line"/>
      <point x="416" y="507" type="line"/>
      <point x="258" y="507" type="line"/>
      <point x="268" y="560" type="line" smooth="yes"/>
      <point x="279" y="622"/>
      <point x="312" y="642"/>
      <point x="366" y="642" type="curve" smooth="yes"/>
      <point x="389" y="642"/>
      <point x="417" y="637"/>
      <point x="448" y="626" type="curve"/>
      <point x="490" y="724" type="line"/>
      <point x="455" y="739"/>
      <point x="412" y="750"/>
      <point x="363" y="750" type="curve" smooth="yes"/>
      <point x="234" y="750"/>
      <point x="174" y="678"/>
      <point x="153" y="560" type="curve" smooth="yes"/>
      <point x="144" y="507" type="line"/>
      <point x="61" y="507" type="line"/>
      <point x="44" y="407" type="line"/>
      <point x="126" y="407" type="line"/>
      <point x="54" y="0" type="line"/>
      <point x="169" y="0" type="line"/>
      <point x="241" y="407" type="line"/>
    </contour>
  </outline>
</glyph>
<glyph name="g" format="1">
  <advance width="560.557646890903"/>
  <unicode hex="0067"/>
  <outline>
    <contour>
      <point x="441" y="0" type="curve" smooth="yes"/>
      <point x="519" y="452" type="line"/>
      <point x="455" y="493"/>
      <point x="377" y="517"/>
      <point x="299" y="517" type="curve" smooth="yes"/>
      <point x="159" y="517"/>
      <point x="82" y="434"/>
      <point x="58" y="280" type="curve" smooth="yes"/>
      <point x="51" y="236" type="line" smooth="yes"/>
      <point x="28" y="91"/>
      <point x="78" y="-10"/>
      <point x="177" y="-10" type="curve" smooth="yes"/>
      <point x="218" y="-10"/>
      <point x="271" y="7"/>
      <point x="338" y="69" type="curve"/>
      <point x="326" y="0" type="line" smooth="yes"/>
      <point x="314" y="-70"/>
      <point x="293" y="-121"/>
      <point x="201" y="-121" type="curve" smooth="yes"/>
      <point x="170" y="-121"/>
      <point x="118" y="-115"/>
      <point x="61" y="-95" type="curve"/>
      <point x="36" y="-193" type="line"/>
      <point x="97" y="-213"/>
      <point x="155" y="-223"/>
      <point x="207" y="-223" type="curve" smooth="yes"/>
      <point x="372" y="-223"/>
      <point x="419" y="-129"/>
    </contour>
    <contour>
      <point x="169" y="236" type="curve" smooth="yes"/>
      <point x="176" y="280" type="line" smooth="yes"/>
      <point x="189" y="362"/>
      <point x="231" y="414"/>
      <point x="309" y="414" type="curve" smooth="yes"/>
      <point x="337" y="414"/>
      <point x="363" y="408"/>
      <point x="394" y="393" type="curve"/>
      <point x="359" y="193" type="line"/>
      <point x="301" y="121"/>
      <point x="254" y="97"/>
      <point x="219" y="97" type="curve" smooth="yes"/>
      <point x="173" y="97"/>
      <point x="154" y="140"/>
    </contour>
  </outline>
</glyph>
<glyph name="i" format="1">
  <advance width="273"/>
  <unicode hex="0069"/>
  <outline>
    <contour>
      <point x="258" y="603" type="line"/>
      <point x="279" y="722" type="line"/>
      <point x="158" y="722" type="line"/>
      <point x="137" y="603" type="line"/>
    </contour>
    <contour>
      <point x="149" y="0" type="line"/>
      <point x="238" y="507" type="line"/>
      <point x="123" y="507" type="line"/>
      <point x="34" y="0" type="line"/>
    </contour>
  </outline>
</glyph>
<glyph name="j" format="1">
  <advance width="273"/>
  <unicode hex="006A"/>
  <outline>
    <contour>
      <point x="258" y="603" type="line"/>
      <point x="279" y="722" type="line"/>
      <point x="158" y="722" type="line"/>
      <point x="137" y="603" type="line"/>
    </contour>
    <contour>
      <point x="-109" y="-223" type="line"/>
      <point x="76" y="-223"/>
      <point x="124" y="-138"/>
      <point x="148" y="-4" type="curve" smooth="yes"/>
      <point x="238" y="507" type="line"/>
      <point x="123" y="507" type="line"/>
      <point x="33" y="-4" type="line" smooth="yes"/>
      <point x="18" y="-88"/>
      <point x="-24" y="-115"/>
      <point x="-90" y="-115" type="curve"/>
    </contour>
  </outline>
</glyph>
<glyph name="k" format="1">
  <advance width="532"/>
  <unicode hex="006B"/>
  <outline>
    <contour>
      <point x="342" y="0" type="line"/>
      <point x="476" y="0" type="line"/>
      <point x="347" y="283" type="line"/>
      <point x="423" y="357"/>
      <point x="488" y="427"/>
      <point x="545" y="507" type="curve"/>
      <point x="408" y="507" type="line"/>
      <point x="348" y="424"/>
      <point x="285" y="359"/>
      <point x="199" y="285" type="curve"/>
      <point x="279" y="740" type="line"/>
      <point x="164" y="740" type="line"/>
      <point x="34" y="0" type="line"/>
      <point x="149" y="0" type="line"/>
      <point x="176" y="153" type="line"/>
      <point x="202" y="173"/>
      <point x="227" y="193"/>
      <point x="251" y="214" type="curve"/>
    </contour>
  </outline>
</glyph>
<glyph name="l" format="1">
  <advance width="276.19097494844505"/>
  <unicode hex="006C"/>
  <outline>
    <contour>
      <point x="57" y="148" type="line" smooth="yes"/>
      <point x="44" y="73"/>
      <point x="62" y="-5"/>
      <point x="179" y="-5" type="curve" smooth="yes"/>
      <point x="198" y="-5" type="line"/>
      <point x="217" y="101" type="line"/>
      <point x="205" y="101" type="line" smooth="yes"/>
      <point x="174" y="101"/>
      <point x="168" y="123"/>
      <point x="171" y="143" type="curve" smooth="yes"/>
      <point x="276" y="740" type="line"/>
      <point x="161" y="740" type="line"/>
    </contour>
  </outline>
</glyph>
<glyph name="m" format="1">
  <advance width="881"/>
  <unicode hex="006D"/>
  <outline>
    <contour>
      <point x="356" y="410" type="curve" smooth="yes"/>
      <point x="391" y="410"/>
      <point x="408" y="383"/>
      <point x="398" y="326" type="curve" smooth="yes"/>
      <point x="341" y="0" type="line"/>
      <point x="456" y="0" type="line"/>
      <point x="512" y="315" type="line"/>
      <point x="589" y="392"/>
      <point x="632" y="410"/>
      <point x="663" y="410" type="curve" smooth="yes"/>
      <point x="698" y="410"/>
      <point x="715" y="383"/>
      <point x="705" y="326" type="curve" smooth="yes"/>
      <point x="648" y="0" type="line"/>
      <point x="763" y="0" type="line"/>
      <point x="821" y="328" type="line" smooth="yes"/>
      <point x="840" y="436"/>
      <point x="799" y="517"/>
      <point x="702" y="517" type="curve" smooth="yes"/>
      <point x="652" y="517"/>
      <point x="593" y="497"/>
      <point x="515" y="417" type="curve"/>
      <point x="503" y="478"/>
      <point x="463" y="517"/>
      <point x="395" y="517" type="curve" smooth="yes"/>
      <point x="347" y="517"/>
      <point x="291" y="497"/>
      <point x="217" y="421" type="curve"/>
      <point x="232" y="507" type="line"/>
      <point x="123" y="507" type="line"/>
      <point x="34" y="0" type="line"/>
      <point x="149" y="0" type="line"/>
      <point x="205" y="315" type="line"/>
      <point x="282" y="392"/>
      <point x="325" y="410"/>
    </contour>
  </outline>
</glyph>
<glyph name="n" format="1">
  <advance width="584"/>
  <unicode hex="006E"/>
  <outline>
    <contour>
      <point x="361" y="410" type="curve" smooth="yes"/>
      <point x="401" y="410"/>
      <point x="419" y="383"/>
      <point x="408" y="326" type="curve" smooth="yes"/>
      <point x="351" y="0" type="line"/>
      <point x="466" y="0" type="line"/>
      <point x="524" y="328" type="line" smooth="yes"/>
      <point x="543" y="436"/>
      <point x="501" y="517"/>
      <point x="400" y="517" type="curve" smooth="yes"/>
      <point x="351" y="517"/>
      <point x="293" y="498"/>
      <point x="217" y="421" type="curve"/>
      <point x="232" y="507" type="line"/>
      <point x="123" y="507" type="line"/>
      <point x="34" y="0" type="line"/>
      <point x="149" y="0" type="line"/>
      <point x="204" y="314" type="line"/>
      <point x="283" y="393"/>
      <point x="329" y="410"/>
    </contour>
  </outline>
</glyph>
<glyph name="o" format="1">
  <advance width="545"/>
  <unicode hex="006F"/>
  <outline>
    <contour>
      <point x="496" y="266" type="line" smooth="yes"/>
      <point x="518" y="412"/>
      <point x="440" y="517"/>
      <point x="297" y="517" type="curve" smooth="yes"/>
      <point x="165" y="517"/>
      <point x="79" y="437"/>
      <point x="57" y="294" type="curve" smooth="yes"/>
      <point x="49" y="242" type="line" smooth="yes"/>
      <point x="26" y="96"/>
      <point x="104" y="-10"/>
      <point x="247" y="-10" type="curve" smooth="yes"/>
      <point x="378" y="-10"/>
      <point x="466" y="70"/>
      <point x="488" y="214" type="curve" smooth="yes"/>
    </contour>
    <contour>
      <point x="379" y="271" type="curve" smooth="yes"/>
      <point x="370" y="214" type="line" smooth="yes"/>
      <point x="357" y="134"/>
      <point x="310" y="93"/>
      <point x="252" y="93" type="curve" smooth="yes"/>
      <point x="185" y="93"/>
      <point x="152" y="150"/>
      <point x="166" y="237" type="curve" smooth="yes"/>
      <point x="175" y="294" type="line" smooth="yes"/>
      <point x="188" y="375"/>
      <point x="235" y="414"/>
      <point x="293" y="414" type="curve" smooth="yes"/>
      <point x="362" y="414"/>
      <point x="393" y="358"/>
    </contour>
  </outline>
</glyph>
<glyph name="q" format="1">
  <advance width="560.557646890903"/>
  <unicode hex="0071"/>
  <outline>
    <contour>
      <point x="519" y="449" type="line"/>
      <point x="452" y="487"/>
      <point x="381" y="517"/>
      <point x="299" y="517" type="curve" smooth="yes"/>
      <point x="159" y="517"/>
      <point x="82" y="434"/>
      <point x="58" y="280" type="curve" smooth="yes"/>
      <point x="51" y="236" type="line" smooth="yes"/>
      <point x="27" y="91"/>
      <point x="78" y="-10"/>
      <point x="177" y="-10" type="curve" smooth="yes"/>
      <point x="218" y="-10"/>
      <point x="269" y="6"/>
      <point x="338" y="76" type="curve"/>
      <point x="287" y="-213" type="line"/>
      <point x="402" y="-213" type="line"/>
    </contour>
    <contour>
      <point x="169" y="236" type="curve" smooth="yes"/>
      <point x="176" y="280" type="line" smooth="yes"/>
      <point x="190" y="362"/>
      <point x="231" y="414"/>
      <point x="309" y="414" type="curve" smooth="yes"/>
      <point x="336" y="414"/>
      <point x="362" y="408"/>
      <point x="393" y="392" type="curve"/>
      <point x="360" y="205" type="line"/>
      <point x="298" y="126"/>
      <point x="254" y="97"/>
      <point x="219" y="97" type="curve" smooth="yes"/>
      <point x="173" y="97"/>
      <point x="153" y="140"/>
    </contour>
  </outline>
</glyph>
<glyph name="r" format="1">
  <advance width="387"/>
  <unicode hex="0072"/>
  <outline>
    <contour>
      <point x="391" y="402" type="curve"/>
      <point x="411" y="517" type="line"/>
      <point x="360" y="517"/>
      <point x="296" y="499"/>
      <point x="217" y="420" type="curve"/>
      <point x="232" y="507" type="line"/>
      <point x="123" y="507" type="line"/>
      <point x="34" y="0" type="line"/>
      <point x="149" y="0" type="line"/>
      <point x="205" y="317" type="line"/>
      <point x="282" y="395"/>
      <point x="345" y="402"/>
    </contour>
  </outline>
</glyph>
<glyph name="s" format="1">
  <advance width="460.9442886908603"/>
  <unicode hex="0073"/>
  <outline>
    <contour>
      <point x="201" y="91" type="curve" smooth="yes"/>
      <point x="154" y="91"/>
      <point x="107" y="102"/>
      <point x="50" y="128" type="curve"/>
      <point x="14" y="30" type="line"/>
      <point x="77" y="2"/>
      <point x="134" y="-10"/>
      <point x="195" y="-10" type="curve" smooth="yes"/>
      <point x="338" y="-10"/>
      <point x="401" y="60"/>
      <point x="401" y="153" type="curve" smooth="yes"/>
      <point x="401" y="224"/>
      <point x="365" y="272"/>
      <point x="286" y="299" type="curve" smooth="yes"/>
      <point x="231" y="318" type="line" smooth="yes"/>
      <point x="197" y="330"/>
      <point x="180" y="344"/>
      <point x="180" y="369" type="curve" smooth="yes"/>
      <point x="180" y="394"/>
      <point x="195" y="416"/>
      <point x="254" y="416" type="curve" smooth="yes"/>
      <point x="293" y="416"/>
      <point x="335" y="406"/>
      <point x="385" y="383" type="curve"/>
      <point x="422" y="481" type="line"/>
      <point x="365" y="505"/>
      <point x="313" y="517"/>
      <point x="257" y="517" type="curve" smooth="yes"/>
      <point x="126" y="517"/>
      <point x="65" y="451"/>
      <point x="65" y="360" type="curve" smooth="yes"/>
      <point x="65" y="290"/>
      <point x="99" y="242"/>
      <point x="173" y="216" type="curve" smooth="yes"/>
      <point x="228" y="197" type="line" smooth="yes"/>
      <point x="270" y="183"/>
      <point x="287" y="167"/>
      <point x="287" y="141" type="curve" smooth="yes"/>
      <point x="287" y="106"/>
      <point x="256" y="91"/>
    </contour>
  </outline>
</glyph>
<glyph name="t" format="1">
  <advance width="400.0604032122069"/>
  <unicode hex="0074"/>
  <outline>
    <contour>
      <point x="344" y="11" type="curve"/>
      <point x="327" y="112" type="line"/>
      <point x="296" y="101"/>
      <point x="268" y="98"/>
      <point x="248" y="98" type="curve" smooth="yes"/>
      <point x="205" y="98"/>
      <point x="187" y="116"/>
      <point x="196" y="169" type="curve" smooth="yes"/>
      <point x="238" y="407" type="line"/>
      <point x="396" y="407" type="line"/>
      <point x="413" y="507" type="line"/>
      <point x="256" y="507" type="line"/>
      <point x="279" y="639" type="line"/>
      <point x="164" y="639" type="line"/>
      <point x="141" y="507" type="line"/>
      <point x="58" y="507" type="line"/>
      <point x="41" y="407" type="line"/>
      <point x="123" y="407" type="line"/>
      <point x="81" y="169" type="line" smooth="yes"/>
      <point x="64" y="75"/>
      <point x="96" y="-10"/>
      <point x="222" y="-10" type="curve" smooth="yes"/>
      <point x="257" y="-10"/>
      <point x="307" y="-4"/>
    </contour>
  </outline>
</glyph>
<glyph name="u" format="1">
  <advance width="570"/>
  <unicode hex="0075"/>
  <outline>
    <contour>
      <point x="337" y="0" type="line"/>
      <point x="446" y="0" type="line"/>
      <point x="535" y="507" type="line"/>
      <point x="420" y="507" type="line"/>
      <point x="365" y="193" type="line"/>
      <point x="288" y="116"/>
      <point x="245" y="97"/>
      <point x="215" y="97" type="curve" smooth="yes"/>
      <point x="181" y="97"/>
      <point x="165" y="124"/>
      <point x="175" y="181" type="curve" smooth="yes"/>
      <point x="232" y="507" type="line"/>
      <point x="117" y="507" type="line"/>
      <point x="59" y="179" type="line" smooth="yes"/>
      <point x="39" y="71"/>
      <point x="80" y="-10"/>
      <point x="176" y="-10" type="curve" smooth="yes"/>
      <point x="223" y="-10"/>
      <point x="278" y="10"/>
      <point x="352" y="86" type="curve"/>
    </contour>
  </outline>
</glyph>
<glyph name="v" format="1">
  <advance width="499"/>
  <unicode hex="0076"/>
  <outline>
    <contour>
      <point x="526" y="507" type="line"/>
      <point x="410" y="507" type="line"/>
      <point x="283" y="254" type="line"/>
      <point x="229" y="142" type="line"/>
      <point x="214" y="254" type="line"/>
      <point x="171" y="507" type="line"/>
      <point x="61" y="507" type="line"/>
      <point x="152" y="0" type="line"/>
      <point x="257" y="0" type="line"/>
    </contour>
  </outline>
</glyph>
<glyph name="w" format="1">
  <advance width="737"/>
  <unicode hex="0077"/>
  <outline>
    <contour>
      <point x="754" y="507" type="line"/>
      <point x="637" y="507" type="line"/>
      <point x="554" y="305" type="line"/>
      <point x="491" y="126" type="line"/>
      <point x="471" y="507" type="line"/>
      <point x="355" y="507" type="line"/>
      <point x="198" y="115" type="line"/>
      <point x="197" y="306" type="line"/>
      <point x="183" y="507" type="line"/>
      <point x="71" y="507" type="line"/>
      <point x="112" y="0" type="line"/>
      <point x="237" y="0" type="line"/>
      <point x="394" y="381" type="line"/>
      <point x="410" y="0" type="line"/>
      <point x="535" y="0" type="line"/>
    </contour>
  </outline>
</glyph>
<glyph name="x" format="1">
  <advance width="484.0"/>
  <unicode hex="0078"/>
  <outline>
    <contour>
      <point x="303" y="0" type="line"/>
      <point x="420" y="0" type="line"/>
      <point x="304" y="259" type="line"/>
      <point x="503" y="507" type="line"/>
      <point x="377" y="507" type="line"/>
      <point x="259" y="354" type="line"/>
      <point x="191" y="507" type="line"/>
      <point x="74" y="507" type="line"/>
      <point x="184" y="262" type="line"/>
      <point x="-26" y="0" type="line"/>
      <point x="100" y="0" type="line"/>
      <point x="229" y="167" type="line"/>
    </contour>
  </outline>
</glyph>
<glyph name="y" format="1">
  <advance width="499"/>
  <unicode hex="0079"/>
  <outline>
    <contour>
      <point x="230" y="-50" type="curve" smooth="yes"/>
      <point x="257" y="0" type="line"/>
      <point x="526" y="507" type="line"/>
      <point x="411" y="507" type="line"/>
      <point x="284" y="254" type="line"/>
      <point x="233" y="149" type="line"/>
      <point x="218" y="254" type="line"/>
      <point x="175" y="507" type="line"/>
      <point x="61" y="507" type="line"/>
      <point x="151" y="5" type="line"/>
      <point x="135" y="-25" type="line" smooth="yes"/>
      <point x="101" y="-87"/>
      <point x="73" y="-102"/>
      <point x="-4" y="-108" type="curve"/>
      <point x="-24" y="-223" type="line"/>
      <point x="93" y="-223"/>
      <point x="164" y="-173"/>
    </contour>
  </outline>
</glyph>
<glyph name="z" format="1">
  <advance width="432"/>
  <unicode hex="007A"/>
  <outline>
    <contour>
      <point x="370" y="100" type="line"/>
      <point x="151" y="100" type="line"/>
      <point x="416" y="417" type="line"/>
      <point x="431" y="507" type="line"/>
      <point x="89" y="507" type="line"/>
      <point x="72" y="407" type="line"/>
      <point x="271" y="407" type="line"/>
      <point x="6" y="90" type="line"/>
      <point x="-10" y="0" type="line"/>
      <point x="352" y="0" type="line"/>
    </contour>
  </outline>
</glyph>
<glyph name="braceleft" format="1">
  <advance width="381"/>
  <unicode hex="007B"/>
  <outline>
    <contour>
      <point x="327" y="-44" type="line"/>
      <point x="238" y="-44" type="line" smooth="yes"/>
      <point x="189" y="-44"/>
      <point x="179" y="-8"/>
      <point x="199" y="42" type="curve" smooth="yes"/>
      <point x="235" y="128" type="line" smooth="yes"/>
      <point x="272" y="219"/>
      <point x="255" y="274"/>
      <point x="192" y="293" type="curve"/>
      <point x="262" y="314"/>
      <point x="300" y="373"/>
      <point x="295" y="468" type="curve" smooth="yes"/>
      <point x="290" y="554" type="line" smooth="yes"/>
      <point x="287" y="604"/>
      <point x="310" y="640"/>
      <point x="359" y="640" type="curve" smooth="yes"/>
      <point x="448" y="640" type="line"/>
      <point x="465" y="740" type="line"/>
      <point x="361" y="740" type="line" smooth="yes"/>
      <point x="227" y="740"/>
      <point x="165" y="660"/>
      <point x="172" y="535" type="curve" smooth="yes"/>
      <point x="177" y="449" type="line" smooth="yes"/>
      <point x="181" y="389"/>
      <point x="164" y="348"/>
      <point x="89" y="348" type="curve" smooth="yes"/>
      <point x="36" y="348" type="line"/>
      <point x="19" y="248" type="line"/>
      <point x="72" y="248" type="line" smooth="yes"/>
      <point x="147" y="248"/>
      <point x="148" y="207"/>
      <point x="124" y="147" type="curve" smooth="yes"/>
      <point x="89" y="61" type="line" smooth="yes"/>
      <point x="43" y="-53"/>
      <point x="90" y="-144"/>
      <point x="229" y="-144" type="curve" smooth="yes"/>
      <point x="310" y="-144" type="line"/>
    </contour>
  </outline>
</glyph>
<glyph name="bar" format="1">
  <advance width="303"/>
  <unicode hex="007C"/>
  <outline>
    <contour>
      <point x="179" y="740" type="line"/>
      <point x="11" y="-213" type="line"/>
      <point x="126" y="-213" type="line"/>
      <point x="294" y="740" type="line"/>
    </contour>
  </outline>
</glyph>
<glyph name="braceright" format="1">
  <advance width="381"/>
  <unicode hex="007D"/>
  <outline>
    <contour>
      <point x="224" y="61" type="curve" smooth="yes"/>
      <point x="219" y="147" type="line" smooth="yes"/>
      <point x="215" y="207"/>
      <point x="232" y="248"/>
      <point x="307" y="248" type="curve" smooth="yes"/>
      <point x="360" y="248" type="line"/>
      <point x="377" y="348" type="line"/>
      <point x="324" y="348" type="line" smooth="yes"/>
      <point x="249" y="348"/>
      <point x="248" y="389"/>
      <point x="272" y="449" type="curve" smooth="yes"/>
      <point x="307" y="535" type="line" smooth="yes"/>
      <point x="353" y="649"/>
      <point x="306" y="740"/>
      <point x="167" y="740" type="curve" smooth="yes"/>
      <point x="86" y="740" type="line"/>
      <point x="69" y="640" type="line"/>
      <point x="158" y="640" type="line" smooth="yes"/>
      <point x="207" y="640"/>
      <point x="217" y="604"/>
      <point x="197" y="554" type="curve" smooth="yes"/>
      <point x="161" y="468" type="line" smooth="yes"/>
      <point x="124" y="377"/>
      <point x="141" y="322"/>
      <point x="204" y="303" type="curve"/>
      <point x="134" y="282"/>
      <point x="96" y="223"/>
      <point x="101" y="128" type="curve" smooth="yes"/>
      <point x="106" y="42" type="line" smooth="yes"/>
      <point x="109" y="-8"/>
      <point x="86" y="-44"/>
      <point x="37" y="-44" type="curve" smooth="yes"/>
      <point x="-52" y="-44" type="line"/>
      <point x="-69" y="-144" type="line"/>
      <point x="35" y="-144" type="line" smooth="yes"/>
      <point x="169" y="-144"/>
      <point x="231" y="-64"/>
    </contour>
  </outline>
</glyph>
<glyph name="asciitilde" format="1">
  <advance width="588"/>
  <unicode hex="007E"/>
  <outline>
    <contour>
      <point x="384" y="210" type="curve" smooth="yes"/>
      <point x="434" y="210"/>
      <point x="491" y="237"/>
      <point x="534" y="387" type="curve"/>
      <point x="448" y="407" type="line"/>
      <point x="418" y="318"/>
      <point x="397" y="310"/>
      <point x="385" y="310" type="curve" smooth="yes"/>
      <point x="346" y="310"/>
      <point x="317" y="416"/>
      <point x="223" y="416" type="curve" smooth="yes"/>
      <point x="174" y="416"/>
      <point x="117" y="389"/>
      <point x="74" y="240" type="curve"/>
      <point x="161" y="220" type="line"/>
      <point x="189" y="310"/>
      <point x="210" y="316"/>
      <point x="221" y="316" type="curve" smooth="yes"/>
      <point x="261" y="316"/>
      <point x="289" y="210"/>
    </contour>
  </outline>
</glyph>
<glyph name="exclamdown" format="1">
  <advance width="280.60222078080824"/>
  <unicode hex="00A1"/>
  <outline>
    <contour>
      <point x="124" y="507" type="line"/>
      <point x="103" y="388" type="line"/>
      <point x="224" y="388" type="line"/>
      <point x="245" y="507" type="line"/>
    </contour>
    <contour>
      <point x="104" y="308" type="line"/>
      <point x="45" y="47" type="line"/>
      <point x="6" y="-173" type="line"/>
      <point x="121" y="-173" type="line"/>
      <point x="160" y="47" type="line"/>
      <point x="194" y="308" type="line"/>
    </contour>
  </outline>
</glyph>
<glyph name="cent" format="1">
  <advance width="450.2971334051222"/>
  <unicode hex="00A2"/>
  <outline>
    <contour>
      <point x="383" y="21" type="curve"/>
      <point x="366" y="120" type="line"/>
      <point x="315" y="102"/>
      <point x="283" y="96"/>
      <point x="251" y="96" type="curve" smooth="yes"/>
      <point x="173" y="96"/>
      <point x="144" y="142"/>
      <point x="161" y="234" type="curve" smooth="yes"/>
      <point x="172" y="294" type="line" smooth="yes"/>
      <point x="186" y="371"/>
      <point x="231" y="411"/>
      <point x="293" y="411" type="curve" smooth="yes"/>
      <point x="324" y="411"/>
      <point x="361" y="402"/>
      <point x="403" y="384" type="curve"/>
      <point x="441" y="483" type="line"/>
      <point x="413" y="495"/>
      <point x="386" y="504"/>
      <point x="360" y="510" type="curve"/>
      <point x="381" y="632" type="line"/>
      <point x="271" y="632" type="line"/>
      <point x="251" y="514" type="line"/>
      <point x="152" y="498"/>
      <point x="82" y="424"/>
      <point x="59" y="294" type="curve" smooth="yes"/>
      <point x="50" y="242" type="line" smooth="yes"/>
      <point x="28" y="119"/>
      <point x="69" y="31"/>
      <point x="160" y="1" type="curve"/>
      <point x="138" y="-125" type="line"/>
      <point x="248" y="-125" type="line"/>
      <point x="268" y="-8" type="line"/>
      <point x="301" y="-5"/>
      <point x="337" y="4"/>
    </contour>
  </outline>
</glyph>
<glyph name="sterling" format="1">
  <advance width="487"/>
  <unicode hex="00A3"/>
  <outline>
    <contour>
      <point x="436" y="115" type="line"/>
      <point x="178" y="115" type="line"/>
      <point x="238" y="170"/>
      <point x="267" y="221"/>
      <point x="272" y="272" type="curve"/>
      <point x="395" y="272" type="line"/>
      <point x="413" y="372" type="line"/>
      <point x="257" y="372" type="line"/>
      <point x="246" y="409"/>
      <point x="233" y="445"/>
      <point x="233" y="483" type="curve" smooth="yes"/>
      <point x="233" y="546"/>
      <point x="269" y="577"/>
      <point x="333" y="577" type="curve" smooth="yes"/>
      <point x="368" y="577"/>
      <point x="409" y="568"/>
      <point x="468" y="542" type="curve"/>
      <point x="513" y="648" type="line"/>
      <point x="442" y="679"/>
      <point x="387" y="690"/>
      <point x="331" y="690" type="curve" smooth="yes"/>
      <point x="165" y="690"/>
      <point x="111" y="592"/>
      <point x="111" y="490" type="curve" smooth="yes"/>
      <point x="111" y="442"/>
      <point x="123" y="406"/>
      <point x="134" y="372" type="curve"/>
      <point x="74" y="372" type="line"/>
      <point x="56" y="272" type="line"/>
      <point x="154" y="272" type="line"/>
      <point x="153" y="228"/>
      <point x="136" y="178"/>
      <point x="35" y="105" type="curve"/>
      <point x="16" y="0" type="line"/>
      <point x="416" y="0" type="line"/>
    </contour>
  </outline>
</glyph>
<glyph name="currency" format="1">
  <advance width="558"/>
  <unicode hex="00A4"/>
  <outline>
    <contour>
      <point x="272" y="103" type="curve" smooth="yes"/>
      <point x="310" y="103"/>
      <point x="345" y="112"/>
      <point x="375" y="129" type="curve"/>
      <point x="453" y="32" type="line"/>
      <point x="516" y="87" type="line"/>
      <point x="439" y="184" type="line"/>
      <point x="467" y="221"/>
      <point x="483" y="267"/>
      <point x="483" y="318" type="curve" smooth="yes"/>
      <point x="483" y="350"/>
      <point x="477" y="378"/>
      <point x="465" y="403" type="curve"/>
      <point x="591" y="513" type="line"/>
      <point x="542" y="576" type="line"/>
      <point x="414" y="464" type="line"/>
      <point x="385" y="485"/>
      <point x="347" y="497"/>
      <point x="303" y="497" type="curve" smooth="yes"/>
      <point x="264" y="497"/>
      <point x="229" y="487"/>
      <point x="199" y="471" type="curve"/>
      <point x="121" y="569" type="line"/>
      <point x="57" y="513" type="line"/>
      <point x="135" y="415" type="line"/>
      <point x="108" y="378"/>
      <point x="92" y="332"/>
      <point x="92" y="282" type="curve" smooth="yes"/>
      <point x="92" y="251"/>
      <point x="98" y="222"/>
      <point x="109" y="198" type="curve"/>
      <point x="-18" y="87" type="line"/>
      <point x="31" y="25" type="line"/>
      <point x="160" y="136" type="line"/>
      <point x="190" y="115"/>
      <point x="228" y="103"/>
    </contour>
    <contour>
      <point x="300" y="407" type="curve" smooth="yes"/>
      <point x="353" y="407"/>
      <point x="388" y="373"/>
      <point x="388" y="314" type="curve" smooth="yes"/>
      <point x="388" y="246"/>
      <point x="341" y="193"/>
      <point x="275" y="193" type="curve" smooth="yes"/>
      <point x="222" y="193"/>
      <point x="187" y="227"/>
      <point x="187" y="286" type="curve" smooth="yes"/>
      <point x="187" y="354"/>
      <point x="234" y="407"/>
    </contour>
  </outline>
</glyph>
<glyph name="yen" format="1">
  <advance width="566"/>
  <unicode hex="00A5"/>
  <outline>
    <contour>
      <point x="490" y="149" type="line"/>
      <point x="506" y="236" type="line"/>
      <point x="341" y="236" type="line"/>
      <point x="348" y="274" type="line"/>
      <point x="374" y="312" type="line"/>
      <point x="519" y="312" type="line"/>
      <point x="534" y="399" type="line"/>
      <point x="434" y="399" type="line"/>
      <point x="627" y="680" type="line"/>
      <point x="496" y="680" type="line"/>
      <point x="306" y="391" type="line"/>
      <point x="213" y="680" type="line"/>
      <point x="89" y="680" type="line"/>
      <point x="184" y="399" type="line"/>
      <point x="84" y="399" type="line"/>
      <point x="69" y="312" type="line"/>
      <point x="213" y="312" type="line"/>
      <point x="227" y="271" type="line"/>
      <point x="221" y="236" type="line"/>
      <point x="56" y="236" type="line"/>
      <point x="40" y="149" type="line"/>
      <point x="205" y="149" type="line"/>
      <point x="179" y="0" type="line"/>
      <point x="299" y="0" type="line"/>
      <point x="325" y="149" type="line"/>
    </contour>
  </outline>
</glyph>
<glyph name="brokenbar" format="1">
  <advance width="281"/>
  <unicode hex="00A6"/>
  <outline>
    <contour>
      <point x="168" y="740" type="line"/>
      <point x="101" y="357" type="line"/>
      <point x="216" y="357" type="line"/>
      <point x="283" y="740" type="line"/>
    </contour>
    <contour>
      <point x="68" y="170" type="line"/>
      <point x="0" y="-213" type="line"/>
      <point x="115" y="-213" type="line"/>
      <point x="183" y="170" type="line"/>
    </contour>
  </outline>
</glyph>
<glyph name="section" format="1">
  <advance width="516"/>
  <unicode hex="00A7"/>
  <outline>
    <contour>
      <point x="400" y="-22" type="curve" smooth="yes"/>
      <point x="400" y="31"/>
      <point x="385" y="71"/>
      <point x="357" y="100" type="curve"/>
      <point x="437" y="137"/>
      <point x="471" y="198"/>
      <point x="471" y="253" type="curve" smooth="yes"/>
      <point x="471" y="332"/>
      <point x="428" y="375"/>
      <point x="357" y="407" type="curve" smooth="yes"/>
      <point x="284" y="440" type="line" smooth="yes"/>
      <point x="243" y="458"/>
      <point x="228" y="475"/>
      <point x="228" y="505" type="curve" smooth="yes"/>
      <point x="228" y="553"/>
      <point x="264" y="579"/>
      <point x="331" y="579" type="curve" smooth="yes"/>
      <point x="376" y="579"/>
      <point x="413" y="567"/>
      <point x="470" y="543" type="curve"/>
      <point x="516" y="646" type="line"/>
      <point x="450" y="675"/>
      <point x="396" y="690"/>
      <point x="335" y="690" type="curve" smooth="yes"/>
      <point x="174" y="690"/>
      <point x="102" y="604"/>
      <point x="102" y="494" type="curve" smooth="yes"/>
      <point x="102" y="447"/>
      <point x="115" y="411"/>
      <point x="140" y="383" type="curve"/>
      <point x="67" y="348"/>
      <point x="27" y="288"/>
      <point x="27" y="225" type="curve" smooth="yes"/>
      <point x="27" y="156"/>
      <point x="69" y="105"/>
      <point x="148" y="69" type="curve" smooth="yes"/>
      <point x="221" y="36" type="line" smooth="yes"/>
      <point x="259" y="19"/>
      <point x="274" y="-1"/>
      <point x="274" y="-32" type="curve" smooth="yes"/>
      <point x="274" y="-79"/>
      <point x="239" y="-112"/>
      <point x="161" y="-112" type="curve" smooth="yes"/>
      <point x="106" y="-112"/>
      <point x="67" y="-99"/>
      <point x="1" y="-69" type="curve"/>
      <point x="-45" y="-172" type="line"/>
      <point x="28" y="-208"/>
      <point x="88" y="-223"/>
      <point x="157" y="-223" type="curve" smooth="yes"/>
      <point x="331" y="-223"/>
      <point x="400" y="-130"/>
    </contour>
    <contour>
      <point x="222" y="175" type="line" smooth="yes"/>
      <point x="173" y="197"/>
      <point x="153" y="210"/>
      <point x="153" y="244" type="curve" smooth="yes"/>
      <point x="153" y="274"/>
      <point x="173" y="311"/>
      <point x="215" y="332" type="curve"/>
      <point x="283" y="301" type="line" smooth="yes"/>
      <point x="326" y="282"/>
      <point x="345" y="264"/>
      <point x="345" y="233" type="curve" smooth="yes"/>
      <point x="345" y="204"/>
      <point x="323" y="172"/>
      <point x="275" y="151" type="curve"/>
    </contour>
  </outline>
</glyph>
<glyph name="dieresis" format="1">
  <advance width="500"/>
  <unicode hex="00A8"/>
  <outline>
    <contour>
      <point x="270" y="609" type="line"/>
      <point x="289" y="716" type="line"/>
      <point x="180" y="716" type="line"/>
      <point x="161" y="609" type="line"/>
    </contour>
    <contour>
      <point x="464" y="609" type="line"/>
      <point x="483" y="716" type="line"/>
      <point x="374" y="716" type="line"/>
      <point x="355" y="609" type="line"/>
    </contour>
  </outline>
</glyph>
<glyph name="copyright" format="1">
  <advance width="834"/>
  <unicode hex="00A9"/>
  <outline>
    <contour>
      <point x="432" y="-37" type="curve" smooth="yes"/>
      <point x="646" y="-37"/>
      <point x="804" y="122"/>
      <point x="804" y="340" type="curve" smooth="yes"/>
      <point x="804" y="558"/>
      <point x="646" y="717"/>
      <point x="432" y="717" type="curve" smooth="yes"/>
      <point x="217" y="717"/>
      <point x="60" y="558"/>
      <point x="60" y="340" type="curve" smooth="yes"/>
      <point x="60" y="122"/>
      <point x="217" y="-37"/>
    </contour>
    <contour>
      <point x="432" y="33" type="curve" smooth="yes"/>
      <point x="261" y="33"/>
      <point x="136" y="161"/>
      <point x="136" y="340" type="curve" smooth="yes"/>
      <point x="136" y="518"/>
      <point x="261" y="647"/>
      <point x="432" y="647" type="curve" smooth="yes"/>
      <point x="603" y="647"/>
      <point x="728" y="518"/>
      <point x="728" y="340" type="curve" smooth="yes"/>
      <point x="728" y="161"/>
      <point x="603" y="33"/>
    </contour>
    <contour>
      <point x="348" y="361" type="line" smooth="yes"/>
      <point x="348" y="434"/>
      <point x="373" y="472"/>
      <point x="433" y="472" type="curve" smooth="yes"/>
      <point x="465" y="472"/>
      <point x="498" y="462"/>
      <point x="532" y="446" type="curve"/>
      <point x="561" y="525" type="line"/>
      <point x="519" y="547"/>
      <point x="471" y="557"/>
      <point x="428" y="557" type="curve" smooth="yes"/>
      <point x="314" y="557"/>
      <point x="255" y="484"/>
      <point x="255" y="361" type="curve" smooth="yes"/>
      <point x="255" y="320" type="line" smooth="yes"/>
      <point x="255" y="196"/>
      <point x="314" y="123"/>
      <point x="428" y="123" type="curve" smooth="yes"/>
      <point x="475" y="123"/>
      <point x="525" y="135"/>
      <point x="570" y="158" type="curve"/>
      <point x="541" y="237" type="line"/>
      <point x="504" y="219"/>
      <point x="468" y="208"/>
      <point x="433" y="208" type="curve" smooth="yes"/>
      <point x="373" y="208"/>
      <point x="348" y="246"/>
      <point x="348" y="320" type="curve" smooth="yes"/>
    </contour>
  </outline>
</glyph>
<glyph name="ordfeminine" format="1">
  <advance width="353.4716490445701"/>
  <unicode hex="00AA"/>
  <outline>
    <contour>
      <point x="343" y="340" type="curve" smooth="yes"/>
      <point x="355" y="340" type="line"/>
      <point x="369" y="417" type="line"/>
      <point x="361" y="417" type="line" smooth="yes"/>
      <point x="340" y="417"/>
      <point x="335" y="426"/>
      <point x="338" y="445" type="curve" smooth="yes"/>
      <point x="373" y="642" type="line"/>
      <point x="333" y="668"/>
      <point x="285" y="685"/>
      <point x="238" y="685" type="curve" smooth="yes"/>
      <point x="141" y="685"/>
      <point x="90" y="630"/>
      <point x="72" y="527" type="curve" smooth="yes"/>
      <point x="67" y="498" type="line" smooth="yes"/>
      <point x="50" y="402"/>
      <point x="85" y="335"/>
      <point x="149" y="335" type="curve" smooth="yes"/>
      <point x="178" y="335"/>
      <point x="214" y="348"/>
      <point x="262" y="395" type="curve"/>
      <point x="271" y="366"/>
      <point x="295" y="340"/>
    </contour>
    <contour>
      <point x="148" y="498" type="curve" smooth="yes"/>
      <point x="153" y="527" type="line" smooth="yes"/>
      <point x="162" y="577"/>
      <point x="187" y="610"/>
      <point x="236" y="610" type="curve" smooth="yes"/>
      <point x="253" y="610"/>
      <point x="269" y="606"/>
      <point x="286" y="598" type="curve"/>
      <point x="264" y="469" type="line"/>
      <point x="228" y="426"/>
      <point x="200" y="412"/>
      <point x="179" y="412" type="curve" smooth="yes"/>
      <point x="151" y="412"/>
      <point x="138" y="439"/>
    </contour>
  </outline>
</glyph>
<glyph name="guillemotleft" format="1">
  <advance width="711.7828004307335"/>
  <unicode hex="00AB"/>
  <outline>
    <contour>
      <point x="316" y="126" type="line"/>
      <point x="152" y="241" type="line"/>
      <point x="356" y="354" type="line"/>
      <point x="377" y="478" type="line"/>
      <point x="47" y="286" type="line"/>
      <point x="34" y="209" type="line"/>
      <point x="295" y="14" type="line"/>
    </contour>
    <contour>
      <point x="636" y="126" type="line"/>
      <point x="472" y="241" type="line"/>
      <point x="676" y="354" type="line"/>
      <point x="697" y="478" type="line"/>
      <point x="367" y="286" type="line"/>
      <point x="354" y="209" type="line"/>
      <point x="615" y="14" type="line"/>
    </contour>
  </outline>
</glyph>
<glyph name="logicalnot" format="1">
  <advance width="588"/>
  <unicode hex="00AC"/>
  <outline>
    <contour>
      <point x="108" y="375" type="line"/>
      <point x="420" y="375" type="line"/>
      <point x="392" y="218" type="line"/>
      <point x="494" y="218" type="line"/>
      <point x="540" y="475" type="line"/>
      <point x="126" y="475" type="line"/>
    </contour>
  </outline>
</glyph>
<glyph name="registered" format="1">
  <advance width="536.6901741420586"/>
  <unicode hex="00AE"/>
  <outline>
    <contour>
      <point x="308" y="241" type="curve" smooth="yes"/>
      <point x="442" y="241"/>
      <point x="542" y="343"/>
      <point x="542" y="479" type="curve" smooth="yes"/>
      <point x="542" y="616"/>
      <point x="442" y="717"/>
      <point x="308" y="717" type="curve" smooth="yes"/>
      <point x="174" y="717"/>
      <point x="74" y="616"/>
      <point x="74" y="479" type="curve" smooth="yes"/>
      <point x="74" y="343"/>
      <point x="174" y="241"/>
    </contour>
    <contour>
      <point x="308" y="299" type="curve" smooth="yes"/>
      <point x="209" y="299"/>
      <point x="136" y="376"/>
      <point x="136" y="479" type="curve" smooth="yes"/>
      <point x="136" y="583"/>
      <point x="209" y="659"/>
      <point x="308" y="659" type="curve" smooth="yes"/>
      <point x="407" y="659"/>
      <point x="480" y="583"/>
      <point x="480" y="479" type="curve" smooth="yes"/>
      <point x="480" y="376"/>
      <point x="407" y="299"/>
    </contour>
    <contour>
      <point x="219" y="353" type="line"/>
      <point x="280" y="353" type="line"/>
      <point x="280" y="434" type="line"/>
      <point x="306" y="434" type="line"/>
      <point x="321" y="408"/>
      <point x="334" y="381"/>
      <point x="346" y="353" type="curve"/>
      <point x="413" y="353" type="line"/>
      <point x="399" y="386"/>
      <point x="383" y="417"/>
      <point x="364" y="447" type="curve"/>
      <point x="386" y="461"/>
      <point x="398" y="486"/>
      <point x="398" y="517" type="curve" smooth="yes"/>
      <point x="398" y="526" type="line" smooth="yes"/>
      <point x="398" y="575"/>
      <point x="368" y="608"/>
      <point x="314" y="608" type="curve" smooth="yes"/>
      <point x="219" y="608" type="line"/>
    </contour>
    <contour>
      <point x="314" y="550" type="line" smooth="yes"/>
      <point x="327" y="550"/>
      <point x="335" y="540"/>
      <point x="335" y="526" type="curve" smooth="yes"/>
      <point x="335" y="517" type="line" smooth="yes"/>
      <point x="335" y="502"/>
      <point x="327" y="493"/>
      <point x="314" y="493" type="curve" smooth="yes"/>
      <point x="280" y="493" type="line"/>
      <point x="280" y="550" type="line"/>
    </contour>
  </outline>
</glyph>
<glyph name="macron" format="1">
  <advance width="500"/>
  <unicode hex="00AF"/>
  <outline>
    <contour>
      <point x="479" y="692" type="line"/>
      <point x="176" y="692" type="line"/>
      <point x="161" y="609" type="line"/>
      <point x="464" y="609" type="line"/>
    </contour>
  </outline>
</glyph>
<glyph name="degree" format="1">
  <advance width="354.78749860943503"/>
  <unicode hex="00B0"/>
  <outline>
    <contour>
      <point x="210" y="366" type="curve" smooth="yes"/>
      <point x="312" y="366"/>
      <point x="386" y="446"/>
      <point x="386" y="546" type="curve" smooth="yes"/>
      <point x="386" y="634"/>
      <point x="329" y="690"/>
      <point x="241" y="690" type="curve" smooth="yes"/>
      <point x="139" y="690"/>
      <point x="65" y="610"/>
      <point x="65" y="510" type="curve" smooth="yes"/>
      <point x="65" y="422"/>
      <point x="122" y="366"/>
    </contour>
    <contour>
      <point x="238" y="613" type="curve" smooth="yes"/>
      <point x="279" y="613"/>
      <point x="304" y="587"/>
      <point x="304" y="542" type="curve" smooth="yes"/>
      <point x="304" y="486"/>
      <point x="266" y="443"/>
      <point x="213" y="443" type="curve" smooth="yes"/>
      <point x="172" y="443"/>
      <point x="147" y="469"/>
      <point x="147" y="514" type="curve" smooth="yes"/>
      <point x="147" y="570"/>
      <point x="185" y="613"/>
    </contour>
  </outline>
</glyph>
<glyph name="plusminus" format="1">
  <advance width="588"/>
  <unicode hex="00B1"/>
  <outline>
    <contour>
      <point x="508" y="295" type="line"/>
      <point x="526" y="395" type="line"/>
      <point x="370" y="395" type="line"/>
      <point x="396" y="545" type="line"/>
      <point x="294" y="545" type="line"/>
      <point x="268" y="395" type="line"/>
      <point x="112" y="395" type="line"/>
      <point x="94" y="295" type="line"/>
      <point x="250" y="295" type="line"/>
      <point x="224" y="145" type="line"/>
      <point x="326" y="145" type="line"/>
      <point x="352" y="295" type="line"/>
    </contour>
    <contour>
      <point x="42" y="0" type="line"/>
      <point x="456" y="0" type="line"/>
      <point x="474" y="100" type="line"/>
      <point x="60" y="100" type="line"/>
    </contour>
  </outline>
</glyph>
<glyph name="acute" format="1">
  <advance width="500"/>
  <unicode hex="00B4"/>
  <outline>
    <contour>
      <point x="360" y="579" type="line"/>
      <point x="484" y="699" type="line"/>
      <point x="379" y="745" type="line"/>
      <point x="254" y="579" type="line"/>
    </contour>
  </outline>
</glyph>
<glyph name="mu" format="1">
  <advance width="574"/>
  <unicode hex="00B5"/>
  <outline>
    <contour>
      <point x="127" y="-125" type="line"/>
      <point x="127" y="11" type="line"/>
      <point x="141" y="-3"/>
      <point x="162" y="-10"/>
      <point x="189" y="-10" type="curve" smooth="yes"/>
      <point x="233" y="-10"/>
      <point x="289" y="11"/>
      <point x="367" y="94" type="curve"/>
      <point x="371" y="39"/>
      <point x="401" y="-5"/>
      <point x="485" y="-5" type="curve" smooth="yes"/>
      <point x="504" y="-5" type="line"/>
      <point x="523" y="101" type="line"/>
      <point x="511" y="101" type="line" smooth="yes"/>
      <point x="480" y="101"/>
      <point x="473" y="123"/>
      <point x="477" y="143" type="curve" smooth="yes"/>
      <point x="541" y="507" type="line"/>
      <point x="426" y="507" type="line"/>
      <point x="371" y="192" type="line"/>
      <point x="294" y="116"/>
      <point x="252" y="97"/>
      <point x="222" y="97" type="curve" smooth="yes"/>
      <point x="188" y="97"/>
      <point x="172" y="124"/>
      <point x="182" y="181" type="curve" smooth="yes"/>
      <point x="239" y="507" type="line"/>
      <point x="124" y="507" type="line"/>
      <point x="-4" y="-213" type="line"/>
      <point x="111" y="-213" type="line"/>
    </contour>
  </outline>
</glyph>
<glyph name="paragraph" format="1">
  <advance width="572.0976531182438"/>
  <unicode hex="00B6"/>
  <outline>
    <contour>
      <point x="79" y="496" type="curve" smooth="yes"/>
      <point x="70" y="440" type="line" smooth="yes"/>
      <point x="50" y="314"/>
      <point x="118" y="230"/>
      <point x="260" y="230" type="curve" smooth="yes"/>
      <point x="288" y="230" type="line"/>
      <point x="352" y="593" type="line"/>
      <point x="415" y="593" type="line"/>
      <point x="285" y="-143" type="line"/>
      <point x="405" y="-143" type="line"/>
      <point x="535" y="593" type="line"/>
      <point x="619" y="593" type="line"/>
      <point x="635" y="680" type="line"/>
      <point x="313" y="680" type="line" smooth="yes"/>
      <point x="172" y="680"/>
      <point x="97" y="608"/>
    </contour>
  </outline>
</glyph>
<glyph name="periodcentered" format="1">
  <advance width="500"/>
  <unicode hex="00B7"/>
  <outline>
    <contour>
      <point x="323" y="325" type="line"/>
      <point x="344" y="444" type="line"/>
      <point x="223" y="444" type="line"/>
      <point x="202" y="325" type="line"/>
    </contour>
  </outline>
</glyph>
<glyph name="cedilla" format="1">
  <advance width="500"/>
  <unicode hex="00B8"/>
  <outline>
    <contour>
      <point x="299" y="-117" type="curve" smooth="yes"/>
      <point x="299" y="-77"/>
      <point x="269" y="-43"/>
      <point x="216" y="-39" type="curve"/>
      <point x="230" y="0" type="line"/>
      <point x="153" y="0" type="line"/>
      <point x="128" y="-73" type="line"/>
      <point x="147" y="-105" type="line"/>
      <point x="158" y="-103"/>
      <point x="165" y="-102"/>
      <point x="175" y="-102" type="curve" smooth="yes"/>
      <point x="202" y="-102"/>
      <point x="210" y="-112"/>
      <point x="210" y="-123" type="curve" smooth="yes"/>
      <point x="210" y="-135"/>
      <point x="199" y="-150"/>
      <point x="165" y="-150" type="curve" smooth="yes"/>
      <point x="148" y="-150"/>
      <point x="122" y="-146"/>
      <point x="96" y="-139" type="curve"/>
      <point x="79" y="-208" type="line"/>
      <point x="109" y="-217"/>
      <point x="133" y="-223"/>
      <point x="164" y="-223" type="curve" smooth="yes"/>
      <point x="250" y="-223"/>
      <point x="299" y="-175"/>
    </contour>
  </outline>
</glyph>
<glyph name="ordmasculine" format="1">
  <advance width="345.71082173123625"/>
  <unicode hex="00BA"/>
  <outline>
    <contour>
      <point x="370" y="518" type="line" smooth="yes"/>
      <point x="384" y="614"/>
      <point x="331" y="685"/>
      <point x="235" y="685" type="curve" smooth="yes"/>
      <point x="145" y="685"/>
      <point x="85" y="631"/>
      <point x="71" y="536" type="curve" smooth="yes"/>
      <point x="66" y="502" type="line" smooth="yes"/>
      <point x="51" y="405"/>
      <point x="103" y="335"/>
      <point x="202" y="335" type="curve" smooth="yes"/>
      <point x="290" y="335"/>
      <point x="350" y="388"/>
      <point x="365" y="484" type="curve" smooth="yes"/>
    </contour>
    <contour>
      <point x="290" y="521" type="curve" smooth="yes"/>
      <point x="284" y="484" type="line" smooth="yes"/>
      <point x="276" y="434"/>
      <point x="244" y="410"/>
      <point x="205" y="410" type="curve" smooth="yes"/>
      <point x="159" y="410"/>
      <point x="137" y="444"/>
      <point x="146" y="499" type="curve" smooth="yes"/>
      <point x="152" y="536" type="line" smooth="yes"/>
      <point x="160" y="586"/>
      <point x="192" y="610"/>
      <point x="232" y="610" type="curve" smooth="yes"/>
      <point x="279" y="610"/>
      <point x="298" y="575"/>
    </contour>
  </outline>
</glyph>
<glyph name="guillemotright" format="1">
  <advance width="712.6766419740562"/>
  <unicode hex="00BB"/>
  <outline>
    <contour>
      <point x="342" y="206" type="line"/>
      <point x="355" y="283" type="line"/>
      <point x="94" y="478" type="line"/>
      <point x="73" y="366" type="line"/>
      <point x="237" y="251" type="line"/>
      <point x="33" y="138" type="line"/>
      <point x="12" y="14" type="line"/>
    </contour>
    <contour>
      <point x="662" y="206" type="line"/>
      <point x="675" y="283" type="line"/>
      <point x="414" y="478" type="line"/>
      <point x="393" y="366" type="line"/>
      <point x="557" y="251" type="line"/>
      <point x="353" y="138" type="line"/>
      <point x="332" y="14" type="line"/>
    </contour>
  </outline>
</glyph>
<glyph name="questiondown" format="1">
  <advance width="464.1567963570597"/>
  <unicode hex="00BF"/>
  <outline>
    <contour>
      <point x="240" y="507" type="line"/>
      <point x="219" y="388" type="line"/>
      <point x="340" y="388" type="line"/>
      <point x="361" y="507" type="line"/>
    </contour>
    <contour>
      <point x="205" y="-76" type="curve" smooth="yes"/>
      <point x="130" y="-76"/>
      <point x="109" y="-43"/>
      <point x="117" y="3" type="curve" smooth="yes"/>
      <point x="120" y="21" type="line" smooth="yes"/>
      <point x="126" y="53"/>
      <point x="143" y="72"/>
      <point x="186" y="109" type="curve" smooth="yes"/>
      <point x="225" y="143" type="line" smooth="yes"/>
      <point x="297" y="206"/>
      <point x="314" y="237"/>
      <point x="323" y="290" type="curve" smooth="yes"/>
      <point x="326" y="308" type="line"/>
      <point x="206" y="308" type="line"/>
      <point x="204" y="299" type="line" smooth="yes"/>
      <point x="199" y="270"/>
      <point x="190" y="254"/>
      <point x="140" y="210" type="curve" smooth="yes"/>
      <point x="102" y="177" type="line" smooth="yes"/>
      <point x="47" y="129"/>
      <point x="17" y="96"/>
      <point x="5" y="35" type="curve" smooth="yes"/>
      <point x="1" y="15" type="line" smooth="yes"/>
      <point x="-21" y="-93"/>
      <point x="34" y="-183"/>
      <point x="192" y="-183" type="curve" smooth="yes"/>
      <point x="254" y="-183"/>
      <point x="319" y="-170"/>
      <point x="398" y="-137" type="curve"/>
      <point x="369" y="-38" type="line"/>
      <point x="298" y="-65"/>
      <point x="249" y="-76"/>
    </contour>
  </outline>
</glyph>
<glyph name="Aring" format="1">
  <advance width="601"/>
  <unicode hex="00C5"/>
  <outline>
    <contour>
      <point x="164" y="133" type="line"/>
      <point x="397" y="133" type="line"/>
      <point x="416" y="0" type="line"/>
      <point x="536" y="0" type="line"/>
      <point x="436" y="629" type="line"/>
      <point x="470" y="646"/>
      <point x="492" y="678"/>
      <point x="500" y="717" type="curve" smooth="yes"/>
      <point x="503" y="732" type="line" smooth="yes"/>
      <point x="517" y="801"/>
      <point x="472" y="853"/>
      <point x="397" y="853" type="curve" smooth="yes"/>
      <point x="327" y="853"/>
      <point x="280" y="811"/>
      <point x="267" y="748" type="curve" smooth="yes"/>
      <point x="264" y="733" type="line" smooth="yes"/>
      <point x="255" y="689"/>
      <point x="269" y="654"/>
      <point x="298" y="633" type="curve"/>
      <point x="-25" y="0" type="line"/>
      <point x="99" y="0" type="line"/>
    </contour>
    <contour>
      <point x="434" y="741" type="curve" smooth="yes"/>
      <point x="431" y="726" type="line" smooth="yes"/>
      <point x="425" y="698"/>
      <point x="403" y="680"/>
      <point x="373" y="680" type="curve" smooth="yes"/>
      <point x="343" y="680"/>
      <point x="327" y="698"/>
      <point x="333" y="726" type="curve" smooth="yes"/>
      <point x="336" y="741" type="line" smooth="yes"/>
      <point x="342" y="769"/>
      <point x="363" y="787"/>
      <point x="392" y="787" type="curve" smooth="yes"/>
      <point x="423" y="787"/>
      <point x="440" y="769"/>
    </contour>
    <contour>
      <point x="266" y="341" type="line"/>
      <point x="348" y="513" type="line"/>
      <point x="368" y="341" type="line"/>
      <point x="382" y="243" type="line"/>
      <point x="218" y="243" type="line"/>
    </contour>
  </outline>
</glyph>
<glyph name="AE" format="1">
  <advance width="843"/>
  <unicode hex="00C6"/>
  <outline>
    <contour>
      <point x="-44" y="0" type="line"/>
      <point x="92" y="0" type="line"/>
      <point x="178" y="133" type="line"/>
      <point x="379" y="133" type="line"/>
      <point x="356" y="0" type="line"/>
      <point x="750" y="0" type="line"/>
      <point x="770" y="115" type="line"/>
      <point x="496" y="115" type="line"/>
      <point x="527" y="287" type="line"/>
      <point x="761" y="287" type="line"/>
      <point x="781" y="402" type="line"/>
      <point x="547" y="402" type="line"/>
      <point x="576" y="565" type="line"/>
      <point x="840" y="565" type="line"/>
      <point x="860" y="680" type="line"/>
      <point x="406" y="680" type="line"/>
    </contour>
    <contour>
      <point x="250" y="243" type="line"/>
      <point x="454" y="558" type="line"/>
      <point x="399" y="243" type="line"/>
    </contour>
  </outline>
</glyph>
<glyph name="Ccedilla" format="1">
  <advance width="538"/>
  <unicode hex="00C7"/>
  <outline>
    <contour>
      <point x="346" y="-117" type="curve" smooth="yes"/>
      <point x="346" y="-77"/>
      <point x="316" y="-43"/>
      <point x="263" y="-39" type="curve"/>
      <point x="274" y="-10" type="line"/>
      <point x="286" y="-10" type="line" smooth="yes"/>
      <point x="331" y="-10"/>
      <point x="393" y="-2"/>
      <point x="467" y="23" type="curve"/>
      <point x="442" y="128" type="line"/>
      <point x="375" y="108"/>
      <point x="331" y="103"/>
      <point x="298" y="103" type="curve" smooth="yes"/>
      <point x="204" y="103"/>
      <point x="175" y="178"/>
      <point x="192" y="280" type="curve" smooth="yes"/>
      <point x="212" y="402" type="line" smooth="yes"/>
      <point x="229" y="504"/>
      <point x="279" y="577"/>
      <point x="372" y="577" type="curve" smooth="yes"/>
      <point x="415" y="577"/>
      <point x="450" y="567"/>
      <point x="507" y="542" type="curve"/>
      <point x="552" y="648" type="line"/>
      <point x="488" y="679"/>
      <point x="434" y="690"/>
      <point x="380" y="690" type="curve" smooth="yes"/>
      <point x="212" y="690"/>
      <point x="120" y="592"/>
      <point x="89" y="402" type="curve" smooth="yes"/>
      <point x="69" y="280" type="line" smooth="yes"/>
      <point x="47" y="147"/>
      <point x="95" y="39"/>
      <point x="201" y="3" type="curve"/>
      <point x="175" y="-73" type="line"/>
      <point x="194" y="-105" type="line"/>
      <point x="205" y="-103"/>
      <point x="212" y="-102"/>
      <point x="222" y="-102" type="curve" smooth="yes"/>
      <point x="249" y="-102"/>
      <point x="257" y="-112"/>
      <point x="257" y="-123" type="curve" smooth="yes"/>
      <point x="257" y="-135"/>
      <point x="246" y="-150"/>
      <point x="212" y="-150" type="curve" smooth="yes"/>
      <point x="195" y="-150"/>
      <point x="169" y="-146"/>
      <point x="143" y="-139" type="curve"/>
      <point x="126" y="-208" type="line"/>
      <point x="156" y="-217"/>
      <point x="180" y="-223"/>
      <point x="211" y="-223" type="curve" smooth="yes"/>
      <point x="297" y="-223"/>
      <point x="346" y="-175"/>
    </contour>
  </outline>
</glyph>
<glyph name="Eth" format="1">
  <advance width="648"/>
  <unicode hex="00D0"/>
  <outline>
    <contour>
      <point x="46" y="399" type="line"/>
      <point x="27" y="290" type="line"/>
      <point x="109" y="290" type="line"/>
      <point x="58" y="0" type="line"/>
      <point x="299" y="0" type="line" smooth="yes"/>
      <point x="463" y="0"/>
      <point x="556" y="103"/>
      <point x="587" y="279" type="curve" smooth="yes"/>
      <point x="609" y="402" type="line" smooth="yes"/>
      <point x="637" y="561"/>
      <point x="550" y="680"/>
      <point x="388" y="680" type="curve" smooth="yes"/>
      <point x="178" y="680" type="line"/>
      <point x="128" y="399" type="line"/>
    </contour>
    <contour>
      <point x="349" y="290" type="line"/>
      <point x="368" y="399" type="line"/>
      <point x="248" y="399" type="line"/>
      <point x="278" y="565" type="line"/>
      <point x="380" y="565" type="line" smooth="yes"/>
      <point x="472" y="565"/>
      <point x="504" y="500"/>
      <point x="486" y="402" type="curve" smooth="yes"/>
      <point x="464" y="279" type="line" smooth="yes"/>
      <point x="445" y="174"/>
      <point x="395" y="115"/>
      <point x="305" y="115" type="curve" smooth="yes"/>
      <point x="198" y="115" type="line"/>
      <point x="229" y="290" type="line"/>
    </contour>
  </outline>
</glyph>
<glyph name="multiply" format="1">
  <advance width="588"/>
  <unicode hex="00D7"/>
  <outline>
    <contour>
      <point x="412" y="110" type="line"/>
      <point x="490" y="176" type="line"/>
      <point x="375" y="312" type="line"/>
      <point x="539" y="454" type="line"/>
      <point x="477" y="530" type="line"/>
      <point x="312" y="386" type="line"/>
      <point x="198" y="521" type="line"/>
      <point x="119" y="454" type="line"/>
      <point x="234" y="319" type="line"/>
      <point x="70" y="176" type="line"/>
      <point x="132" y="101" type="line"/>
      <point x="297" y="244" type="line"/>
    </contour>
  </outline>
</glyph>
<glyph name="Oslash" format="1">
  <advance width="641"/>
  <unicode hex="00D8"/>
  <outline>
    <contour>
      <point x="291" y="-10" type="curve" smooth="yes"/>
      <point x="455" y="-10"/>
      <point x="546" y="97"/>
      <point x="579" y="279" type="curve" smooth="yes"/>
      <point x="601" y="402" type="line" smooth="yes"/>
      <point x="615" y="477"/>
      <point x="604" y="543"/>
      <point x="572" y="593" type="curve"/>
      <point x="656" y="710" type="line"/>
      <point x="547" y="710" type="line"/>
      <point x="509" y="657" type="line"/>
      <point x="474" y="678"/>
      <point x="430" y="690"/>
      <point x="380" y="690" type="curve" smooth="yes"/>
      <point x="215" y="690"/>
      <point x="123" y="580"/>
      <point x="91" y="402" type="curve" smooth="yes"/>
      <point x="69" y="279" type="line" smooth="yes"/>
      <point x="55" y="202"/>
      <point x="66" y="135"/>
      <point x="98" y="85" type="curve"/>
      <point x="16" y="-30" type="line"/>
      <point x="125" y="-30" type="line"/>
      <point x="162" y="22" type="line"/>
      <point x="197" y="1"/>
      <point x="241" y="-10"/>
    </contour>
    <contour>
      <point x="192" y="279" type="curve" smooth="yes"/>
      <point x="214" y="402" type="line" smooth="yes"/>
      <point x="233" y="510"/>
      <point x="284" y="577"/>
      <point x="372" y="577" type="curve" smooth="yes"/>
      <point x="399" y="577"/>
      <point x="422" y="571"/>
      <point x="439" y="559" type="curve"/>
      <point x="187" y="209" type="line"/>
      <point x="186" y="229"/>
      <point x="187" y="253"/>
    </contour>
    <contour>
      <point x="478" y="402" type="curve" smooth="yes"/>
      <point x="456" y="279" type="line" smooth="yes"/>
      <point x="436" y="167"/>
      <point x="387" y="103"/>
      <point x="297" y="103" type="curve" smooth="yes"/>
      <point x="271" y="103"/>
      <point x="249" y="109"/>
      <point x="232" y="119" type="curve"/>
      <point x="483" y="469" type="line"/>
      <point x="484" y="449"/>
      <point x="482" y="426"/>
    </contour>
  </outline>
</glyph>
<glyph name="Thorn" format="1">
  <advance width="574.7850171492173"/>
  <unicode hex="00DE"/>
  <outline>
    <contour>
      <point x="307" y="118" type="line" smooth="yes"/>
      <point x="448" y="118"/>
      <point x="523" y="190"/>
      <point x="541" y="302" type="curve" smooth="yes"/>
      <point x="550" y="358" type="line" smooth="yes"/>
      <point x="570" y="484"/>
      <point x="502" y="568"/>
      <point x="360" y="568" type="curve" smooth="yes"/>
      <point x="269" y="568" type="line"/>
      <point x="289" y="680" type="line"/>
      <point x="169" y="680" type="line"/>
      <point x="49" y="0" type="line"/>
      <point x="169" y="0" type="line"/>
      <point x="190" y="118" type="line"/>
    </contour>
    <contour>
      <point x="353" y="453" type="line" smooth="yes"/>
      <point x="411" y="453"/>
      <point x="438" y="418"/>
      <point x="428" y="360" type="curve" smooth="yes"/>
      <point x="419" y="307" type="line" smooth="yes"/>
      <point x="411" y="260"/>
      <point x="372" y="233"/>
      <point x="314" y="233" type="curve" smooth="yes"/>
      <point x="210" y="233" type="line"/>
      <point x="249" y="453" type="line"/>
    </contour>
  </outline>
</glyph>
<glyph name="germandbls" format="1">
  <advance width="633.7964578979525"/>
  <unicode hex="00DF"/>
  <outline>
    <contour>
      <point x="588" y="161" type="curve" smooth="yes"/>
      <point x="588" y="210"/>
      <point x="571" y="251"/>
      <point x="533" y="288" type="curve" smooth="yes"/>
      <point x="499" y="321" type="line" smooth="yes"/>
      <point x="469" y="350"/>
      <point x="458" y="368"/>
      <point x="458" y="389" type="curve" smooth="yes"/>
      <point x="458" y="440"/>
      <point x="552" y="503"/>
      <point x="552" y="606" type="curve" smooth="yes"/>
      <point x="552" y="708"/>
      <point x="466" y="750"/>
      <point x="369" y="750" type="curve" smooth="yes"/>
      <point x="236" y="750"/>
      <point x="174" y="678"/>
      <point x="153" y="560" type="curve" smooth="yes"/>
      <point x="144" y="507" type="line"/>
      <point x="61" y="507" type="line"/>
      <point x="44" y="407" type="line"/>
      <point x="126" y="407" type="line"/>
      <point x="54" y="0" type="line"/>
      <point x="169" y="0" type="line"/>
      <point x="268" y="560" type="line" smooth="yes"/>
      <point x="279" y="622"/>
      <point x="313" y="642"/>
      <point x="364" y="642" type="curve" smooth="yes"/>
      <point x="406" y="642"/>
      <point x="436" y="628"/>
      <point x="436" y="592" type="curve" smooth="yes"/>
      <point x="436" y="529"/>
      <point x="342" y="460"/>
      <point x="342" y="367" type="curve" smooth="yes"/>
      <point x="342" y="321"/>
      <point x="365" y="285"/>
      <point x="404" y="248" type="curve" smooth="yes"/>
      <point x="438" y="216" type="line" smooth="yes"/>
      <point x="464" y="192"/>
      <point x="473" y="169"/>
      <point x="473" y="150" type="curve" smooth="yes"/>
      <point x="473" y="120"/>
      <point x="449" y="89"/>
      <point x="398" y="89" type="curve" smooth="yes"/>
      <point x="372" y="89"/>
      <point x="330" y="96"/>
      <point x="281" y="120" type="curve"/>
      <point x="251" y="22" type="line"/>
      <point x="304" y="-3"/>
      <point x="359" y="-10"/>
      <point x="397" y="-10" type="curve" smooth="yes"/>
      <point x="533" y="-10"/>
      <point x="588" y="72"/>
    </contour>
  </outline>
</glyph>
<glyph name="ae" format="1">
  <advance width="798"/>
  <unicode hex="00E6"/>
  <outline>
    <contour>
      <point x="700" y="24" type="curve"/>
      <point x="684" y="122" type="line"/>
      <point x="621" y="100"/>
      <point x="570" y="94"/>
      <point x="541" y="94" type="curve" smooth="yes"/>
      <point x="453" y="94"/>
      <point x="420" y="136"/>
      <point x="430" y="218" type="curve"/>
      <point x="719" y="218" type="line"/>
      <point x="745" y="260"/>
      <point x="758" y="303"/>
      <point x="758" y="346" type="curve" smooth="yes"/>
      <point x="758" y="469"/>
      <point x="659" y="517"/>
      <point x="576" y="517" type="curve" smooth="yes"/>
      <point x="506" y="517"/>
      <point x="450" y="488"/>
      <point x="411" y="436" type="curve"/>
      <point x="390" y="484"/>
      <point x="344" y="517"/>
      <point x="258" y="517" type="curve" smooth="yes"/>
      <point x="215" y="517"/>
      <point x="163" y="509"/>
      <point x="95" y="486" type="curve"/>
      <point x="122" y="388" type="line"/>
      <point x="174" y="405"/>
      <point x="219" y="411"/>
      <point x="249" y="411" type="curve" smooth="yes"/>
      <point x="308" y="411"/>
      <point x="351" y="387"/>
      <point x="339" y="322" type="curve" smooth="yes"/>
      <point x="331" y="279" type="line"/>
      <point x="287" y="286"/>
      <point x="241" y="290"/>
      <point x="203" y="290" type="curve" smooth="yes"/>
      <point x="58" y="290"/>
      <point x="18" y="204"/>
      <point x="18" y="122" type="curve" smooth="yes"/>
      <point x="18" y="41"/>
      <point x="63" y="-10"/>
      <point x="149" y="-10" type="curve" smooth="yes"/>
      <point x="215" y="-10"/>
      <point x="273" y="19"/>
      <point x="339" y="88" type="curve"/>
      <point x="369" y="26"/>
      <point x="434" y="-10"/>
      <point x="530" y="-10" type="curve" smooth="yes"/>
      <point x="574" y="-10"/>
      <point x="627" y="-4"/>
    </contour>
    <contour>
      <point x="566" y="417" type="curve" smooth="yes"/>
      <point x="613" y="417"/>
      <point x="645" y="393"/>
      <point x="645" y="346" type="curve" smooth="yes"/>
      <point x="645" y="333"/>
      <point x="643" y="321"/>
      <point x="638" y="306" type="curve"/>
      <point x="446" y="306" type="line"/>
      <point x="463" y="379"/>
      <point x="504" y="417"/>
    </contour>
    <contour>
      <point x="132" y="134" type="curve" smooth="yes"/>
      <point x="132" y="169"/>
      <point x="149" y="206"/>
      <point x="206" y="206" type="curve" smooth="yes"/>
      <point x="235" y="206"/>
      <point x="277" y="203"/>
      <point x="319" y="196" type="curve"/>
      <point x="319" y="168" type="line"/>
      <point x="254" y="99"/>
      <point x="210" y="86"/>
      <point x="175" y="86" type="curve" smooth="yes"/>
      <point x="146" y="86"/>
      <point x="132" y="103"/>
    </contour>
  </outline>
</glyph>
<glyph name="ccedilla" format="1">
  <advance width="450"/>
  <unicode hex="00E7"/>
  <outline>
    <contour>
      <point x="306" y="-117" type="curve" smooth="yes"/>
      <point x="306" y="-77"/>
      <point x="276" y="-43"/>
      <point x="223" y="-39" type="curve"/>
      <point x="233" y="-10" type="line"/>
      <point x="237" y="-10" type="line" smooth="yes"/>
      <point x="278" y="-10"/>
      <point x="321" y="-2"/>
      <point x="383" y="21" type="curve"/>
      <point x="366" y="120" type="line"/>
      <point x="315" y="102"/>
      <point x="283" y="96"/>
      <point x="251" y="96" type="curve" smooth="yes"/>
      <point x="173" y="96"/>
      <point x="144" y="142"/>
      <point x="161" y="234" type="curve" smooth="yes"/>
      <point x="172" y="294" type="line" smooth="yes"/>
      <point x="186" y="371"/>
      <point x="231" y="411"/>
      <point x="293" y="411" type="curve" smooth="yes"/>
      <point x="324" y="411"/>
      <point x="361" y="402"/>
      <point x="403" y="384" type="curve"/>
      <point x="441" y="483" type="line"/>
      <point x="387" y="506"/>
      <point x="339" y="517"/>
      <point x="292" y="517" type="curve" smooth="yes"/>
      <point x="172" y="517"/>
      <point x="85" y="442"/>
      <point x="59" y="294" type="curve" smooth="yes"/>
      <point x="50" y="242" type="line" smooth="yes"/>
      <point x="28" y="119"/>
      <point x="69" y="31"/>
      <point x="160" y="1" type="curve"/>
      <point x="135" y="-73" type="line"/>
      <point x="154" y="-105" type="line"/>
      <point x="165" y="-103"/>
      <point x="172" y="-102"/>
      <point x="182" y="-102" type="curve" smooth="yes"/>
      <point x="209" y="-102"/>
      <point x="217" y="-112"/>
      <point x="217" y="-123" type="curve" smooth="yes"/>
      <point x="217" y="-135"/>
      <point x="206" y="-150"/>
      <point x="172" y="-150" type="curve" smooth="yes"/>
      <point x="155" y="-150"/>
      <point x="129" y="-146"/>
      <point x="103" y="-139" type="curve"/>
      <point x="86" y="-208" type="line"/>
      <point x="116" y="-217"/>
      <point x="140" y="-223"/>
      <point x="171" y="-223" type="curve" smooth="yes"/>
      <point x="257" y="-223"/>
      <point x="306" y="-175"/>
    </contour>
  </outline>
</glyph>
<glyph name="eth" format="1">
  <advance width="535.9797907842719"/>
  <unicode hex="00F0"/>
  <outline>
    <contour>
      <point x="486" y="244" type="curve" smooth="yes"/>
      <point x="493" y="284" type="line" smooth="yes"/>
      <point x="509" y="377"/>
      <point x="494" y="490"/>
      <point x="424" y="594" type="curve"/>
      <point x="525" y="649" type="line"/>
      <point x="542" y="750" type="line"/>
      <point x="373" y="657" type="line"/>
      <point x="343" y="690"/>
      <point x="305" y="721"/>
      <point x="261" y="750" type="curve"/>
      <point x="202" y="665" type="line"/>
      <point x="231" y="646"/>
      <point x="257" y="626"/>
      <point x="278" y="605" type="curve"/>
      <point x="194" y="559" type="line"/>
      <point x="177" y="458" type="line"/>
      <point x="331" y="543" type="line"/>
      <point x="369" y="485"/>
      <point x="385" y="420"/>
      <point x="383" y="351" type="curve"/>
      <point x="350" y="412"/>
      <point x="293" y="436"/>
      <point x="240" y="436" type="curve" smooth="yes"/>
      <point x="149" y="436"/>
      <point x="64" y="377"/>
      <point x="44" y="256" type="curve" smooth="yes"/>
      <point x="39" y="226" type="line" smooth="yes"/>
      <point x="14" y="78"/>
      <point x="99" y="-10"/>
      <point x="222" y="-10" type="curve" smooth="yes"/>
      <point x="361" y="-10"/>
      <point x="457" y="76"/>
    </contour>
    <contour>
      <point x="153" y="209" type="curve" smooth="yes"/>
      <point x="158" y="239" type="line" smooth="yes"/>
      <point x="168" y="296"/>
      <point x="207" y="329"/>
      <point x="250" y="329" type="curve" smooth="yes"/>
      <point x="294" y="329"/>
      <point x="339" y="299"/>
      <point x="365" y="234" type="curve"/>
      <point x="341" y="136"/>
      <point x="293" y="93"/>
      <point x="233" y="93" type="curve" smooth="yes"/>
      <point x="171" y="93"/>
      <point x="142" y="142"/>
    </contour>
  </outline>
</glyph>
<glyph name="divide" format="1">
  <advance width="588"/>
  <unicode hex="00F7"/>
  <outline>
    <contour>
      <point x="389" y="447" type="line"/>
      <point x="410" y="566" type="line"/>
      <point x="289" y="566" type="line"/>
      <point x="268" y="447" type="line"/>
    </contour>
    <contour>
      <point x="89" y="265" type="line"/>
      <point x="503" y="265" type="line"/>
      <point x="520" y="365" type="line"/>
      <point x="106" y="365" type="line"/>
    </contour>
    <contour>
      <point x="320" y="59" type="line"/>
      <point x="341" y="178" type="line"/>
      <point x="220" y="178" type="line"/>
      <point x="199" y="59" type="line"/>
    </contour>
  </outline>
</glyph>
<glyph name="oslash" format="1">
  <advance width="545"/>
  <unicode hex="00F8"/>
  <outline>
    <contour>
      <point x="247" y="-10" type="curve" smooth="yes"/>
      <point x="378" y="-10"/>
      <point x="466" y="70"/>
      <point x="488" y="214" type="curve" smooth="yes"/>
      <point x="496" y="266" type="line" smooth="yes"/>
      <point x="506" y="333"/>
      <point x="495" y="392"/>
      <point x="466" y="436" type="curve"/>
      <point x="545" y="537" type="line"/>
      <point x="442" y="537" type="line"/>
      <point x="406" y="491" type="line"/>
      <point x="376" y="508"/>
      <point x="339" y="517"/>
      <point x="297" y="517" type="curve" smooth="yes"/>
      <point x="165" y="517"/>
      <point x="79" y="437"/>
      <point x="57" y="294" type="curve" smooth="yes"/>
      <point x="49" y="242" type="line" smooth="yes"/>
      <point x="39" y="174"/>
      <point x="50" y="115"/>
      <point x="79" y="71" type="curve"/>
      <point x="1" y="-30" type="line"/>
      <point x="104" y="-30" type="line"/>
      <point x="139" y="16" type="line"/>
      <point x="169" y="-1"/>
      <point x="205" y="-10"/>
    </contour>
    <contour>
      <point x="166" y="237" type="curve" smooth="yes"/>
      <point x="175" y="294" type="line" smooth="yes"/>
      <point x="188" y="375"/>
      <point x="235" y="414"/>
      <point x="293" y="414" type="curve" smooth="yes"/>
      <point x="311" y="414"/>
      <point x="326" y="410"/>
      <point x="338" y="404" type="curve"/>
      <point x="164" y="179" type="line"/>
      <point x="162" y="197"/>
      <point x="163" y="216"/>
    </contour>
    <contour>
      <point x="379" y="271" type="curve" smooth="yes"/>
      <point x="370" y="214" type="line" smooth="yes"/>
      <point x="357" y="134"/>
      <point x="310" y="93"/>
      <point x="252" y="93" type="curve" smooth="yes"/>
      <point x="235" y="93"/>
      <point x="220" y="97"/>
      <point x="208" y="104" type="curve"/>
      <point x="382" y="327" type="line"/>
      <point x="383" y="310"/>
      <point x="382" y="291"/>
    </contour>
  </outline>
</glyph>
<glyph name="thorn" format="1">
  <advance width="564.0875043147599"/>
  <unicode hex="00FE"/>
  <outline>
    <contour>
      <point x="264" y="-10" type="curve" smooth="yes"/>
      <point x="404" y="-10"/>
      <point x="481" y="73"/>
      <point x="505" y="227" type="curve" smooth="yes"/>
      <point x="512" y="271" type="line" smooth="yes"/>
      <point x="536" y="416"/>
      <point x="485" y="517"/>
      <point x="386" y="517" type="curve" smooth="yes"/>
      <point x="345" y="517"/>
      <point x="294" y="501"/>
      <point x="224" y="430" type="curve"/>
      <point x="279" y="740" type="line"/>
      <point x="164" y="740" type="line"/>
      <point x="-4" y="-213" type="line"/>
      <point x="111" y="-213" type="line"/>
      <point x="151" y="14" type="line"/>
      <point x="186" y="-1"/>
      <point x="223" y="-10"/>
    </contour>
    <contour>
      <point x="344" y="410" type="curve" smooth="yes"/>
      <point x="390" y="410"/>
      <point x="410" y="367"/>
      <point x="394" y="271" type="curve" smooth="yes"/>
      <point x="387" y="227" type="line" smooth="yes"/>
      <point x="373" y="145"/>
      <point x="332" y="93"/>
      <point x="254" y="93" type="curve" smooth="yes"/>
      <point x="227" y="93"/>
      <point x="200" y="99"/>
      <point x="169" y="115" type="curve"/>
      <point x="201" y="300" type="line"/>
      <point x="265" y="380"/>
      <point x="309" y="410"/>
    </contour>
  </outline>
</glyph>
<glyph name="Aogonek" format="1">
  <advance width="601"/>
  <unicode hex="0104"/>
  <outline>
    <contour>
      <point x="509" y="-207" type="curve"/>
      <point x="498" y="-124" type="line"/>
      <point x="479" y="-130"/>
      <point x="464" y="-133"/>
      <point x="450" y="-133" type="curve" smooth="yes"/>
      <point x="434" y="-133"/>
      <point x="424" y="-127"/>
      <point x="424" y="-114" type="curve" smooth="yes"/>
      <point x="424" y="-91"/>
      <point x="442" y="-68"/>
      <point x="536" y="0" type="curve"/>
      <point x="428" y="680" type="line"/>
      <point x="322" y="680" type="line"/>
      <point x="-25" y="0" type="line"/>
      <point x="99" y="0" type="line"/>
      <point x="164" y="133" type="line"/>
      <point x="398" y="133" type="line"/>
      <point x="416" y="-1" type="line"/>
      <point x="335" y="-63"/>
      <point x="318" y="-105"/>
      <point x="318" y="-141" type="curve" smooth="yes"/>
      <point x="318" y="-195"/>
      <point x="358" y="-223"/>
      <point x="422" y="-223" type="curve" smooth="yes"/>
      <point x="451" y="-223"/>
      <point x="479" y="-218"/>
    </contour>
    <contour>
      <point x="266" y="341" type="line"/>
      <point x="348" y="513" type="line"/>
      <point x="368" y="341" type="line"/>
      <point x="382" y="243" type="line"/>
      <point x="218" y="243" type="line"/>
    </contour>
  </outline>
</glyph>
<glyph name="aogonek" format="1">
  <advance width="558"/>
  <unicode hex="0105"/>
  <outline>
    <contour>
      <point x="458" y="-207" type="curve"/>
      <point x="447" y="-124" type="line"/>
      <point x="428" y="-130"/>
      <point x="413" y="-133"/>
      <point x="399" y="-133" type="curve" smooth="yes"/>
      <point x="383" y="-133"/>
      <point x="373" y="-127"/>
      <point x="373" y="-114" type="curve" smooth="yes"/>
      <point x="373" y="-92"/>
      <point x="392" y="-72"/>
      <point x="484" y="-5" type="curve"/>
      <point x="503" y="101" type="line"/>
      <point x="491" y="101" type="line" smooth="yes"/>
      <point x="460" y="101"/>
      <point x="454" y="123"/>
      <point x="457" y="143" type="curve" smooth="yes"/>
      <point x="511" y="452" type="line"/>
      <point x="448" y="493"/>
      <point x="372" y="517"/>
      <point x="295" y="517" type="curve" smooth="yes"/>
      <point x="158" y="517"/>
      <point x="83" y="434"/>
      <point x="58" y="280" type="curve" smooth="yes"/>
      <point x="51" y="236" type="line" smooth="yes"/>
      <point x="28" y="91"/>
      <point x="79" y="-10"/>
      <point x="176" y="-10" type="curve" smooth="yes"/>
      <point x="220" y="-10"/>
      <point x="277" y="7"/>
      <point x="349" y="76" type="curve"/>
      <point x="355" y="50"/>
      <point x="367" y="27"/>
      <point x="391" y="13" type="curve"/>
      <point x="288" y="-58"/>
      <point x="267" y="-103"/>
      <point x="267" y="-141" type="curve" smooth="yes"/>
      <point x="267" y="-195"/>
      <point x="307" y="-223"/>
      <point x="371" y="-223" type="curve" smooth="yes"/>
      <point x="400" y="-223"/>
      <point x="428" y="-218"/>
    </contour>
    <contour>
      <point x="169" y="236" type="curve" smooth="yes"/>
      <point x="176" y="280" type="line" smooth="yes"/>
      <point x="189" y="362"/>
      <point x="230" y="414"/>
      <point x="305" y="414" type="curve" smooth="yes"/>
      <point x="332" y="414"/>
      <point x="357" y="408"/>
      <point x="386" y="394" type="curve"/>
      <point x="351" y="192" type="line"/>
      <point x="294" y="120"/>
      <point x="249" y="97"/>
      <point x="215" y="97" type="curve" smooth="yes"/>
      <point x="173" y="97"/>
      <point x="154" y="140"/>
    </contour>
  </outline>
</glyph>
<glyph name="dcroat" format="1">
  <advance width="560"/>
  <unicode hex="0111"/>
  <outline>
    <contour>
      <point x="331" y="0" type="line"/>
      <point x="440" y="0" type="line"/>
      <point x="544" y="590" type="line"/>
      <point x="622" y="590" type="line"/>
      <point x="635" y="665" type="line"/>
      <point x="557" y="665" type="line"/>
      <point x="570" y="740" type="line"/>
      <point x="455" y="740" type="line"/>
      <point x="442" y="665" type="line"/>
      <point x="289" y="665" type="line"/>
      <point x="276" y="590" type="line"/>
      <point x="429" y="590" type="line"/>
      <point x="412" y="493" type="line"/>
      <point x="376" y="508"/>
      <point x="340" y="517"/>
      <point x="299" y="517" type="curve" smooth="yes"/>
      <point x="159" y="517"/>
      <point x="82" y="434"/>
      <point x="58" y="280" type="curve" smooth="yes"/>
      <point x="51" y="236" type="line" smooth="yes"/>
      <point x="27" y="91"/>
      <point x="78" y="-10"/>
      <point x="177" y="-10" type="curve" smooth="yes"/>
      <point x="220" y="-10"/>
      <point x="273" y="7"/>
      <point x="346" y="85" type="curve"/>
    </contour>
    <contour>
      <point x="169" y="236" type="curve" smooth="yes"/>
      <point x="176" y="280" type="line" smooth="yes"/>
      <point x="190" y="362"/>
      <point x="231" y="414"/>
      <point x="309" y="414" type="curve" smooth="yes"/>
      <point x="336" y="414"/>
      <point x="363" y="408"/>
      <point x="394" y="392" type="curve"/>
      <point x="362" y="207" type="line"/>
      <point x="298" y="127"/>
      <point x="254" y="97"/>
      <point x="219" y="97" type="curve" smooth="yes"/>
      <point x="173" y="97"/>
      <point x="153" y="140"/>
    </contour>
  </outline>
</glyph>
<glyph name="Eogonek" format="1">
  <advance width="536"/>
  <unicode hex="0118"/>
  <outline>
    <contour>
      <point x="416" y="-207" type="curve"/>
      <point x="405" y="-124" type="line"/>
      <point x="386" y="-130"/>
      <point x="371" y="-133"/>
      <point x="357" y="-133" type="curve" smooth="yes"/>
      <point x="341" y="-133"/>
      <point x="331" y="-127"/>
      <point x="331" y="-114" type="curve" smooth="yes"/>
      <point x="331" y="-91"/>
      <point x="349" y="-68"/>
      <point x="443" y="0" type="curve"/>
      <point x="463" y="115" type="line"/>
      <point x="189" y="115" type="line"/>
      <point x="220" y="287" type="line"/>
      <point x="454" y="287" type="line"/>
      <point x="474" y="402" type="line"/>
      <point x="240" y="402" type="line"/>
      <point x="269" y="565" type="line"/>
      <point x="533" y="565" type="line"/>
      <point x="553" y="680" type="line"/>
      <point x="169" y="680" type="line"/>
      <point x="49" y="0" type="line"/>
      <point x="332" y="0" type="line"/>
      <point x="245" y="-64"/>
      <point x="225" y="-105"/>
      <point x="225" y="-141" type="curve" smooth="yes"/>
      <point x="225" y="-195"/>
      <point x="265" y="-223"/>
      <point x="329" y="-223" type="curve" smooth="yes"/>
      <point x="358" y="-223"/>
      <point x="386" y="-218"/>
    </contour>
  </outline>
</glyph>
<glyph name="Hbar" format="1">
  <advance width="700"/>
  <unicode hex="0126"/>
  <outline>
    <contour>
      <point x="229" y="287" type="line"/>
      <point x="483" y="287" type="line"/>
      <point x="432" y="0" type="line"/>
      <point x="552" y="0" type="line"/>
      <point x="640" y="501" type="line"/>
      <point x="722" y="501" type="line"/>
      <point x="738" y="588" type="line"/>
      <point x="656" y="588" type="line"/>
      <point x="672" y="680" type="line"/>
      <point x="552" y="680" type="line"/>
      <point x="536" y="588" type="line"/>
      <point x="282" y="588" type="line"/>
      <point x="298" y="680" type="line"/>
      <point x="178" y="680" type="line"/>
      <point x="162" y="588" type="line"/>
      <point x="80" y="588" type="line"/>
      <point x="64" y="501" type="line"/>
      <point x="146" y="501" type="line"/>
      <point x="58" y="0" type="line"/>
      <point x="178" y="0" type="line"/>
    </contour>
    <contour>
      <point x="249" y="402" type="line"/>
      <point x="266" y="501" type="line"/>
      <point x="520" y="501" type="line"/>
      <point x="503" y="402" type="line"/>
    </contour>
  </outline>
</glyph>
<glyph name="hbar" format="1">
  <advance width="584"/>
  <unicode hex="0127"/>
  <outline>
    <contour>
      <point x="204" y="314" type="line"/>
      <point x="283" y="393"/>
      <point x="329" y="410"/>
      <point x="361" y="410" type="curve" smooth="yes"/>
      <point x="401" y="410"/>
      <point x="419" y="383"/>
      <point x="408" y="326" type="curve" smooth="yes"/>
      <point x="351" y="0" type="line"/>
      <point x="466" y="0" type="line"/>
      <point x="524" y="328" type="line" smooth="yes"/>
      <point x="543" y="436"/>
      <point x="501" y="517"/>
      <point x="400" y="517" type="curve" smooth="yes"/>
      <point x="353" y="517"/>
      <point x="297" y="499"/>
      <point x="224" y="428" type="curve"/>
      <point x="253" y="590" type="line"/>
      <point x="402" y="590" type="line"/>
      <point x="415" y="665" type="line"/>
      <point x="266" y="665" type="line"/>
      <point x="279" y="740" type="line"/>
      <point x="164" y="740" type="line"/>
      <point x="151" y="665" type="line"/>
      <point x="69" y="665" type="line"/>
      <point x="56" y="590" type="line"/>
      <point x="138" y="590" type="line"/>
      <point x="34" y="0" type="line"/>
      <point x="149" y="0" type="line"/>
    </contour>
  </outline>
</glyph>
<glyph name="Iogonek" format="1">
  <advance width="308"/>
  <unicode hex="012E"/>
  <outline>
    <contour>
      <point x="158" y="-207" type="curve"/>
      <point x="147" y="-124" type="line"/>
      <point x="128" y="-130"/>
      <point x="113" y="-133"/>
      <point x="99" y="-133" type="curve" smooth="yes"/>
      <point x="83" y="-133"/>
      <point x="73" y="-127"/>
      <point x="73" y="-114" type="curve" smooth="yes"/>
      <point x="73" y="-91"/>
      <point x="91" y="-64"/>
      <point x="169" y="0" type="curve"/>
      <point x="289" y="680" type="line"/>
      <point x="169" y="680" type="line"/>
      <point x="48" y="-8" type="line"/>
      <point x="-17" y="-64"/>
      <point x="-33" y="-107"/>
      <point x="-33" y="-141" type="curve" smooth="yes"/>
      <point x="-33" y="-195"/>
      <point x="7" y="-223"/>
      <point x="71" y="-223" type="curve" smooth="yes"/>
      <point x="100" y="-223"/>
      <point x="128" y="-218"/>
    </contour>
  </outline>
</glyph>
<glyph name="iogonek" format="1">
  <advance width="273"/>
  <unicode hex="012F"/>
  <outline>
    <contour>
      <point x="256" y="606" type="line"/>
      <point x="276" y="719" type="line"/>
      <point x="161" y="719" type="line"/>
      <point x="141" y="606" type="line"/>
    </contour>
    <contour>
      <point x="138" y="-207" type="curve"/>
      <point x="127" y="-124" type="line"/>
      <point x="108" y="-130"/>
      <point x="93" y="-133"/>
      <point x="79" y="-133" type="curve" smooth="yes"/>
      <point x="63" y="-133"/>
      <point x="53" y="-127"/>
      <point x="53" y="-114" type="curve" smooth="yes"/>
      <point x="53" y="-91"/>
      <point x="71" y="-64"/>
      <point x="149" y="0" type="curve"/>
      <point x="238" y="507" type="line"/>
      <point x="123" y="507" type="line"/>
      <point x="34" y="-3" type="line"/>
      <point x="-36" y="-62"/>
      <point x="-53" y="-106"/>
      <point x="-53" y="-141" type="curve" smooth="yes"/>
      <point x="-53" y="-195"/>
      <point x="-13" y="-223"/>
      <point x="51" y="-223" type="curve" smooth="yes"/>
      <point x="80" y="-223"/>
      <point x="108" y="-218"/>
    </contour>
  </outline>
</glyph>
<glyph name="dotlessi" format="1">
  <advance width="273"/>
  <unicode hex="0131"/>
  <outline>
    <contour>
      <point x="149" y="0" type="line"/>
      <point x="238" y="507" type="line"/>
      <point x="123" y="507" type="line"/>
      <point x="34" y="0" type="line"/>
    </contour>
  </outline>
</glyph>
<glyph name="Lslash" format="1">
  <advance width="517"/>
  <unicode hex="0141"/>
  <outline>
    <contour>
      <point x="471" y="115" type="line"/>
      <point x="199" y="115" type="line"/>
      <point x="234" y="313" type="line"/>
      <point x="365" y="368" type="line"/>
      <point x="385" y="492" type="line"/>
      <point x="256" y="438" type="line"/>
      <point x="299" y="680" type="line"/>
      <point x="179" y="680" type="line"/>
      <point x="127" y="384" type="line"/>
      <point x="37" y="346" type="line"/>
      <point x="17" y="222" type="line"/>
      <point x="105" y="259" type="line"/>
      <point x="59" y="0" type="line"/>
      <point x="451" y="0" type="line"/>
    </contour>
  </outline>
</glyph>
<glyph name="lslash" format="1">
  <advance width="329"/>
  <unicode hex="0142"/>
  <outline>
    <contour>
      <point x="246" y="101" type="line"/>
      <point x="234" y="101" type="line" smooth="yes"/>
      <point x="203" y="101"/>
      <point x="197" y="123"/>
      <point x="200" y="143" type="curve" smooth="yes"/>
      <point x="237" y="352" type="line"/>
      <point x="329" y="396" type="line"/>
      <point x="349" y="509" type="line"/>
      <point x="257" y="465" type="line"/>
      <point x="305" y="740" type="line"/>
      <point x="190" y="740" type="line"/>
      <point x="131" y="405" type="line"/>
      <point x="42" y="363" type="line"/>
      <point x="22" y="250" type="line"/>
      <point x="111" y="293" type="line"/>
      <point x="86" y="148" type="line" smooth="yes"/>
      <point x="73" y="73"/>
      <point x="91" y="-5"/>
      <point x="208" y="-5" type="curve" smooth="yes"/>
      <point x="227" y="-5" type="line"/>
    </contour>
  </outline>
</glyph>
<glyph name="Eng" format="1">
  <advance width="683"/>
  <unicode hex="014A"/>
  <outline>
    <contour>
      <point x="49" y="0" type="line"/>
      <point x="164" y="0" type="line"/>
      <point x="210" y="260" type="line"/>
      <point x="244" y="501" type="line"/>
      <point x="313" y="351"/>
      <point x="372" y="199"/>
      <point x="427" y="22" type="curve"/>
      <point x="407" y="-82"/>
      <point x="364" y="-108"/>
      <point x="251" y="-108" type="curve"/>
      <point x="230" y="-223" type="line"/>
      <point x="457" y="-223"/>
      <point x="518" y="-146"/>
      <point x="549" y="31" type="curve" smooth="yes"/>
      <point x="664" y="680" type="line"/>
      <point x="549" y="680" type="line"/>
      <point x="503" y="420" type="line"/>
      <point x="477" y="209" type="line"/>
      <point x="420" y="376"/>
      <point x="365" y="506"/>
      <point x="279" y="680" type="curve"/>
      <point x="169" y="680" type="line"/>
    </contour>
  </outline>
</glyph>
<glyph name="eng" format="1">
  <advance width="584"/>
  <unicode hex="014B"/>
  <outline>
    <contour>
      <point x="465" y="-4" type="curve" smooth="yes"/>
      <point x="524" y="328" type="line" smooth="yes"/>
      <point x="544" y="436"/>
      <point x="501" y="517"/>
      <point x="400" y="517" type="curve" smooth="yes"/>
      <point x="351" y="517"/>
      <point x="293" y="498"/>
      <point x="217" y="421" type="curve"/>
      <point x="232" y="507" type="line"/>
      <point x="123" y="507" type="line"/>
      <point x="34" y="0" type="line"/>
      <point x="149" y="0" type="line"/>
      <point x="204" y="314" type="line"/>
      <point x="283" y="393"/>
      <point x="329" y="410"/>
      <point x="361" y="410" type="curve" smooth="yes"/>
      <point x="401" y="410"/>
      <point x="418" y="383"/>
      <point x="408" y="326" type="curve" smooth="yes"/>
      <point x="350" y="-4" type="line" smooth="yes"/>
      <point x="335" y="-89"/>
      <point x="293" y="-115"/>
      <point x="227" y="-115" type="curve"/>
      <point x="208" y="-223" type="line"/>
      <point x="393" y="-223"/>
      <point x="441" y="-140"/>
    </contour>
  </outline>
</glyph>
<glyph name="OE" format="1">
  <advance width="867"/>
  <unicode hex="0152"/>
  <outline>
    <contour>
      <point x="91" y="401" type="curve" smooth="yes"/>
      <point x="69" y="278" type="line" smooth="yes"/>
      <point x="41" y="119"/>
      <point x="128" y="0"/>
      <point x="290" y="0" type="curve" smooth="yes"/>
      <point x="774" y="0" type="line"/>
      <point x="794" y="115" type="line"/>
      <point x="520" y="115" type="line"/>
      <point x="551" y="287" type="line"/>
      <point x="785" y="287" type="line"/>
      <point x="805" y="402" type="line"/>
      <point x="571" y="402" type="line"/>
      <point x="600" y="565" type="line"/>
      <point x="864" y="565" type="line"/>
      <point x="884" y="680" type="line"/>
      <point x="379" y="680" type="line" smooth="yes"/>
      <point x="215" y="680"/>
      <point x="122" y="577"/>
    </contour>
    <contour>
      <point x="298" y="115" type="line" smooth="yes"/>
      <point x="206" y="115"/>
      <point x="174" y="180"/>
      <point x="192" y="278" type="curve" smooth="yes"/>
      <point x="214" y="401" type="line" smooth="yes"/>
      <point x="233" y="506"/>
      <point x="283" y="565"/>
      <point x="373" y="565" type="curve" smooth="yes"/>
      <point x="480" y="565" type="line"/>
      <point x="400" y="115" type="line"/>
    </contour>
  </outline>
</glyph>
<glyph name="oe" format="1">
  <advance width="848"/>
  <unicode hex="0153"/>
  <outline>
    <contour>
      <point x="750" y="24" type="curve"/>
      <point x="734" y="122" type="line"/>
      <point x="671" y="100"/>
      <point x="620" y="94"/>
      <point x="591" y="94" type="curve" smooth="yes"/>
      <point x="503" y="94"/>
      <point x="470" y="136"/>
      <point x="480" y="218" type="curve"/>
      <point x="769" y="218" type="line"/>
      <point x="795" y="260"/>
      <point x="808" y="303"/>
      <point x="808" y="346" type="curve" smooth="yes"/>
      <point x="808" y="469"/>
      <point x="709" y="517"/>
      <point x="625" y="517" type="curve" smooth="yes"/>
      <point x="552" y="517"/>
      <point x="494" y="484"/>
      <point x="454" y="428" type="curve"/>
      <point x="424" y="483"/>
      <point x="368" y="517"/>
      <point x="292" y="517" type="curve" smooth="yes"/>
      <point x="165" y="517"/>
      <point x="79" y="437"/>
      <point x="57" y="294" type="curve" smooth="yes"/>
      <point x="49" y="242" type="line" smooth="yes"/>
      <point x="27" y="96"/>
      <point x="104" y="-10"/>
      <point x="244" y="-10" type="curve" smooth="yes"/>
      <point x="318" y="-10"/>
      <point x="375" y="19"/>
      <point x="415" y="73" type="curve"/>
      <point x="446" y="20"/>
      <point x="503" y="-10"/>
      <point x="585" y="-10" type="curve" smooth="yes"/>
      <point x="624" y="-10"/>
      <point x="677" y="-4"/>
    </contour>
    <contour>
      <point x="616" y="417" type="curve" smooth="yes"/>
      <point x="663" y="417"/>
      <point x="695" y="393"/>
      <point x="695" y="346" type="curve" smooth="yes"/>
      <point x="695" y="333"/>
      <point x="693" y="321"/>
      <point x="688" y="306" type="curve"/>
      <point x="496" y="306" type="line"/>
      <point x="513" y="379"/>
      <point x="554" y="417"/>
    </contour>
    <contour>
      <point x="379" y="271" type="curve" smooth="yes"/>
      <point x="370" y="214" type="line" smooth="yes"/>
      <point x="357" y="134"/>
      <point x="310" y="93"/>
      <point x="252" y="93" type="curve" smooth="yes"/>
      <point x="185" y="93"/>
      <point x="152" y="150"/>
      <point x="166" y="237" type="curve" smooth="yes"/>
      <point x="175" y="294" type="line" smooth="yes"/>
      <point x="188" y="375"/>
      <point x="235" y="414"/>
      <point x="293" y="414" type="curve" smooth="yes"/>
      <point x="362" y="414"/>
      <point x="393" y="358"/>
    </contour>
  </outline>
</glyph>
<glyph name="Scedilla" format="1">
  <advance width="518"/>
  <unicode hex="015E"/>
  <outline>
    <contour>
      <point x="303" y="-117" type="curve" smooth="yes"/>
      <point x="303" y="-77"/>
      <point x="273" y="-43"/>
      <point x="220" y="-39" type="curve"/>
      <point x="231" y="-10" type="line"/>
      <point x="400" y="-3"/>
      <point x="467" y="93"/>
      <point x="467" y="204" type="curve" smooth="yes"/>
      <point x="467" y="295"/>
      <point x="423" y="347"/>
      <point x="348" y="381" type="curve" smooth="yes"/>
      <point x="275" y="414" type="line" smooth="yes"/>
      <point x="227" y="436"/>
      <point x="209" y="456"/>
      <point x="209" y="492" type="curve" smooth="yes"/>
      <point x="209" y="549"/>
      <point x="248" y="579"/>
      <point x="322" y="579" type="curve" smooth="yes"/>
      <point x="367" y="579"/>
      <point x="404" y="567"/>
      <point x="461" y="543" type="curve"/>
      <point x="503" y="646" type="line"/>
      <point x="437" y="675"/>
      <point x="383" y="690"/>
      <point x="322" y="690" type="curve" smooth="yes"/>
      <point x="157" y="690"/>
      <point x="83" y="599"/>
      <point x="83" y="481" type="curve" smooth="yes"/>
      <point x="83" y="395"/>
      <point x="123" y="343"/>
      <point x="201" y="308" type="curve" smooth="yes"/>
      <point x="274" y="275" type="line" smooth="yes"/>
      <point x="321" y="254"/>
      <point x="341" y="231"/>
      <point x="341" y="194" type="curve" smooth="yes"/>
      <point x="341" y="139"/>
      <point x="301" y="101"/>
      <point x="211" y="101" type="curve" smooth="yes"/>
      <point x="156" y="101"/>
      <point x="113" y="112"/>
      <point x="44" y="144" type="curve"/>
      <point x="2" y="41" type="line"/>
      <point x="57" y="14"/>
      <point x="106" y="-1"/>
      <point x="155" y="-7" type="curve"/>
      <point x="132" y="-73" type="line"/>
      <point x="151" y="-105" type="line"/>
      <point x="162" y="-103"/>
      <point x="169" y="-102"/>
      <point x="179" y="-102" type="curve" smooth="yes"/>
      <point x="206" y="-102"/>
      <point x="214" y="-112"/>
      <point x="214" y="-123" type="curve" smooth="yes"/>
      <point x="214" y="-135"/>
      <point x="203" y="-150"/>
      <point x="169" y="-150" type="curve" smooth="yes"/>
      <point x="152" y="-150"/>
      <point x="126" y="-146"/>
      <point x="100" y="-139" type="curve"/>
      <point x="83" y="-208" type="line"/>
      <point x="113" y="-217"/>
      <point x="137" y="-223"/>
      <point x="168" y="-223" type="curve" smooth="yes"/>
      <point x="254" y="-223"/>
      <point x="303" y="-175"/>
    </contour>
  </outline>
</glyph>
<glyph name="scedilla" format="1">
  <advance width="460.9442886908603"/>
  <unicode hex="015F"/>
  <outline>
    <contour>
      <point x="285" y="-117" type="curve" smooth="yes"/>
      <point x="285" y="-77"/>
      <point x="255" y="-43"/>
      <point x="202" y="-39" type="curve"/>
      <point x="213" y="-10" type="line"/>
      <point x="343" y="-4"/>
      <point x="401" y="64"/>
      <point x="401" y="153" type="curve" smooth="yes"/>
      <point x="401" y="224"/>
      <point x="365" y="272"/>
      <point x="286" y="299" type="curve" smooth="yes"/>
      <point x="231" y="318" type="line" smooth="yes"/>
      <point x="197" y="330"/>
      <point x="180" y="344"/>
      <point x="180" y="369" type="curve" smooth="yes"/>
      <point x="180" y="394"/>
      <point x="195" y="416"/>
      <point x="254" y="416" type="curve" smooth="yes"/>
      <point x="293" y="416"/>
      <point x="335" y="406"/>
      <point x="385" y="383" type="curve"/>
      <point x="422" y="481" type="line"/>
      <point x="365" y="505"/>
      <point x="313" y="517"/>
      <point x="257" y="517" type="curve" smooth="yes"/>
      <point x="126" y="517"/>
      <point x="65" y="451"/>
      <point x="65" y="360" type="curve" smooth="yes"/>
      <point x="65" y="290"/>
      <point x="99" y="242"/>
      <point x="173" y="216" type="curve" smooth="yes"/>
      <point x="228" y="197" type="line" smooth="yes"/>
      <point x="270" y="183"/>
      <point x="287" y="167"/>
      <point x="287" y="141" type="curve" smooth="yes"/>
      <point x="287" y="106"/>
      <point x="256" y="91"/>
      <point x="201" y="91" type="curve" smooth="yes"/>
      <point x="154" y="91"/>
      <point x="107" y="102"/>
      <point x="50" y="128" type="curve"/>
      <point x="14" y="30" type="line"/>
      <point x="57" y="11"/>
      <point x="97" y="-1"/>
      <point x="137" y="-6" type="curve"/>
      <point x="114" y="-73" type="line"/>
      <point x="133" y="-105" type="line"/>
      <point x="144" y="-103"/>
      <point x="151" y="-102"/>
      <point x="161" y="-102" type="curve" smooth="yes"/>
      <point x="188" y="-102"/>
      <point x="196" y="-112"/>
      <point x="196" y="-123" type="curve" smooth="yes"/>
      <point x="196" y="-135"/>
      <point x="185" y="-150"/>
      <point x="151" y="-150" type="curve" smooth="yes"/>
      <point x="134" y="-150"/>
      <point x="108" y="-146"/>
      <point x="82" y="-139" type="curve"/>
      <point x="65" y="-208" type="line"/>
      <point x="95" y="-217"/>
      <point x="119" y="-223"/>
      <point x="150" y="-223" type="curve" smooth="yes"/>
      <point x="236" y="-223"/>
      <point x="285" y="-175"/>
    </contour>
  </outline>
</glyph>
<glyph name="Tbar" format="1">
  <advance width="526"/>
  <unicode hex="0166"/>
  <outline>
    <contour>
      <point x="437" y="268" type="line"/>
      <point x="456" y="377" type="line"/>
      <point x="345" y="377" type="line"/>
      <point x="378" y="565" type="line"/>
      <point x="568" y="565" type="line"/>
      <point x="588" y="680" type="line"/>
      <point x="88" y="680" type="line"/>
      <point x="68" y="565" type="line"/>
      <point x="258" y="565" type="line"/>
      <point x="225" y="377" type="line"/>
      <point x="112" y="377" type="line"/>
      <point x="93" y="268" type="line"/>
      <point x="205" y="268" type="line"/>
      <point x="158" y="0" type="line"/>
      <point x="278" y="0" type="line"/>
      <point x="325" y="268" type="line"/>
    </contour>
  </outline>
</glyph>
<glyph name="tbar" format="1">
  <advance width="420"/>
  <unicode hex="0167"/>
  <outline>
    <contour>
      <point x="362" y="11" type="curve"/>
      <point x="345" y="112" type="line"/>
      <point x="314" y="101"/>
      <point x="286" y="98"/>
      <point x="266" y="98" type="curve" smooth="yes"/>
      <point x="223" y="98"/>
      <point x="205" y="116"/>
      <point x="214" y="169" type="curve" smooth="yes"/>
      <point x="224" y="227" type="line"/>
      <point x="343" y="227" type="line"/>
      <point x="356" y="302" type="line"/>
      <point x="237" y="302" type="line"/>
      <point x="256" y="407" type="line"/>
      <point x="414" y="407" type="line"/>
      <point x="431" y="507" type="line"/>
      <point x="274" y="507" type="line"/>
      <point x="297" y="639" type="line"/>
      <point x="182" y="639" type="line"/>
      <point x="159" y="507" type="line"/>
      <point x="76" y="507" type="line"/>
      <point x="59" y="407" type="line"/>
      <point x="141" y="407" type="line"/>
      <point x="122" y="302" type="line"/>
      <point x="40" y="302" type="line"/>
      <point x="27" y="227" type="line"/>
      <point x="109" y="227" type="line"/>
      <point x="99" y="169" type="line" smooth="yes"/>
      <point x="82" y="75"/>
      <point x="114" y="-10"/>
      <point x="240" y="-10" type="curve" smooth="yes"/>
      <point x="275" y="-10"/>
      <point x="325" y="-4"/>
    </contour>
  </outline>
</glyph>
<glyph name="Uogonek" format="1">
  <advance width="646"/>
  <unicode hex="0172"/>
  <outline>
    <contour>
      <point x="377" y="-207" type="curve"/>
      <point x="366" y="-124" type="line"/>
      <point x="347" y="-130"/>
      <point x="332" y="-133"/>
      <point x="318" y="-133" type="curve" smooth="yes"/>
      <point x="302" y="-133"/>
      <point x="292" y="-127"/>
      <point x="292" y="-114" type="curve" smooth="yes"/>
      <point x="292" y="-83"/>
      <point x="319" y="-61"/>
      <point x="458" y="38" type="curve" smooth="yes"/>
      <point x="518" y="81"/>
      <point x="550" y="155"/>
      <point x="566" y="244" type="curve" smooth="yes"/>
      <point x="643" y="680" type="line"/>
      <point x="520" y="680" type="line"/>
      <point x="443" y="244" type="line" smooth="yes"/>
      <point x="428" y="156"/>
      <point x="381" y="103"/>
      <point x="296" y="103" type="curve" smooth="yes"/>
      <point x="211" y="103"/>
      <point x="184" y="157"/>
      <point x="199" y="244" type="curve" smooth="yes"/>
      <point x="276" y="680" type="line"/>
      <point x="153" y="680" type="line"/>
      <point x="76" y="244" type="line" smooth="yes"/>
      <point x="51" y="99"/>
      <point x="124" y="-2"/>
      <point x="275" y="-10" type="curve"/>
      <point x="205" y="-67"/>
      <point x="186" y="-105"/>
      <point x="186" y="-141" type="curve" smooth="yes"/>
      <point x="186" y="-195"/>
      <point x="226" y="-223"/>
      <point x="290" y="-223" type="curve" smooth="yes"/>
      <point x="319" y="-223"/>
      <point x="347" y="-218"/>
    </contour>
  </outline>
</glyph>
<glyph name="uogonek" format="1">
  <advance width="570"/>
  <unicode hex="0173"/>
  <outline>
    <contour>
      <point x="418" y="-207" type="curve"/>
      <point x="407" y="-124" type="line"/>
      <point x="388" y="-130"/>
      <point x="373" y="-133"/>
      <point x="359" y="-133" type="curve" smooth="yes"/>
      <point x="343" y="-133"/>
      <point x="333" y="-127"/>
      <point x="333" y="-114" type="curve" smooth="yes"/>
      <point x="333" y="-91"/>
      <point x="352" y="-68"/>
      <point x="446" y="0" type="curve"/>
      <point x="535" y="507" type="line"/>
      <point x="420" y="507" type="line"/>
      <point x="365" y="193" type="line"/>
      <point x="288" y="116"/>
      <point x="245" y="97"/>
      <point x="215" y="97" type="curve" smooth="yes"/>
      <point x="181" y="97"/>
      <point x="165" y="124"/>
      <point x="175" y="181" type="curve" smooth="yes"/>
      <point x="232" y="507" type="line"/>
      <point x="117" y="507" type="line"/>
      <point x="59" y="179" type="line" smooth="yes"/>
      <point x="39" y="71"/>
      <point x="80" y="-10"/>
      <point x="176" y="-10" type="curve" smooth="yes"/>
      <point x="223" y="-10"/>
      <point x="278" y="10"/>
      <point x="352" y="86" type="curve"/>
      <point x="338" y="8" type="line"/>
      <point x="246" y="-59"/>
      <point x="227" y="-103"/>
      <point x="227" y="-141" type="curve" smooth="yes"/>
      <point x="227" y="-195"/>
      <point x="267" y="-223"/>
      <point x="331" y="-223" type="curve" smooth="yes"/>
      <point x="360" y="-223"/>
      <point x="388" y="-218"/>
    </contour>
  </outline>
</glyph>
<glyph name="florin" format="1">
  <advance width="393.28130408282055"/>
  <unicode hex="0192"/>
  <outline>
    <contour>
      <point x="163" y="-33" type="curve" smooth="yes"/>
      <point x="254" y="307" type="line"/>
      <point x="377" y="307" type="line"/>
      <point x="395" y="407" type="line"/>
      <point x="280" y="407" type="line"/>
      <point x="321" y="560" type="line" smooth="yes"/>
      <point x="338" y="622"/>
      <point x="358" y="642"/>
      <point x="404" y="642" type="curve" smooth="yes"/>
      <point x="419" y="642"/>
      <point x="444" y="640"/>
      <point x="468" y="631" type="curve"/>
      <point x="504" y="730" type="line"/>
      <point x="472" y="743"/>
      <point x="430" y="750"/>
      <point x="392" y="750" type="curve" smooth="yes"/>
      <point x="274" y="750"/>
      <point x="238" y="680"/>
      <point x="206" y="560" type="curve" smooth="yes"/>
      <point x="165" y="407" type="line"/>
      <point x="40" y="407" type="line"/>
      <point x="22" y="307" type="line"/>
      <point x="139" y="307" type="line"/>
      <point x="48" y="-33" type="line" smooth="yes"/>
      <point x="31" y="-95"/>
      <point x="11" y="-115"/>
      <point x="-35" y="-115" type="curve" smooth="yes"/>
      <point x="-50" y="-115"/>
      <point x="-75" y="-113"/>
      <point x="-99" y="-104" type="curve"/>
      <point x="-135" y="-203" type="line"/>
      <point x="-103" y="-216"/>
      <point x="-61" y="-223"/>
      <point x="-23" y="-223" type="curve" smooth="yes"/>
      <point x="95" y="-223"/>
      <point x="131" y="-153"/>
    </contour>
  </outline>
</glyph>
<glyph name="circumflex" format="1">
  <advance width="500"/>
  <unicode hex="02C6"/>
  <outline>
    <contour>
      <point x="371" y="579" type="line"/>
      <point x="459" y="579" type="line"/>
      <point x="391" y="740" type="line"/>
      <point x="279" y="740" type="line"/>
      <point x="155" y="579" type="line"/>
      <point x="249" y="579" type="line"/>
      <point x="324" y="659" type="line"/>
    </contour>
  </outline>
</glyph>
<glyph name="caron" format="1">
  <advance width="500"/>
  <unicode hex="02C7"/>
  <outline>
    <contour>
      <point x="487" y="740" type="line"/>
      <point x="393" y="740" type="line"/>
      <point x="318" y="660" type="line"/>
      <point x="271" y="740" type="line"/>
      <point x="183" y="740" type="line"/>
      <point x="251" y="579" type="line"/>
      <point x="363" y="579" type="line"/>
    </contour>
  </outline>
</glyph>
<glyph name="breve" format="1">
  <advance width="500"/>
  <unicode hex="02D8"/>
  <outline>
    <contour>
      <point x="321" y="666" type="curve" smooth="yes"/>
      <point x="292" y="666"/>
      <point x="277" y="683"/>
      <point x="284" y="731" type="curve"/>
      <point x="200" y="731" type="line"/>
      <point x="189" y="627"/>
      <point x="237" y="585"/>
      <point x="316" y="585" type="curve" smooth="yes"/>
      <point x="394" y="585"/>
      <point x="443" y="627"/>
      <point x="468" y="731" type="curve"/>
      <point x="378" y="731" type="line"/>
      <point x="367" y="683"/>
      <point x="349" y="666"/>
    </contour>
  </outline>
</glyph>
<glyph name="ring" format="1">
  <advance width="500"/>
  <unicode hex="02DA"/>
  <outline>
    <contour>
      <point x="446" y="682" type="line" smooth="yes"/>
      <point x="460" y="751"/>
      <point x="415" y="803"/>
      <point x="340" y="803" type="curve" smooth="yes"/>
      <point x="270" y="803"/>
      <point x="223" y="761"/>
      <point x="210" y="698" type="curve" smooth="yes"/>
      <point x="207" y="683" type="line" smooth="yes"/>
      <point x="193" y="612"/>
      <point x="238" y="563"/>
      <point x="312" y="563" type="curve" smooth="yes"/>
      <point x="382" y="563"/>
      <point x="431" y="605"/>
      <point x="443" y="667" type="curve" smooth="yes"/>
    </contour>
    <contour>
      <point x="377" y="691" type="curve" smooth="yes"/>
      <point x="374" y="676" type="line" smooth="yes"/>
      <point x="368" y="648"/>
      <point x="346" y="630"/>
      <point x="316" y="630" type="curve" smooth="yes"/>
      <point x="286" y="630"/>
      <point x="270" y="648"/>
      <point x="276" y="676" type="curve" smooth="yes"/>
      <point x="279" y="691" type="line" smooth="yes"/>
      <point x="285" y="719"/>
      <point x="306" y="737"/>
      <point x="335" y="737" type="curve" smooth="yes"/>
      <point x="366" y="737"/>
      <point x="383" y="719"/>
    </contour>
  </outline>
</glyph>
<glyph name="ogonek" format="1">
  <advance width="500"/>
  <unicode hex="02DB"/>
  <outline>
    <contour>
      <point x="208" y="-133" type="curve" smooth="yes"/>
      <point x="192" y="-133"/>
      <point x="182" y="-127"/>
      <point x="182" y="-114" type="curve" smooth="yes"/>
      <point x="182" y="-91"/>
      <point x="200" y="-68"/>
      <point x="294" y="0" type="curve"/>
      <point x="240" y="44" type="line"/>
      <point x="102" y="-44"/>
      <point x="76" y="-97"/>
      <point x="76" y="-141" type="curve" smooth="yes"/>
      <point x="76" y="-195"/>
      <point x="116" y="-223"/>
      <point x="180" y="-223" type="curve" smooth="yes"/>
      <point x="209" y="-223"/>
      <point x="237" y="-218"/>
      <point x="267" y="-207" type="curve"/>
      <point x="256" y="-124" type="line"/>
      <point x="237" y="-130"/>
      <point x="222" y="-133"/>
    </contour>
  </outline>
</glyph>
<glyph name="tilde" format="1">
  <advance width="500"/>
  <unicode hex="02DC"/>
  <outline>
    <contour>
      <point x="378" y="588" type="curve" smooth="yes"/>
      <point x="424" y="588"/>
      <point x="467" y="615"/>
      <point x="488" y="742" type="curve"/>
      <point x="407" y="742" type="line"/>
      <point x="397" y="692"/>
      <point x="388" y="680"/>
      <point x="377" y="680" type="curve" smooth="yes"/>
      <point x="351" y="680"/>
      <point x="343" y="750"/>
      <point x="270" y="750" type="curve" smooth="yes"/>
      <point x="223" y="750"/>
      <point x="179" y="722"/>
      <point x="158" y="596" type="curve"/>
      <point x="239" y="596" type="line"/>
      <point x="249" y="646"/>
      <point x="258" y="658"/>
      <point x="269" y="658" type="curve" smooth="yes"/>
      <point x="295" y="658"/>
      <point x="304" y="588"/>
    </contour>
  </outline>
</glyph>
<glyph name="hungarumlaut" format="1">
  <advance width="500"/>
  <unicode hex="02DD"/>
  <outline>
    <contour>
      <point x="280" y="579" type="line"/>
      <point x="374" y="699" type="line"/>
      <point x="289" y="745" type="line"/>
      <point x="184" y="579" type="line"/>
    </contour>
    <contour>
      <point x="430" y="579" type="line"/>
      <point x="524" y="699" type="line"/>
      <point x="439" y="745" type="line"/>
      <point x="334" y="579" type="line"/>
    </contour>
  </outline>
</glyph>
<glyph name="pi" format="1">
  <advance width="584"/>
  <unicode hex="03C0"/>
  <outline>
    <contour>
      <point x="42" y="407" type="line"/>
      <point x="124" y="407" type="line"/>
      <point x="52" y="0" type="line"/>
      <point x="167" y="0" type="line"/>
      <point x="239" y="407" type="line"/>
      <point x="395" y="407" type="line"/>
      <point x="350" y="148" type="line" smooth="yes"/>
      <point x="337" y="72"/>
      <point x="355" y="-5"/>
      <point x="472" y="-5" type="curve" smooth="yes"/>
      <point x="520" y="-5" type="line"/>
      <point x="539" y="101" type="line"/>
      <point x="498" y="101" type="line" smooth="yes"/>
      <point x="467" y="101"/>
      <point x="460" y="123"/>
      <point x="464" y="143" type="curve" smooth="yes"/>
      <point x="510" y="407" type="line"/>
      <point x="593" y="407" type="line"/>
      <point x="610" y="507" type="line"/>
      <point x="59" y="507" type="line"/>
    </contour>
  </outline>
</glyph>
<glyph name="uni1E9E" format="1">
  <advance width="611"/>
  <unicode hex="1E9E"/>
  <outline>
    <contour>
      <point x="555" y="151" type="curve" smooth="yes"/>
      <point x="558" y="165" type="line" smooth="yes"/>
      <point x="582" y="277"/>
      <point x="530" y="334"/>
      <point x="444" y="374" type="curve" smooth="yes"/>
      <point x="434" y="379" type="line"/>
      <point x="552" y="537" type="line"/>
      <point x="566" y="620" type="line"/>
      <point x="513" y="662"/>
      <point x="443" y="690"/>
      <point x="358" y="690" type="curve" smooth="yes"/>
      <point x="228" y="690"/>
      <point x="140" y="630"/>
      <point x="110" y="457" type="curve" smooth="yes"/>
      <point x="29" y="0" type="line"/>
      <point x="149" y="0" type="line"/>
      <point x="230" y="457" type="line" smooth="yes"/>
      <point x="245" y="544"/>
      <point x="288" y="579"/>
      <point x="358" y="579" type="curve" smooth="yes"/>
      <point x="389" y="579"/>
      <point x="416" y="573"/>
      <point x="440" y="562" type="curve"/>
      <point x="316" y="394" type="line"/>
      <point x="302" y="311" type="line"/>
      <point x="386" y="272" type="line" smooth="yes"/>
      <point x="431" y="251"/>
      <point x="447" y="229"/>
      <point x="439" y="180" type="curve" smooth="yes"/>
      <point x="436" y="166" type="line" smooth="yes"/>
      <point x="430" y="128"/>
      <point x="406" y="101"/>
      <point x="354" y="101" type="curve" smooth="yes"/>
      <point x="325" y="101"/>
      <point x="285" y="106"/>
      <point x="244" y="127" type="curve"/>
      <point x="206" y="24" type="line"/>
      <point x="255" y="0"/>
      <point x="306" y="-10"/>
      <point x="352" y="-10" type="curve" smooth="yes"/>
      <point x="473" y="-10"/>
      <point x="532" y="46"/>
    </contour>
  </outline>
</glyph>
<glyph name="endash" format="1">
  <advance width="604"/>
  <unicode hex="2013"/>
  <outline>
    <contour>
      <point x="52" y="265" type="line"/>
      <point x="556" y="265" type="line"/>
      <point x="573" y="365" type="line"/>
      <point x="69" y="365" type="line"/>
    </contour>
  </outline>
</glyph>
<glyph name="emdash" format="1">
  <advance width="804"/>
  <unicode hex="2014"/>
  <outline>
    <contour>
      <point x="52" y="265" type="line"/>
      <point x="756" y="265" type="line"/>
      <point x="773" y="365" type="line"/>
      <point x="69" y="365" type="line"/>
    </contour>
  </outline>
</glyph>
<glyph name="quoteleft" format="1">
  <advance width="211.2111355587893"/>
  <unicode hex="2018"/>
  <outline>
    <contour>
      <point x="55" y="388" type="line"/>
      <point x="167" y="388" type="line"/>
      <point x="187" y="501"/>
      <point x="206" y="553"/>
      <point x="265" y="651" type="curve"/>
      <point x="200" y="690" type="line"/>
      <point x="116" y="586"/>
      <point x="76" y="505"/>
      <point x="58" y="407" type="curve" smooth="yes"/>
    </contour>
  </outline>
</glyph>
<glyph name="quoteright" format="1">
  <advance width="211"/>
  <unicode hex="2019"/>
  <outline>
    <contour>
      <point x="255" y="680" type="line"/>
      <point x="143" y="680" type="line"/>
      <point x="123" y="567"/>
      <point x="104" y="515"/>
      <point x="45" y="417" type="curve"/>
      <point x="110" y="378" type="line"/>
      <point x="194" y="482"/>
      <point x="234" y="563"/>
      <point x="252" y="661" type="curve" smooth="yes"/>
    </contour>
  </outline>
</glyph>
<glyph name="quotesinglbase" format="1">
  <advance width="211"/>
  <unicode hex="201A"/>
  <outline>
    <contour>
      <point x="138" y="119" type="line"/>
      <point x="26" y="119" type="line"/>
      <point x="6" y="6"/>
      <point x="-13" y="-46"/>
      <point x="-72" y="-144" type="curve"/>
      <point x="-7" y="-183" type="line"/>
      <point x="77" y="-79"/>
      <point x="117" y="2"/>
      <point x="135" y="100" type="curve" smooth="yes"/>
    </contour>
  </outline>
</glyph>
<glyph name="quotedblleft" format="1">
  <advance width="396"/>
  <unicode hex="201C"/>
  <outline>
    <contour>
      <point x="240" y="388" type="line"/>
      <point x="352" y="388" type="line"/>
      <point x="372" y="501"/>
      <point x="391" y="553"/>
      <point x="450" y="651" type="curve"/>
      <point x="385" y="690" type="line"/>
      <point x="301" y="586"/>
      <point x="261" y="505"/>
      <point x="243" y="407" type="curve" smooth="yes"/>
    </contour>
    <contour>
      <point x="55" y="388" type="line"/>
      <point x="167" y="388" type="line"/>
      <point x="187" y="501"/>
      <point x="206" y="553"/>
      <point x="265" y="651" type="curve"/>
      <point x="200" y="690" type="line"/>
      <point x="116" y="586"/>
      <point x="76" y="505"/>
      <point x="58" y="407" type="curve" smooth="yes"/>
    </contour>
  </outline>
</glyph>
<glyph name="quotedblright" format="1">
  <advance width="396"/>
  <unicode hex="201D"/>
  <outline>
    <contour>
      <point x="255" y="680" type="line"/>
      <point x="143" y="680" type="line"/>
      <point x="123" y="567"/>
      <point x="104" y="515"/>
      <point x="45" y="417" type="curve"/>
      <point x="110" y="378" type="line"/>
      <point x="194" y="482"/>
      <point x="234" y="563"/>
      <point x="252" y="661" type="curve" smooth="yes"/>
    </contour>
    <contour>
      <point x="440" y="680" type="line"/>
      <point x="328" y="680" type="line"/>
      <point x="308" y="567"/>
      <point x="289" y="515"/>
      <point x="230" y="417" type="curve"/>
      <point x="295" y="378" type="line"/>
      <point x="379" y="482"/>
      <point x="419" y="563"/>
      <point x="437" y="661" type="curve" smooth="yes"/>
    </contour>
  </outline>
</glyph>
<glyph name="quotedblbase" format="1">
  <advance width="396"/>
  <unicode hex="201E"/>
  <outline>
    <contour>
      <point x="138" y="119" type="line"/>
      <point x="26" y="119" type="line"/>
      <point x="6" y="6"/>
      <point x="-13" y="-46"/>
      <point x="-72" y="-144" type="curve"/>
      <point x="-7" y="-183" type="line"/>
      <point x="77" y="-79"/>
      <point x="117" y="2"/>
      <point x="135" y="100" type="curve" smooth="yes"/>
    </contour>
    <contour>
      <point x="323" y="119" type="line"/>
      <point x="211" y="119" type="line"/>
      <point x="191" y="6"/>
      <point x="172" y="-46"/>
      <point x="113" y="-144" type="curve"/>
      <point x="178" y="-183" type="line"/>
      <point x="262" y="-79"/>
      <point x="302" y="2"/>
      <point x="320" y="100" type="curve" smooth="yes"/>
    </contour>
  </outline>
</glyph>
<glyph name="dagger" format="1">
  <advance width="433"/>
  <unicode hex="2020"/>
  <outline>
    <contour>
      <point x="263" y="199" type="line"/>
      <point x="282" y="308" type="line"/>
      <point x="289" y="439" type="line"/>
      <point x="387" y="422" type="line"/>
      <point x="447" y="422" type="line"/>
      <point x="467" y="531" type="line"/>
      <point x="407" y="531" type="line"/>
      <point x="303" y="515" type="line"/>
      <point x="338" y="620" type="line"/>
      <point x="349" y="680" type="line"/>
      <point x="234" y="680" type="line"/>
      <point x="223" y="620" type="line"/>
      <point x="221" y="516" type="line"/>
      <point x="124" y="532" type="line"/>
      <point x="64" y="532" type="line"/>
      <point x="45" y="423" type="line"/>
      <point x="105" y="423" type="line"/>
      <point x="208" y="439" type="line"/>
      <point x="167" y="308" type="line"/>
      <point x="148" y="199" type="line"/>
      <point x="110" y="-143" type="line"/>
      <point x="180" y="-143" type="line"/>
    </contour>
  </outline>
</glyph>
<glyph name="daggerdbl" format="1">
  <advance width="455"/>
  <unicode hex="2021"/>
  <outline>
    <contour>
      <point x="224" y="-83" type="line"/>
      <point x="226" y="21" type="line"/>
      <point x="324" y="5" type="line"/>
      <point x="384" y="5" type="line"/>
      <point x="403" y="114" type="line"/>
      <point x="343" y="114" type="line"/>
      <point x="240" y="98" type="line"/>
      <point x="280" y="229" type="line"/>
      <point x="294" y="308" type="line"/>
      <point x="301" y="439" type="line"/>
      <point x="399" y="422" type="line"/>
      <point x="459" y="422" type="line"/>
      <point x="479" y="531" type="line"/>
      <point x="419" y="531" type="line"/>
      <point x="315" y="515" type="line"/>
      <point x="350" y="620" type="line"/>
      <point x="361" y="680" type="line"/>
      <point x="246" y="680" type="line"/>
      <point x="235" y="620" type="line"/>
      <point x="233" y="516" type="line"/>
      <point x="136" y="532" type="line"/>
      <point x="76" y="532" type="line"/>
      <point x="57" y="423" type="line"/>
      <point x="117" y="423" type="line"/>
      <point x="220" y="439" type="line"/>
      <point x="179" y="308" type="line"/>
      <point x="165" y="229" type="line"/>
      <point x="159" y="98" type="line"/>
      <point x="60" y="115" type="line"/>
      <point x="0" y="115" type="line"/>
      <point x="-19" y="6" type="line"/>
      <point x="41" y="6" type="line"/>
      <point x="145" y="22" type="line"/>
      <point x="109" y="-83" type="line"/>
      <point x="99" y="-143" type="line"/>
      <point x="214" y="-143" type="line"/>
    </contour>
  </outline>
</glyph>
<glyph name="bullet" format="1">
  <advance width="243"/>
  <unicode hex="2022"/>
  <outline>
    <contour>
      <point x="195" y="262" type="line"/>
      <point x="220" y="405" type="line"/>
      <point x="75" y="405" type="line"/>
      <point x="50" y="262" type="line"/>
    </contour>
  </outline>
</glyph>
<glyph name="guilsinglleft" format="1">
  <advance width="392"/>
  <unicode hex="2039"/>
  <outline>
    <contour>
      <point x="316" y="126" type="line"/>
      <point x="152" y="241" type="line"/>
      <point x="356" y="354" type="line"/>
      <point x="377" y="478" type="line"/>
      <point x="47" y="286" type="line"/>
      <point x="34" y="209" type="line"/>
      <point x="295" y="14" type="line"/>
    </contour>
  </outline>
</glyph>
<glyph name="guilsinglright" format="1">
  <advance width="392.6766419740562"/>
  <unicode hex="203A"/>
  <outline>
    <contour>
      <point x="342" y="206" type="line"/>
      <point x="355" y="283" type="line"/>
      <point x="94" y="478" type="line"/>
      <point x="73" y="366" type="line"/>
      <point x="237" y="251" type="line"/>
      <point x="33" y="138" type="line"/>
      <point x="12" y="14" type="line"/>
    </contour>
  </outline>
</glyph>
<glyph name="fraction" format="1">
  <advance width="111"/>
  <unicode hex="2044"/>
  <outline>
    <contour>
      <point x="246" y="680" type="line"/>
      <point x="-199" y="0" type="line"/>
      <point x="-105" y="0" type="line"/>
      <point x="340" y="680" type="line"/>
    </contour>
  </outline>
</glyph>
<glyph name="Euro" format="1">
  <advance width="601.710190578746"/>
  <unicode hex="20AC"/>
  <outline>
    <contour>
      <point x="531" y="23" type="curve"/>
      <point x="506" y="128" type="line"/>
      <point x="439" y="108"/>
      <point x="395" y="103"/>
      <point x="362" y="103" type="curve" smooth="yes"/>
      <point x="292" y="103"/>
      <point x="258" y="144"/>
      <point x="252" y="207" type="curve"/>
      <point x="410" y="207" type="line"/>
      <point x="444" y="294" type="line"/>
      <point x="258" y="294" type="line"/>
      <point x="271" y="370" type="line"/>
      <point x="470" y="370" type="line"/>
      <point x="504" y="457" type="line"/>
      <point x="289" y="457" type="line"/>
      <point x="314" y="529"/>
      <point x="361" y="577"/>
      <point x="436" y="577" type="curve" smooth="yes"/>
      <point x="479" y="577"/>
      <point x="514" y="567"/>
      <point x="571" y="542" type="curve"/>
      <point x="616" y="648" type="line"/>
      <point x="552" y="679"/>
      <point x="498" y="690"/>
      <point x="444" y="690" type="curve" smooth="yes"/>
      <point x="293" y="690"/>
      <point x="203" y="611"/>
      <point x="164" y="457" type="curve"/>
      <point x="81" y="457" type="line"/>
      <point x="65" y="370" type="line"/>
      <point x="148" y="370" type="line"/>
      <point x="135" y="294" type="line"/>
      <point x="52" y="294" type="line"/>
      <point x="36" y="207" type="line"/>
      <point x="128" y="207" type="line"/>
      <point x="133" y="80"/>
      <point x="211" y="-10"/>
      <point x="350" y="-10" type="curve" smooth="yes"/>
      <point x="395" y="-10"/>
      <point x="457" y="-2"/>
    </contour>
  </outline>
</glyph>
<glyph name="uni20B9" format="1">
  <advance width="552"/>
  <unicode hex="20B9"/>
  <outline>
    <contour>
      <point x="280" y="0" type="curve"/>
      <point x="427" y="0" type="line"/>
      <point x="353" y="101"/>
      <point x="292" y="169"/>
      <point x="208" y="250" type="curve"/>
      <point x="214" y="250" type="line" smooth="yes"/>
      <point x="355" y="250"/>
      <point x="437" y="313"/>
      <point x="459" y="422" type="curve"/>
      <point x="540" y="422" type="line"/>
      <point x="556" y="509" type="line"/>
      <point x="471" y="509" type="line"/>
      <point x="470" y="543"/>
      <point x="459" y="571"/>
      <point x="439" y="593" type="curve"/>
      <point x="571" y="593" type="line"/>
      <point x="586" y="680" type="line"/>
      <point x="134" y="680" type="line"/>
      <point x="119" y="593" type="line"/>
      <point x="275" y="593" type="line" smooth="yes"/>
      <point x="333" y="593"/>
      <point x="362" y="561"/>
      <point x="360" y="509" type="curve"/>
      <point x="104" y="509" type="line"/>
      <point x="88" y="422" type="line"/>
      <point x="345" y="422" type="line"/>
      <point x="328" y="369"/>
      <point x="288" y="337"/>
      <point x="229" y="337" type="curve" smooth="yes"/>
      <point x="73" y="337" type="line"/>
      <point x="58" y="250" type="line"/>
      <point x="144" y="165"/>
      <point x="206" y="100"/>
    </contour>
  </outline>
</glyph>
<glyph name="uni2113" format="1">
  <advance width="392.7721115221681"/>
  <unicode hex="2113"/>
  <outline>
    <contour>
      <point x="295" y="15" type="curve"/>
      <point x="278" y="113" type="line"/>
      <point x="250" y="104"/>
      <point x="219" y="98"/>
      <point x="199" y="98" type="curve" smooth="yes"/>
      <point x="166" y="98"/>
      <point x="151" y="111"/>
      <point x="158" y="154" type="curve" smooth="yes"/>
      <point x="170" y="224" type="line"/>
      <point x="377" y="381"/>
      <point x="422" y="478"/>
      <point x="422" y="558" type="curve" smooth="yes"/>
      <point x="422" y="658"/>
      <point x="351" y="690"/>
      <point x="280" y="690" type="curve" smooth="yes"/>
      <point x="175" y="690"/>
      <point x="125" y="616"/>
      <point x="109" y="525" type="curve" smooth="yes"/>
      <point x="44" y="158" type="line" smooth="yes"/>
      <point x="29" y="73"/>
      <point x="51" y="-10"/>
      <point x="173" y="-10" type="curve" smooth="yes"/>
      <point x="211" y="-10"/>
      <point x="257" y="-1"/>
    </contour>
    <contour>
      <point x="224" y="526" type="line" smooth="yes"/>
      <point x="232" y="569"/>
      <point x="251" y="582"/>
      <point x="276" y="582" type="curve" smooth="yes"/>
      <point x="293" y="582"/>
      <point x="308" y="573"/>
      <point x="308" y="543" type="curve" smooth="yes"/>
      <point x="308" y="507"/>
      <point x="288" y="447"/>
      <point x="194" y="360" type="curve"/>
    </contour>
  </outline>
</glyph>
